<svg width="2446" height="1205" xmlns="http://www.w3.org/2000/svg" xmlns:xlink="http://www.w3.org/1999/xlink" xml:space="preserve" overflow="hidden"><defs><clipPath id="clip0"><rect x="1443" y="89" width="2446" height="1205"/></clipPath><clipPath id="clip1"><rect x="1444" y="89" width="2443" height="1203"/></clipPath><clipPath id="clip2"><rect x="1564" y="140" width="2276" height="894"/></clipPath><clipPath id="clip3"><rect x="1564" y="140" width="2276" height="894"/></clipPath><clipPath id="clip4"><rect x="1564" y="140" width="2276" height="894"/></clipPath><clipPath id="clip5"><rect x="1564" y="140" width="2276" height="894"/></clipPath><clipPath id="clip6"><rect x="1564" y="140" width="2276" height="894"/></clipPath><clipPath id="clip7"><rect x="1444" y="89" width="2443" height="1203"/></clipPath><clipPath id="clip8"><rect x="1444" y="89" width="2443" height="1203"/></clipPath><clipPath id="clip9"><rect x="1444" y="89" width="2443" height="1203"/></clipPath><clipPath id="clip10"><rect x="1444" y="89" width="2443" height="1203"/></clipPath><clipPath id="clip11"><rect x="1444" y="89" width="2443" height="1203"/></clipPath><clipPath id="clip12"><rect x="1444" y="89" width="2443" height="1203"/></clipPath><clipPath id="clip13"><rect x="1444" y="89" width="2443" height="1203"/></clipPath><clipPath id="clip14"><rect x="1444" y="89" width="2443" height="1203"/></clipPath><clipPath id="clip15"><rect x="1444" y="89" width="2443" height="1203"/></clipPath><clipPath id="clip16"><rect x="1444" y="89" width="2443" height="1203"/></clipPath><clipPath id="clip17"><rect x="1444" y="89" width="2443" height="1203"/></clipPath><clipPath id="clip18"><rect x="1444" y="89" width="2443" height="1203"/></clipPath><clipPath id="clip19"><rect x="1444" y="89" width="2443" height="1203"/></clipPath><clipPath id="clip20"><rect x="1444" y="89" width="2443" height="1203"/></clipPath><clipPath id="clip21"><rect x="1444" y="89" width="2443" height="1203"/></clipPath><clipPath id="clip22"><rect x="1444" y="89" width="2443" height="1203"/></clipPath><clipPath id="clip23"><rect x="1444" y="89" width="2443" height="1203"/></clipPath><clipPath id="clip24"><rect x="1444" y="89" width="2443" height="1203"/></clipPath><clipPath id="clip25"><rect x="1444" y="89" width="2443" height="1203"/></clipPath><clipPath id="clip26"><rect x="1444" y="89" width="2443" height="1203"/></clipPath><clipPath id="clip27"><rect x="1444" y="89" width="2443" height="1203"/></clipPath><clipPath id="clip28"><rect x="1444" y="89" width="2443" height="1203"/></clipPath><clipPath id="clip29"><rect x="1444" y="89" width="2443" height="1203"/></clipPath><clipPath id="clip30"><rect x="1444" y="89" width="2443" height="1203"/></clipPath><clipPath id="clip31"><rect x="1444" y="89" width="2443" height="1203"/></clipPath><clipPath id="clip32"><rect x="1444" y="89" width="2443" height="1203"/></clipPath><clipPath id="clip33"><rect x="1444" y="89" width="2443" height="1203"/></clipPath><clipPath id="clip34"><rect x="1444" y="89" width="2443" height="1203"/></clipPath><clipPath id="clip35"><rect x="1444" y="89" width="2443" height="1203"/></clipPath><clipPath id="clip36"><rect x="1444" y="89" width="2443" height="1203"/></clipPath><clipPath id="clip37"><rect x="1444" y="89" width="2443" height="1203"/></clipPath><clipPath id="clip38"><rect x="1444" y="89" width="2443" height="1203"/></clipPath></defs><g clip-path="url(#clip0)" transform="translate(-1443 -89)"><rect x="1444" y="90.0001" width="2443" height="1202" fill="#FFFFFF"/><g clip-path="url(#clip1)"><path d="M1564.5 941.531 3836.5 941.531M1564.5 852.528 3836.5 852.528M1564.5 763.525 3836.5 763.525M1564.5 674.522 3836.5 674.522M1564.5 585.519 3836.5 585.519M1564.5 496.516 3836.5 496.516M1564.5 407.514 3836.5 407.514M1564.5 318.511 3836.5 318.511M1564.5 229.508 3836.5 229.508M1564.5 140.5 3836.5 140.5" stroke="#D9D9D9" stroke-width="3.4375" stroke-linejoin="round" stroke-miterlimit="10" fill="none"/></g><g clip-path="url(#clip2)"><path d="M1598.05 369.012 1628.05 369.012 1628.05 1031 1598.05 1031ZM1850.06 369.012 1881.06 369.012 1881.06 1031 1850.06 1031ZM2103.07 387.013 2133.07 387.013 2133.07 1031 2103.07 1031ZM2355.08 349.011 2386.08 349.011 2386.08 1031 2355.08 1031ZM2608.09 840.028 2638.09 840.028 2638.09 1031 2608.09 1031ZM2860.09 140 2891.09 140 2891.09 1031 2860.09 1031ZM3112.1 140 3143.1 140 3143.1 1031 3112.1 1031ZM3365.11 146.005 3395.11 146.005 3395.11 1031 3365.11 1031ZM3617.12 310.01 3648.12 310.01 3648.12 1031 3617.12 1031Z" fill="#4472C4"/></g><g clip-path="url(#clip3)"><path d="M1636.05 474.016 1667.05 474.016 1667.05 1031 1636.05 1031ZM1889.06 469.015 1919.06 469.015 1919.06 1031 1889.06 1031ZM2141.07 503.017 2172.07 503.017 2172.07 1031 2141.07 1031ZM2394.08 497.016 2424.08 497.016 2424.08 1031 2394.08 1031ZM2646.09 345.011 2677.09 345.011 2677.09 1031 2646.09 1031ZM2899.1 371.012 2929.1 371.012 2929.1 1031 2899.1 1031ZM3151.1 869.029 3182.1 869.029 3182.1 1031 3151.1 1031ZM3404.11 166.005 3434.11 166.005 3434.11 1031 3404.11 1031ZM3656.12 335.011 3687.12 335.011 3687.12 1031 3656.12 1031Z" fill="#ED7D31"/></g><g clip-path="url(#clip4)"><path d="M1675.06 679.022 1706.06 679.022 1706.06 1031 1675.06 1031ZM1928.06 679.022 1958.06 679.022 1958.06 1031 1928.06 1031ZM2180.07 826.027 2211.07 826.027 2211.07 1031 2180.07 1031ZM2433.08 826.027 2463.08 826.027 2463.08 1031 2433.08 1031ZM2685.09 239.008 2716.09 239.008 2716.09 1031 2685.09 1031ZM2938.1 239.008 2968.1 239.008 2968.1 1031 2938.1 1031ZM3190.1 554.018 3221.11 554.018 3221.11 1031 3190.1 1031ZM3443.11 222.007 3473.11 222.007 3473.11 1031 3443.11 1031ZM3695.12 416.014 3726.12 416.014 3726.12 1031 3695.12 1031Z" fill="#A5A5A5"/></g><g clip-path="url(#clip5)"><path d="M1714.06 595.02 1744.06 595.02 1744.06 1031 1714.06 1031ZM1966.06 583.019 1997.07 583.019 1997.07 1031 1966.06 1031ZM2219.07 743.024 2249.07 743.024 2249.07 1031 2219.07 1031ZM2471.08 688.023 2502.08 688.023 2502.08 1031 2471.08 1031ZM2724.09 702.023 2754.09 702.023 2754.09 1031 2724.09 1031ZM2976.1 784.026 3007.1 784.026 3007.1 1031 2976.1 1031ZM3229.11 680.022 3259.11 680.022 3259.11 1031 3229.11 1031ZM3481.11 303.01 3512.12 303.01 3512.12 1031 3481.11 1031ZM3734.12 601.02 3764.12 601.02 3764.12 1031 3734.12 1031Z" fill="#FFC000"/></g><g clip-path="url(#clip6)"><path d="M1753.06 457.015 1783.06 457.015 1783.06 1031 1753.06 1031ZM2005.07 455.015 2036.07 455.015 2036.07 1031 2005.07 1031ZM2258.07 518.017 2288.08 518.017 2288.08 1031 2258.07 1031ZM2510.08 493.016 2541.08 493.016 2541.08 1031 2510.08 1031ZM2763.09 403.013 2793.09 403.013 2793.09 1031 2763.09 1031ZM3015.1 442.014 3046.1 442.014 3046.1 1031 3015.1 1031ZM3268.11 681.022 3298.11 681.022 3298.11 1031 3268.11 1031ZM3520.12 172.006 3551.12 172.006 3551.12 1031 3520.12 1031ZM3773.12 367.012 3803.12 367.012 3803.12 1031 3773.12 1031Z" fill="#5B9BD5"/></g><g clip-path="url(#clip7)"><path d="M1564.5 1030.5 3836.5 1030.5" stroke="#D9D9D9" stroke-width="3.4375" stroke-linejoin="round" stroke-miterlimit="10" fill="none" fill-rule="evenodd"/></g><g clip-path="url(#clip8)"><text fill="#595959" font-family="Calibri,Calibri_MSFontService,sans-serif" font-weight="400" font-size="41" transform="matrix(1 0 0 1 1505.11 1043)">0</text></g><g clip-path="url(#clip9)"><text fill="#595959" font-family="Calibri,Calibri_MSFontService,sans-serif" font-weight="400" font-size="41" transform="matrix(1 0 0 1 1473.81 953)">0.1</text></g><g clip-path="url(#clip10)"><text fill="#595959" font-family="Calibri,Calibri_MSFontService,sans-serif" font-weight="400" font-size="41" transform="matrix(1 0 0 1 1473.81 864)">0.2</text></g><g clip-path="url(#clip11)"><text fill="#595959" font-family="Calibri,Calibri_MSFontService,sans-serif" font-weight="400" font-size="41" transform="matrix(1 0 0 1 1473.81 775)">0.3</text></g><g clip-path="url(#clip12)"><text fill="#595959" font-family="Calibri,Calibri_MSFontService,sans-serif" font-weight="400" font-size="41" transform="matrix(1 0 0 1 1473.81 686)">0.4</text></g><g clip-path="url(#clip13)"><text fill="#595959" font-family="Calibri,Calibri_MSFontService,sans-serif" font-weight="400" font-size="41" transform="matrix(1 0 0 1 1473.81 597)">0.5</text></g><g clip-path="url(#clip14)"><text fill="#595959" font-family="Calibri,Calibri_MSFontService,sans-serif" font-weight="400" font-size="41" transform="matrix(1 0 0 1 1473.81 508)">0.6</text></g><g clip-path="url(#clip15)"><text fill="#595959" font-family="Calibri,Calibri_MSFontService,sans-serif" font-weight="400" font-size="41" transform="matrix(1 0 0 1 1473.81 419)">0.7</text></g><g clip-path="url(#clip16)"><text fill="#595959" font-family="Calibri,Calibri_MSFontService,sans-serif" font-weight="400" font-size="41" transform="matrix(1 0 0 1 1473.81 330)">0.8</text></g><g clip-path="url(#clip17)"><text fill="#595959" font-family="Calibri,Calibri_MSFontService,sans-serif" font-weight="400" font-size="41" transform="matrix(1 0 0 1 1473.81 241)">0.9</text></g><g clip-path="url(#clip18)"><text fill="#595959" font-family="Calibri,Calibri_MSFontService,sans-serif" font-weight="400" font-size="41" transform="matrix(1 0 0 1 1505.11 152)">1</text></g><g clip-path="url(#clip19)"><text fill="#595959" font-family="Calibri,Calibri_MSFontService,sans-serif" font-weight="400" font-size="41" transform="matrix(1 0 0 1 1641.56 1096)">select</text></g><g clip-path="url(#clip20)"><text fill="#595959" font-family="Calibri,Calibri_MSFontService,sans-serif" font-weight="400" font-size="41" transform="matrix(1 0 0 1 1817.17 1096)">select(no AGG)</text></g><g clip-path="url(#clip21)"><text fill="#595959" font-family="Calibri,Calibri_MSFontService,sans-serif" font-weight="400" font-size="41" transform="matrix(1 0 0 1 2142.16 1096)">where</text></g><g clip-path="url(#clip22)"><text fill="#595959" font-family="Calibri,Calibri_MSFontService,sans-serif" font-weight="400" font-size="41" transform="matrix(1 0 0 1 2331.44 1096)">where(no OP)</text></g><g clip-path="url(#clip23)"><text fill="#595959" font-family="Calibri,Calibri_MSFontService,sans-serif" font-weight="400" font-size="41" transform="matrix(1 0 0 1 2623.02 1096)">group(no</text></g><g clip-path="url(#clip24)"><text fill="#595959" font-family="Calibri,Calibri_MSFontService,sans-serif" font-weight="400" font-size="41" transform="matrix(1 0 0 1 2636.87 1147)">Having)</text></g><g clip-path="url(#clip25)"><text fill="#595959" font-family="Calibri,Calibri_MSFontService,sans-serif" font-weight="400" font-size="41" transform="matrix(1 0 0 1 2903.47 1096)">group</text></g><g clip-path="url(#clip26)"><text fill="#595959" font-family="Calibri,Calibri_MSFontService,sans-serif" font-weight="400" font-size="41" transform="matrix(1 0 0 1 3159.03 1096)">order</text></g><g clip-path="url(#clip27)"><text fill="#595959" font-family="Calibri,Calibri_MSFontService,sans-serif" font-weight="400" font-size="41" transform="matrix(1 0 0 1 3400.29 1096)">and/or</text></g><g clip-path="url(#clip28)"><text fill="#595959" font-family="Calibri,Calibri_MSFontService,sans-serif" font-weight="400" font-size="41" transform="matrix(1 0 0 1 3629.66 1096)">keywords</text></g><g clip-path="url(#clip29)"><rect x="2316" y="1215" width="22" height="22.9996" fill="#4472C4"/></g><g clip-path="url(#clip30)"><text fill="#595959" font-family="Calibri,Calibri_MSFontService,sans-serif" font-weight="400" font-size="41" transform="matrix(1 0 0 1 2347.9 1238)">easy</text></g><g clip-path="url(#clip31)"><rect x="2457" y="1215" width="23" height="22.9996" fill="#ED7D31"/></g><g clip-path="url(#clip32)"><text fill="#595959" font-family="Calibri,Calibri_MSFontService,sans-serif" font-weight="400" font-size="41" transform="matrix(1 0 0 1 2489.76 1238)">medium</text></g><g clip-path="url(#clip33)"><rect x="2664" y="1215" width="22" height="22.9996" fill="#A5A5A5"/></g><g clip-path="url(#clip34)"><text fill="#595959" font-family="Calibri,Calibri_MSFontService,sans-serif" font-weight="400" font-size="41" transform="matrix(1 0 0 1 2695.79 1238)">hard</text></g><g clip-path="url(#clip35)"><rect x="2808" y="1215" width="22" height="22.9996" fill="#FFC000"/></g><g clip-path="url(#clip36)"><text fill="#595959" font-family="Calibri,Calibri_MSFontService,sans-serif" font-weight="400" font-size="41" transform="matrix(1 0 0 1 2840.06 1238)">extra</text></g><g clip-path="url(#clip37)"><rect x="2961" y="1215" width="23" height="22.9996" fill="#5B9BD5"/></g><g clip-path="url(#clip38)"><text fill="#595959" font-family="Calibri,Calibri_MSFontService,sans-serif" font-weight="400" font-size="41" transform="matrix(1 0 0 1 2993.19 1238)">all</text></g><rect x="1444.5" y="90.4999" width="2443" height="1202" stroke="#D9D9D9" stroke-width="3.4375" stroke-linejoin="round" stroke-miterlimit="10" fill="none"/></g></svg>