<?xml version="1.0" encoding="UTF-8" standalone="no"?><!DOCTYPE svg PUBLIC "-//W3C//DTD SVG 1.1//EN" "http://www.w3.org/Graphics/SVG/1.1/DTD/svg11.dtd"><!-- Generated by graphviz version 2.40.1 (20161225.0304)
 --><!-- Title: %0 Pages: 1 --><svg xmlns="http://www.w3.org/2000/svg" xmlns:xlink="http://www.w3.org/1999/xlink" width="638pt" height="417pt" viewBox="0.00 0.00 638.06 416.90">
<g id="graph0" class="graph" transform="scale(1 1) rotate(0) translate(36 380.9024)">
<title>%0</title>
<polygon fill="#ffffff" stroke="transparent" points="-36,36 -36,-380.9024 602.0579,-380.9024 602.0579,36 -36,36"/>
<!-- picard&#45;ui -->
<g id="node1" class="node">
<title>picard-ui</title>
<polygon fill="none" stroke="#000000" points="565.8253,-234.8512 499.7589,-234.8512 499.7589,-230.8512 495.7589,-230.8512 495.7589,-226.8512 499.7589,-226.8512 499.7589,-206.8512 495.7589,-206.8512 495.7589,-202.8512 499.7589,-202.8512 499.7589,-198.8512 565.8253,-198.8512 565.8253,-234.8512"/>
<polyline fill="none" stroke="#000000" points="499.7589,-230.8512 503.7589,-230.8512 503.7589,-226.8512 499.7589,-226.8512 "/>
<polyline fill="none" stroke="#000000" points="499.7589,-206.8512 503.7589,-206.8512 503.7589,-202.8512 499.7589,-202.8512 "/>
<text text-anchor="middle" x="532.7921" y="-212.6512" font-family="Times,serif" font-size="14.00" fill="#000000">picard-ui</text>
</g>
<!-- picard&#45;api -->
<g id="node2" class="node">
<title>picard-api</title>
<polygon fill="none" stroke="#000000" points="374.0387,-121.3504 301.5455,-121.3504 301.5455,-117.3504 297.5455,-117.3504 297.5455,-113.3504 301.5455,-113.3504 301.5455,-93.3504 297.5455,-93.3504 297.5455,-89.3504 301.5455,-89.3504 301.5455,-85.3504 374.0387,-85.3504 374.0387,-121.3504"/>
<polyline fill="none" stroke="#000000" points="301.5455,-117.3504 305.5455,-117.3504 305.5455,-113.3504 301.5455,-113.3504 "/>
<polyline fill="none" stroke="#000000" points="301.5455,-93.3504 305.5455,-93.3504 305.5455,-89.3504 301.5455,-89.3504 "/>
<text text-anchor="middle" x="337.7921" y="-99.1504" font-family="Times,serif" font-size="14.00" fill="#000000">picard-api</text>
</g>
<!-- picard&#45;ui&#45;&gt;picard&#45;api -->
<g id="edge1" class="edge">
<title>picard-ui-&gt;picard-api</title>
<path fill="none" stroke="#000000" stroke-dasharray="1,5" d="M507.4495,-198.698C501.6773,-194.6377 495.5489,-190.3849 489.7921,-186.5008 466.1235,-170.5316 460.6352,-165.7735 435.7921,-151.7008 418.939,-142.1541 399.9417,-132.5321 383.1909,-124.4132"/>
<polygon fill="#000000" stroke="#000000" points="384.6733,-121.2424 374.1438,-120.0673 381.6423,-127.5522 384.6733,-121.2424"/>
</g>
<!-- db&#45;engine -->
<g id="node5" class="node">
<title>db-engine</title>
<polygon fill="none" stroke="#000000" points="300.7725,-36 228.8117,-36 228.8117,-32 224.8117,-32 224.8117,-28 228.8117,-28 228.8117,-8 224.8117,-8 224.8117,-4 228.8117,-4 228.8117,0 300.7725,0 300.7725,-36"/>
<polyline fill="none" stroke="#000000" points="228.8117,-32 232.8117,-32 232.8117,-28 228.8117,-28 "/>
<polyline fill="none" stroke="#000000" points="228.8117,-8 232.8117,-8 232.8117,-4 228.8117,-4 "/>
<text text-anchor="middle" x="264.7921" y="-13.8" font-family="Times,serif" font-size="14.00" fill="#000000">db-engine</text>
</g>
<!-- picard&#45;api&#45;&gt;db&#45;engine -->
<g id="edge3" class="edge">
<title>picard-api-&gt;db-engine</title>
<path fill="none" stroke="#000000" stroke-dasharray="1,5" d="M322.3107,-85.2498C312.0516,-73.255 298.4319,-57.3311 287.0209,-43.9896"/>
<polygon fill="#000000" stroke="#000000" points="289.4109,-41.3991 280.2512,-36.0745 284.0912,-45.949 289.4109,-41.3991"/>
</g>
<!-- ./database -->
<g id="node3" class="node">
<title>./database</title>
<polygon fill="none" stroke="#000000" points="71.3775,-234.8512 68.3775,-238.8512 47.3775,-238.8512 44.3775,-234.8512 .2067,-234.8512 .2067,-198.8512 71.3775,-198.8512 71.3775,-234.8512"/>
<text text-anchor="middle" x="35.7921" y="-212.6512" font-family="Times,serif" font-size="14.00" fill="#000000">./database</text>
</g>
<!-- ./database&#45;&gt;picard&#45;api -->
<g id="edge4" class="edge">
<title>./database-&gt;picard-api</title>
<path fill="none" stroke="#000000" stroke-dasharray="5,2" d="M54.7831,-190.7796C66.595,-176.6787 83.0626,-160.4101 101.7079,-151.7008 178.5935,-115.7872 211.7568,-161.9061 291.7921,-133.7008 296.7411,-131.9567 301.6808,-129.567 306.3881,-126.8882"/>
<polygon fill="#000000" stroke="#000000" points="51.9107,-188.7668 48.3851,-198.7579 57.3717,-193.1461 51.9107,-188.7668"/>
<polygon fill="#000000" stroke="#000000" points="308.451,-129.727 315.0953,-121.4745 304.7549,-123.7824 308.451,-129.727"/>
<text text-anchor="middle" x="127.8342" y="-155.9008" font-family="Times,serif" font-size="14.00" fill="#000000">/database</text>
</g>
<!-- 8501 -->
<g id="node4" class="node">
<title>8501</title>
<ellipse fill="none" stroke="#000000" cx="532.7921" cy="-314.552" rx="30.2015" ry="30.2015"/>
<text text-anchor="middle" x="532.7921" y="-310.352" font-family="Times,serif" font-size="14.00" fill="#000000">8501</text>
</g>
<!-- 8501&#45;&gt;picard&#45;ui -->
<g id="edge2" class="edge">
<title>8501-&gt;picard-ui</title>
<path fill="none" stroke="#000000" d="M532.7921,-284.1744C532.7921,-271.6968 532.7921,-257.3335 532.7921,-245.087"/>
<polygon fill="#000000" stroke="#000000" points="536.2922,-244.9704 532.7921,-234.9704 529.2922,-244.9705 536.2922,-244.9704"/>
</g>
<!-- ./transformers_cache -->
<g id="node6" class="node">
<title>./transformers_cache</title>
<polygon fill="none" stroke="#000000" points="222.2831,-234.8512 219.2831,-238.8512 198.2831,-238.8512 195.2831,-234.8512 89.3011,-234.8512 89.3011,-198.8512 222.2831,-198.8512 222.2831,-234.8512"/>
<text text-anchor="middle" x="155.7921" y="-212.6512" font-family="Times,serif" font-size="14.00" fill="#000000">./transformers_cache</text>
</g>
<!-- ./transformers_cache&#45;&gt;picard&#45;api -->
<g id="edge5" class="edge">
<title>./transformers_cache-&gt;picard-api</title>
<path fill="none" stroke="#000000" stroke-dasharray="5,2" d="M153.7486,-188.4212C154.4077,-175.5121 157.6358,-161.0686 167.3011,-151.7008 207.4446,-112.7928 239.5385,-153.5729 291.7921,-133.7008 296.5877,-131.877 301.3927,-129.4856 305.9926,-126.8443"/>
<polygon fill="#000000" stroke="#000000" points="150.2476,-188.7474 153.7144,-198.759 157.2476,-188.7707 150.2476,-188.7474"/>
<polygon fill="#000000" stroke="#000000" points="307.8822,-129.7908 314.5295,-121.5406 304.1882,-123.8449 307.8822,-129.7908"/>
<text text-anchor="middle" x="224.5376" y="-155.9008" font-family="Times,serif" font-size="14.00" fill="#000000">/transformers_cache</text>
</g>
<!-- ./configs -->
<g id="node7" class="node">
<title>./configs</title>
<polygon fill="none" stroke="#000000" points="323.8943,-234.8512 320.8943,-238.8512 299.8943,-238.8512 296.8943,-234.8512 259.6899,-234.8512 259.6899,-198.8512 323.8943,-198.8512 323.8943,-234.8512"/>
<text text-anchor="middle" x="291.7921" y="-212.6512" font-family="Times,serif" font-size="14.00" fill="#000000">./configs</text>
</g>
<!-- ./configs&#45;&gt;picard&#45;api -->
<g id="edge6" class="edge">
<title>./configs-&gt;picard-api</title>
<path fill="none" stroke="#000000" stroke-dasharray="5,2" d="M285.1317,-188.4929C283.6838,-176.7049 283.791,-163.1347 288.5859,-151.7008 292.2254,-143.022 298.2667,-135.1157 304.8924,-128.3253"/>
<polygon fill="#000000" stroke="#000000" points="281.7345,-189.4045 286.8088,-198.7051 288.642,-188.2701 281.7345,-189.4045"/>
<polygon fill="#000000" stroke="#000000" points="307.3506,-130.818 312.2253,-121.4113 302.5484,-125.7249 307.3506,-130.818"/>
<text text-anchor="middle" x="323.3952" y="-155.9008" font-family="Times,serif" font-size="14.00" fill="#000000">/app/configs</text>
</g>
<!-- ./src -->
<g id="node8" class="node">
<title>./src</title>
<polygon fill="none" stroke="#000000" points="402.7921,-234.8512 399.7921,-238.8512 378.7921,-238.8512 375.7921,-234.8512 348.7921,-234.8512 348.7921,-198.8512 402.7921,-198.8512 402.7921,-234.8512"/>
<text text-anchor="middle" x="375.7921" y="-212.6512" font-family="Times,serif" font-size="14.00" fill="#000000">./src</text>
</g>
<!-- ./src&#45;&gt;picard&#45;api -->
<g id="edge7" class="edge">
<title>./src-&gt;picard-api</title>
<path fill="none" stroke="#000000" stroke-dasharray="5,2" d="M371.3427,-188.7613C369.0916,-177.1131 365.9416,-163.5743 361.7921,-151.7008 359.3825,-144.8059 356.2156,-137.6278 352.9759,-130.978"/>
<polygon fill="#000000" stroke="#000000" points="367.9386,-189.6063 373.1602,-198.8251 374.8272,-188.3622 367.9386,-189.6063"/>
<polygon fill="#000000" stroke="#000000" points="355.9126,-129.0318 348.2569,-121.7079 349.6744,-132.2075 355.9126,-129.0318"/>
<text text-anchor="middle" x="388.9499" y="-155.9008" font-family="Times,serif" font-size="14.00" fill="#000000">/app/src</text>
</g>
<!-- 8000 -->
<g id="node9" class="node">
<title>8000</title>
<ellipse fill="none" stroke="#000000" cx="450.7921" cy="-216.8512" rx="30.2015" ry="30.2015"/>
<text text-anchor="middle" x="450.7921" y="-212.6512" font-family="Times,serif" font-size="14.00" fill="#000000">8000</text>
</g>
<!-- 8000&#45;&gt;picard&#45;api -->
<g id="edge8" class="edge">
<title>8000-&gt;picard-api</title>
<path fill="none" stroke="#000000" d="M439.0343,-188.5081C433.0152,-176.2482 424.8252,-162.3109 414.7921,-151.7008 405.7209,-142.1079 394.3577,-133.6221 383.1685,-126.5441"/>
<polygon fill="#000000" stroke="#000000" points="384.6488,-123.3493 374.2794,-121.1752 381.0297,-129.3412 384.6488,-123.3493"/>
</g>
<!-- 3306 -->
<g id="node10" class="node">
<title>3306</title>
<ellipse fill="none" stroke="#000000" cx="252.7921" cy="-103.3504" rx="30.2015" ry="30.2015"/>
<text text-anchor="middle" x="252.7921" y="-99.1504" font-family="Times,serif" font-size="14.00" fill="#000000">3306</text>
</g>
<!-- 3306&#45;&gt;db&#45;engine -->
<g id="edge9" class="edge">
<title>3306-&gt;db-engine</title>
<path fill="none" stroke="#000000" d="M257.0566,-73.0187C258.2827,-64.2983 259.6145,-54.8255 260.8221,-46.2371"/>
<polygon fill="#000000" stroke="#000000" points="264.2913,-46.6997 262.2178,-36.3098 257.3595,-45.7251 264.2913,-46.6997"/>
</g>
</g>
</svg>