<svg width="2483" height="1304" xmlns="http://www.w3.org/2000/svg" xmlns:xlink="http://www.w3.org/1999/xlink" xml:space="preserve" overflow="hidden"><defs><clipPath id="clip0"><rect x="1436" y="97" width="2483" height="1304"/></clipPath><clipPath id="clip1"><rect x="1437" y="97" width="2479" height="1302"/></clipPath><clipPath id="clip2"><rect x="1557" y="148" width="2312" height="992"/></clipPath><clipPath id="clip3"><rect x="1557" y="148" width="2312" height="992"/></clipPath><clipPath id="clip4"><rect x="1557" y="148" width="2312" height="992"/></clipPath><clipPath id="clip5"><rect x="1557" y="148" width="2312" height="992"/></clipPath><clipPath id="clip6"><rect x="1557" y="148" width="2312" height="992"/></clipPath><clipPath id="clip7"><rect x="1437" y="97" width="2479" height="1302"/></clipPath><clipPath id="clip8"><rect x="1437" y="97" width="2479" height="1302"/></clipPath><clipPath id="clip9"><rect x="1437" y="97" width="2479" height="1302"/></clipPath><clipPath id="clip10"><rect x="1437" y="97" width="2479" height="1302"/></clipPath><clipPath id="clip11"><rect x="1437" y="97" width="2479" height="1302"/></clipPath><clipPath id="clip12"><rect x="1437" y="97" width="2479" height="1302"/></clipPath><clipPath id="clip13"><rect x="1437" y="97" width="2479" height="1302"/></clipPath><clipPath id="clip14"><rect x="1437" y="97" width="2479" height="1302"/></clipPath><clipPath id="clip15"><rect x="1437" y="97" width="2479" height="1302"/></clipPath><clipPath id="clip16"><rect x="1437" y="97" width="2479" height="1302"/></clipPath><clipPath id="clip17"><rect x="1437" y="97" width="2479" height="1302"/></clipPath><clipPath id="clip18"><rect x="1437" y="97" width="2479" height="1302"/></clipPath><clipPath id="clip19"><rect x="1437" y="97" width="2479" height="1302"/></clipPath><clipPath id="clip20"><rect x="1437" y="97" width="2479" height="1302"/></clipPath><clipPath id="clip21"><rect x="1437" y="97" width="2479" height="1302"/></clipPath><clipPath id="clip22"><rect x="1437" y="97" width="2479" height="1302"/></clipPath><clipPath id="clip23"><rect x="1437" y="97" width="2479" height="1302"/></clipPath><clipPath id="clip24"><rect x="1437" y="97" width="2479" height="1302"/></clipPath><clipPath id="clip25"><rect x="1437" y="97" width="2479" height="1302"/></clipPath><clipPath id="clip26"><rect x="1437" y="97" width="2479" height="1302"/></clipPath><clipPath id="clip27"><rect x="1437" y="97" width="2479" height="1302"/></clipPath><clipPath id="clip28"><rect x="1437" y="97" width="2479" height="1302"/></clipPath><clipPath id="clip29"><rect x="1437" y="97" width="2479" height="1302"/></clipPath><clipPath id="clip30"><rect x="1437" y="97" width="2479" height="1302"/></clipPath><clipPath id="clip31"><rect x="1437" y="97" width="2479" height="1302"/></clipPath><clipPath id="clip32"><rect x="1437" y="97" width="2479" height="1302"/></clipPath><clipPath id="clip33"><rect x="1437" y="97" width="2479" height="1302"/></clipPath><clipPath id="clip34"><rect x="1437" y="97" width="2479" height="1302"/></clipPath></defs><g clip-path="url(#clip0)" transform="translate(-1436 -97)"><rect x="1437" y="98" width="2480" height="1301" fill="#FFFFFF"/><g clip-path="url(#clip1)"><path d="M1557.5 972.532 3866.5 972.532M1557.5 807.527 3866.5 807.527M1557.5 642.521 3866.5 642.521M1557.5 478.516 3866.5 478.516M1557.5 313.51 3866.5 313.51M1557.5 148.5 3866.5 148.5" stroke="#D9D9D9" stroke-width="3.4375" stroke-linejoin="round" stroke-miterlimit="10" fill="none"/></g><g clip-path="url(#clip2)"><path d="M1591.05 553.018 1622.05 553.018 1622.05 1138 1591.05 1138ZM1848.06 553.018 1879.06 553.018 1879.06 1138 1848.06 1138ZM2104.07 554.018 2135.07 554.018 2135.07 1138 2104.07 1138ZM2361.08 519.017 2392.08 519.017 2392.08 1138 2361.08 1138ZM2617.09 784.026 2648.09 784.026 2648.09 1138 2617.09 1138ZM3387.11 324.011 3418.11 324.011 3418.11 1138 3387.11 1138ZM3644.12 459.015 3675.12 459.015 3675.12 1138 3644.12 1138Z" fill="#4472C4"/></g><g clip-path="url(#clip3)"><path d="M1631.05 655.021 1662.05 655.021 1662.05 1138 1631.05 1138ZM1887.06 651.021 1918.06 651.021 1918.06 1138 1887.06 1138ZM2144.07 709.023 2175.07 709.023 2175.07 1138 2144.07 1138ZM2400.08 704.023 2431.08 704.023 2431.08 1138 2400.08 1138ZM2657.09 516.017 2688.09 516.017 2688.09 1138 2657.09 1138ZM2913.1 539.018 2944.1 539.018 2944.1 1138 2913.1 1138ZM3170.1 1020.03 3201.1 1020.03 3201.1 1138 3170.1 1138ZM3426.11 316.01 3457.11 316.01 3457.11 1138 3426.11 1138ZM3683.12 540.018 3714.12 540.018 3714.12 1138 3683.12 1138Z" fill="#ED7D31"/></g><g clip-path="url(#clip4)"><path d="M1670.05 816.027 1701.06 816.027 1701.06 1138 1670.05 1138ZM1927.06 816.027 1958.06 816.027 1958.06 1138 1927.06 1138ZM2183.07 973.032 2214.07 973.032 2214.07 1138 2183.07 1138ZM2440.08 973.032 2471.08 973.032 2471.08 1138 2440.08 1138ZM2696.09 384.013 2727.09 384.013 2727.09 1138 2696.09 1138ZM2953.1 384.013 2984.1 384.013 2984.1 1138 2953.1 1138ZM3209.11 690.023 3240.11 690.023 3240.11 1138 3209.11 1138ZM3466.11 313.01 3497.11 313.01 3497.11 1138 3466.11 1138ZM3722.12 603.02 3753.12 603.02 3753.12 1138 3722.12 1138Z" fill="#A5A5A5"/></g><g clip-path="url(#clip5)"><path d="M1709.06 775.025 1741.06 775.025 1741.06 1138 1709.06 1138ZM1966.06 765.025 1997.07 765.025 1997.07 1138 1966.06 1138ZM2223.07 912.03 2254.07 912.03 2254.07 1138 2223.07 1138ZM2479.08 870.029 2510.08 870.029 2510.08 1138 2479.08 1138ZM2736.09 902.03 2767.09 902.03 2767.09 1138 2736.09 1138ZM2992.1 961.032 3023.1 961.032 3023.1 1138 2992.1 1138ZM3249.11 882.029 3280.11 882.029 3280.11 1138 3249.11 1138ZM3505.11 327.011 3536.12 327.011 3536.12 1138 3505.11 1138ZM3762.12 794.026 3793.12 794.026 3793.12 1138 3762.12 1138Z" fill="#FFC000"/></g><g clip-path="url(#clip6)"><path d="M1749.06 636.021 1780.06 636.021 1780.06 1138 1749.06 1138ZM2005.07 634.021 2036.07 634.021 2036.07 1138 2005.07 1138ZM2262.07 706.023 2293.08 706.023 2293.08 1138 2262.07 1138ZM2518.08 686.023 2549.08 686.023 2549.08 1138 2518.08 1138ZM2775.09 568.019 2806.09 568.019 2806.09 1138 2775.09 1138ZM3032.1 603.02 3063.1 603.02 3063.1 1138 3032.1 1138ZM3288.11 855.028 3319.11 855.028 3319.11 1138 3288.11 1138ZM3545.12 320.01 3576.12 320.01 3576.12 1138 3545.12 1138ZM3801.12 557.018 3832.13 557.018 3832.13 1138 3801.12 1138Z" fill="#5B9BD5"/></g><g clip-path="url(#clip7)"><path d="M1557.5 1137.5 3866.5 1137.5" stroke="#D9D9D9" stroke-width="3.4375" stroke-linejoin="round" stroke-miterlimit="10" fill="none" fill-rule="evenodd"/></g><g clip-path="url(#clip8)"><text fill="#595959" font-family="Calibri,Calibri_MSFontService,sans-serif" font-weight="400" font-size="41" transform="matrix(1 0 0 1 1498.24 1149)">0</text></g><g clip-path="url(#clip9)"><text fill="#595959" font-family="Calibri,Calibri_MSFontService,sans-serif" font-weight="400" font-size="41" transform="matrix(1 0 0 1 1466.93 984)">0.2</text></g><g clip-path="url(#clip10)"><text fill="#595959" font-family="Calibri,Calibri_MSFontService,sans-serif" font-weight="400" font-size="41" transform="matrix(1 0 0 1 1466.93 819)">0.4</text></g><g clip-path="url(#clip11)"><text fill="#595959" font-family="Calibri,Calibri_MSFontService,sans-serif" font-weight="400" font-size="41" transform="matrix(1 0 0 1 1466.93 655)">0.6</text></g><g clip-path="url(#clip12)"><text fill="#595959" font-family="Calibri,Calibri_MSFontService,sans-serif" font-weight="400" font-size="41" transform="matrix(1 0 0 1 1466.93 490)">0.8</text></g><g clip-path="url(#clip13)"><text fill="#595959" font-family="Calibri,Calibri_MSFontService,sans-serif" font-weight="400" font-size="41" transform="matrix(1 0 0 1 1498.24 325)">1</text></g><g clip-path="url(#clip14)"><text fill="#595959" font-family="Calibri,Calibri_MSFontService,sans-serif" font-weight="400" font-size="41" transform="matrix(1 0 0 1 1466.93 160)">1.2</text></g><g clip-path="url(#clip15)"><text fill="#595959" font-family="Calibri,Calibri_MSFontService,sans-serif" font-weight="400" font-size="41" transform="matrix(1 0 0 1 1636.71 1203)">select</text></g><g clip-path="url(#clip16)"><text fill="#595959" font-family="Calibri,Calibri_MSFontService,sans-serif" font-weight="400" font-size="41" transform="matrix(1 0 0 1 1816.38 1203)">select(no AGG)</text></g><g clip-path="url(#clip17)"><text fill="#595959" font-family="Calibri,Calibri_MSFontService,sans-serif" font-weight="400" font-size="41" transform="matrix(1 0 0 1 2145.42 1203)">where</text></g><g clip-path="url(#clip18)"><text fill="#595959" font-family="Calibri,Calibri_MSFontService,sans-serif" font-weight="400" font-size="41" transform="matrix(1 0 0 1 2338.76 1203)">where(no OP)</text></g><g clip-path="url(#clip19)"><text fill="#595959" font-family="Calibri,Calibri_MSFontService,sans-serif" font-weight="400" font-size="41" transform="matrix(1 0 0 1 2634.39 1203)">group(no</text></g><g clip-path="url(#clip20)"><text fill="#595959" font-family="Calibri,Calibri_MSFontService,sans-serif" font-weight="400" font-size="41" transform="matrix(1 0 0 1 2648.24 1253)">Having)</text></g><g clip-path="url(#clip21)"><text fill="#595959" font-family="Calibri,Calibri_MSFontService,sans-serif" font-weight="400" font-size="41" transform="matrix(1 0 0 1 2918.89 1203)">group</text></g><g clip-path="url(#clip22)"><text fill="#595959" font-family="Calibri,Calibri_MSFontService,sans-serif" font-weight="400" font-size="41" transform="matrix(1 0 0 1 3178.51 1203)">order</text></g><g clip-path="url(#clip23)"><text fill="#595959" font-family="Calibri,Calibri_MSFontService,sans-serif" font-weight="400" font-size="41" transform="matrix(1 0 0 1 3423.83 1203)">and/or</text></g><g clip-path="url(#clip24)"><text fill="#595959" font-family="Calibri,Calibri_MSFontService,sans-serif" font-weight="400" font-size="41" transform="matrix(1 0 0 1 3657.25 1203)">keywords</text></g><g clip-path="url(#clip25)"><rect x="2327" y="1322" width="23" height="22" fill="#4472C4"/></g><g clip-path="url(#clip26)"><text fill="#595959" font-family="Calibri,Calibri_MSFontService,sans-serif" font-weight="400" font-size="41" transform="matrix(1 0 0 1 2359.27 1344)">easy</text></g><g clip-path="url(#clip27)"><rect x="2469" y="1322" width="22.9998" height="22" fill="#ED7D31"/></g><g clip-path="url(#clip28)"><text fill="#595959" font-family="Calibri,Calibri_MSFontService,sans-serif" font-weight="400" font-size="41" transform="matrix(1 0 0 1 2501.14 1344)">medium</text></g><g clip-path="url(#clip29)"><rect x="2675" y="1322" width="23" height="22" fill="#A5A5A5"/></g><g clip-path="url(#clip30)"><text fill="#595959" font-family="Calibri,Calibri_MSFontService,sans-serif" font-weight="400" font-size="41" transform="matrix(1 0 0 1 2707.16 1344)">hard</text></g><g clip-path="url(#clip31)"><rect x="2819" y="1322" width="23" height="22" fill="#FFC000"/></g><g clip-path="url(#clip32)"><text fill="#595959" font-family="Calibri,Calibri_MSFontService,sans-serif" font-weight="400" font-size="41" transform="matrix(1 0 0 1 2851.43 1344)">extra</text></g><g clip-path="url(#clip33)"><rect x="2972" y="1322" width="23" height="22" fill="#5B9BD5"/></g><g clip-path="url(#clip34)"><text fill="#595959" font-family="Calibri,Calibri_MSFontService,sans-serif" font-weight="400" font-size="41" transform="matrix(1 0 0 1 3004.56 1344)">all</text></g><rect x="1437.5" y="98.5002" width="2480" height="1301" stroke="#D9D9D9" stroke-width="3.4375" stroke-linejoin="round" stroke-miterlimit="10" fill="none"/></g></svg>