<?xml version="1.0" encoding="UTF-8" standalone="yes"?><!DOCTYPE svg PUBLIC "-//W3C//DTD SVG 1.1//EN" "http://www.w3.org/Graphics/SVG/1.1/DTD/svg11.dtd"><svg xmlns="http://www.w3.org/2000/svg" xmlns:xlink="http://www.w3.org/1999/xlink" xmlns:svgjs="http://svgjs.com/svgjs" id="DotUML" width="1497pt" height="552pt" version="1.1"><defs id="SvgjsDefs1312"/><style id="SvgjsStyle1313">text{white-space: pre;}</style><desc id="SvgjsDesc1314">graph%20G%20%7B%0A%09node%20%5Bshape%3Drecord%5D%3B%0A%09TextToSQL%20%5Bshape%3Dsquare%5D%3B%0A%09TextToSQL%20--%20Datasets%3B%0A%09TextToSQL%20--%20Methodologies%3B%0A%09TextToSQL%20--%20%22Evaluation%20Metrics%22%3B%0A%0A%09db%20%5Blabel%20%3D%20%22%7BATIS%7CGeoQuery%7CIMDB%7CYelp%7CAdvising%7CMAS%7CSEDE%7CSEOSS%7D%22%5D%3B%0A%09Datasets%20--%20%22Single%20Domain%22%20--%20db%3B%0A%0A%09ds%20%5Blabel%20%3D%20%22%7BWikiSQL%7CSPIDER%7CConversational%5CnDatasets%5Cn(CSpider%2C%20CoSQL%2C...)%7D%22%5D%3B%0A%09Datasets%20--%20%22Large%20Scale%20%5CnCross-Domain%22%20%20--%20ds%3B%0A%0A%09Methodologies%20--%20Encoding%3B%0A%09Methodologies%20--%20Decoding%3B%0A%09Encoding%20--%20%22Encode%20Token%20Type%22%20--%20TypeSQL%3B%0A%09Encoding%20--%20%22Self-attention%22%20--%20RatSQL%3B%0A%09Encoding%20--%20%22Pre-training%22%20--%20TaBERT%3B%0A%0A%09Decoding%20--%20%22Copy%5CnMechanism%22%20--%20Seq2SQL%3B%0A%09Decoding%20--%20%22Tree-based%22%20--%20SyntaxSQLNet%3B%0A%09Decoding%20--%20%22Sketch-based%22%20--%20SQLNet%2C%20IRNet%3B%0A%09Decoding%20--%20%22Intermediate%5CnRepresentation%22%20--%20IRNet%3B%0A%09Decoding%20--%20%22Constrainedn%5Cndecoding%22%20--%20PICARD%3B%0A%0A%09ds1%20%5Blabel%20%3D%20%22%7BWikiSQL%7CAdvising%7D%22%5D%3B%0A%09%22Evaluation%20Metrics%22%20--%20%22Exact%20String%20Match%22%20--%20ds1%3B%0A%09%22Evaluation%20Metrics%22%20--%20%22Exact%20Set%20Match%22%20--%20Spider%3B%0A%09ds2%20%5Blabel%20%3D%20%22%7BGeoQuery%7CIMDB%7CYelp%7CWikiSQL%7D%22%5D%3B%0A%09%22Evaluation%20Metrics%22%20--%20%22Execution%20Accuracy%22%20--%20ds2%3B%0A%7D</desc><svg xmlns="http://www.w3.org/2000/svg" xmlns:xlink="http://www.w3.org/1999/xlink" width="1497pt" height="552pt" viewBox="0.00 0.00 1497.13 551.65"><g id="graph0" class="graph" transform="scale(1 1) rotate(0) translate(4 547.6522)"><polygon fill="#ffffff" stroke="transparent" points="-4,4 -4,-547.6522 1493.1347,-547.6522 1493.1347,4 -4,4"/><g id="node1" class=""><polygon fill="none" stroke="#000000" points="642.8433,-543.479 559.5375,-543.479 559.5375,-460.1732 642.8433,-460.1732 642.8433,-543.479"/><text text-anchor="middle" x="601.1904" y="-497.6261" font-family="Times,serif" font-size="14.00" fill="#000000" svgjs:data="{&quot;leading&quot;:&quot;1.3&quot;}">TextToSQL</text></g><g id="node2" class=""><polygon fill="none" stroke="#000000" points="138.48,-387.5 138.48,-423.5 201.9008,-423.5 201.9008,-387.5 138.48,-387.5"/><text text-anchor="middle" x="170.1904" y="-401.3" font-family="Times,serif" font-size="14.00" fill="#000000" svgjs:data="{&quot;leading&quot;:&quot;1.3&quot;}">Datasets</text></g><g id="edge1" class=""><path fill="none" stroke="#000000" d="M559.4727,-492.5024C473.596,-473.3095 278.6983,-429.7509 202.0254,-412.6149"/></g><g id="node3" class=""><polygon fill="none" stroke="#000000" points="551.1953,-387.5 551.1953,-423.5 651.1855,-423.5 651.1855,-387.5 551.1953,-387.5"/><text text-anchor="middle" x="601.1904" y="-401.3" font-family="Times,serif" font-size="14.00" fill="#000000" svgjs:data="{&quot;leading&quot;:&quot;1.3&quot;}">Methodologies</text></g><g id="edge2" class=""><path fill="none" stroke="#000000" d="M601.1904,-460.1363C601.1904,-447.3231 601.1904,-433.8873 601.1904,-423.5458"/></g><g id="node4" class=""><polygon fill="none" stroke="#000000" points="1157.7335,-387.5 1157.7335,-423.5 1280.6473,-423.5 1280.6473,-387.5 1157.7335,-387.5"/><text text-anchor="middle" x="1219.1904" y="-401.3" font-family="Times,serif" font-size="14.00" fill="#000000" svgjs:data="{&quot;leading&quot;:&quot;1.3&quot;}">Evaluation Metrics</text></g><g id="edge3" class=""><path fill="none" stroke="#000000" d="M643.1822,-495.2809C749.9487,-478.6395 1032.1823,-434.6485 1157.6092,-415.0985"/></g><g id="node6" class=""><polygon fill="none" stroke="#000000" points="0,-311.7 0,-347.7 100.3808,-347.7 100.3808,-311.7 0,-311.7"/><text text-anchor="middle" x="50.1904" y="-325.5" font-family="Times,serif" font-size="14.00" fill="#000000" svgjs:data="{&quot;leading&quot;:&quot;1.3&quot;}">Single Domain</text></g><g id="edge4" class=""><path fill="none" stroke="#000000" d="M141.4474,-387.344C122.4489,-375.3433 97.6494,-359.6783 78.6989,-347.7078"/></g><g id="node8" class=""><polygon fill="none" stroke="#000000" points="121.3657,-308.9 121.3657,-350.5 219.0151,-350.5 219.0151,-308.9 121.3657,-308.9"/><text text-anchor="middle" x="170.1904" y="-333.9" font-family="Times,serif" font-size="14.00" fill="#000000" svgjs:data="{&quot;leading&quot;:&quot;1.3&quot;}">Large Scale </text><text text-anchor="middle" x="170.1904" y="-317.1" font-family="Times,serif" font-size="14.00" fill="#000000" svgjs:data="{&quot;leading&quot;:&quot;1.3&quot;}">Cross-Domain</text></g><g id="edge6" class=""><path fill="none" stroke="#000000" d="M170.1904,-387.1509C170.1904,-376.1096 170.1904,-362.0197 170.1904,-350.5568"/></g><g id="node9" class=""><polygon fill="none" stroke="#000000" points="467.3615,-311.7 467.3615,-347.7 537.0193,-347.7 537.0193,-311.7 467.3615,-311.7"/><text text-anchor="middle" x="502.1904" y="-325.5" font-family="Times,serif" font-size="14.00" fill="#000000" svgjs:data="{&quot;leading&quot;:&quot;1.3&quot;}">Encoding</text></g><g id="edge8" class=""><path fill="none" stroke="#000000" d="M577.4774,-387.344C561.8036,-375.3433 541.3441,-359.6783 525.7099,-347.7078"/></g><g id="node10" class=""><polygon fill="none" stroke="#000000" points="768.9772,-311.7 768.9772,-347.7 839.4036,-347.7 839.4036,-311.7 768.9772,-311.7"/><text text-anchor="middle" x="804.1904" y="-325.5" font-family="Times,serif" font-size="14.00" fill="#000000" svgjs:data="{&quot;leading&quot;:&quot;1.3&quot;}">Decoding</text></g><g id="edge9" class=""><path fill="none" stroke="#000000" d="M649.5561,-387.4403C686.2622,-373.7343 735.8796,-355.2072 768.9043,-342.8758"/></g><g id="node28" class=""><polygon fill="none" stroke="#000000" points="1089.7598,-311.7 1089.7598,-347.7 1214.621,-347.7 1214.621,-311.7 1089.7598,-311.7"/><text text-anchor="middle" x="1152.1904" y="-325.5" font-family="Times,serif" font-size="14.00" fill="#000000" svgjs:data="{&quot;leading&quot;:&quot;1.3&quot;}">Exact String Match</text></g><g id="edge27" class=""><path fill="none" stroke="#000000" d="M1202.9716,-387.1509C1192.4375,-375.2333 1178.7641,-359.764 1168.2599,-347.8801"/></g><g id="node29" class=""><polygon fill="none" stroke="#000000" points="1232.9281,-311.7 1232.9281,-347.7 1341.4527,-347.7 1341.4527,-311.7 1232.9281,-311.7"/><text text-anchor="middle" x="1287.1904" y="-325.5" font-family="Times,serif" font-size="14.00" fill="#000000" svgjs:data="{&quot;leading&quot;:&quot;1.3&quot;}">Exact Set Match</text></g><g id="edge29" class=""><path fill="none" stroke="#000000" d="M1235.6513,-387.1509C1246.3426,-375.2333 1260.2201,-359.764 1270.8811,-347.8801"/></g><g id="node32" class=""><polygon fill="none" stroke="#000000" points="1359.2461,-311.7 1359.2461,-347.7 1489.1347,-347.7 1489.1347,-311.7 1359.2461,-311.7"/><text text-anchor="middle" x="1424.1904" y="-325.5" font-family="Times,serif" font-size="14.00" fill="#000000" svgjs:data="{&quot;leading&quot;:&quot;1.3&quot;}">Execution Accuracy</text></g><g id="edge31" class=""><path fill="none" stroke="#000000" d="M1268.0326,-387.4403C1300.4816,-375.4421 1342.9224,-359.7493 1375.3676,-347.7525"/></g><g id="node5" class=""><polygon fill="none" stroke="#000000" points="10.0389,-73.5 10.0389,-271.9 84.3419,-271.9 84.3419,-73.5 10.0389,-73.5"/><text text-anchor="middle" x="47.1904" y="-255.3" font-family="Times,serif" font-size="14.00" fill="#000000" svgjs:data="{&quot;leading&quot;:&quot;1.3&quot;}">ATIS</text><polyline fill="none" stroke="#000000" points="10.0389,-247.1 84.3419,-247.1 "/><text text-anchor="middle" x="47.1904" y="-230.5" font-family="Times,serif" font-size="14.00" fill="#000000" svgjs:data="{&quot;leading&quot;:&quot;1.3&quot;}">GeoQuery</text><polyline fill="none" stroke="#000000" points="10.0389,-222.3 84.3419,-222.3 "/><text text-anchor="middle" x="47.1904" y="-205.7" font-family="Times,serif" font-size="14.00" fill="#000000" svgjs:data="{&quot;leading&quot;:&quot;1.3&quot;}">IMDB</text><polyline fill="none" stroke="#000000" points="10.0389,-197.5 84.3419,-197.5 "/><text text-anchor="middle" x="47.1904" y="-180.9" font-family="Times,serif" font-size="14.00" fill="#000000" svgjs:data="{&quot;leading&quot;:&quot;1.3&quot;}">Yelp</text><polyline fill="none" stroke="#000000" points="10.0389,-172.7 84.3419,-172.7 "/><text text-anchor="middle" x="47.1904" y="-156.1" font-family="Times,serif" font-size="14.00" fill="#000000" svgjs:data="{&quot;leading&quot;:&quot;1.3&quot;}">Advising</text><polyline fill="none" stroke="#000000" points="10.0389,-147.9 84.3419,-147.9 "/><text text-anchor="middle" x="47.1904" y="-131.3" font-family="Times,serif" font-size="14.00" fill="#000000" svgjs:data="{&quot;leading&quot;:&quot;1.3&quot;}">MAS</text><polyline fill="none" stroke="#000000" points="10.0389,-123.1 84.3419,-123.1 "/><text text-anchor="middle" x="47.1904" y="-106.5" font-family="Times,serif" font-size="14.00" fill="#000000" svgjs:data="{&quot;leading&quot;:&quot;1.3&quot;}">SEDE</text><polyline fill="none" stroke="#000000" points="10.0389,-98.3 84.3419,-98.3 "/><text text-anchor="middle" x="47.1904" y="-81.7" font-family="Times,serif" font-size="14.00" fill="#000000" svgjs:data="{&quot;leading&quot;:&quot;1.3&quot;}">SEOSS</text></g><g id="edge5" class=""><path fill="none" stroke="#000000" d="M49.8463,-311.6901C49.6477,-301.2999 49.3806,-287.3222 49.0921,-272.2244"/></g><g id="node7" class=""><polygon fill="none" stroke="#000000" points="102.6981,-118.7 102.6981,-226.7 237.6827,-226.7 237.6827,-118.7 102.6981,-118.7"/><text text-anchor="middle" x="170.1904" y="-210.1" font-family="Times,serif" font-size="14.00" fill="#000000" svgjs:data="{&quot;leading&quot;:&quot;1.3&quot;}">WikiSQL</text><polyline fill="none" stroke="#000000" points="102.6981,-201.9 237.6827,-201.9 "/><text text-anchor="middle" x="170.1904" y="-185.3" font-family="Times,serif" font-size="14.00" fill="#000000" svgjs:data="{&quot;leading&quot;:&quot;1.3&quot;}">SPIDER</text><polyline fill="none" stroke="#000000" points="102.6981,-177.1 237.6827,-177.1 "/><text text-anchor="middle" x="170.1904" y="-160.5" font-family="Times,serif" font-size="14.00" fill="#000000" svgjs:data="{&quot;leading&quot;:&quot;1.3&quot;}">Conversational</text><text text-anchor="middle" x="170.1904" y="-143.7" font-family="Times,serif" font-size="14.00" fill="#000000" svgjs:data="{&quot;leading&quot;:&quot;1.3&quot;}">Datasets</text><text text-anchor="middle" x="170.1904" y="-126.9" font-family="Times,serif" font-size="14.00" fill="#000000" svgjs:data="{&quot;leading&quot;:&quot;1.3&quot;}">(CSpider, CoSQL,...)</text></g><g id="edge7" class=""><path fill="none" stroke="#000000" d="M170.1904,-308.8516C170.1904,-287.9985 170.1904,-255.0487 170.1904,-226.7872"/></g><g id="node11" class=""><polygon fill="none" stroke="#000000" points="255.4323,-154.7 255.4323,-190.7 384.9485,-190.7 384.9485,-154.7 255.4323,-154.7"/><text text-anchor="middle" x="320.1904" y="-168.5" font-family="Times,serif" font-size="14.00" fill="#000000" svgjs:data="{&quot;leading&quot;:&quot;1.3&quot;}">Encode Token Type</text></g><g id="edge10" class=""><path fill="none" stroke="#000000" d="M467.1792,-315.9166C444.7656,-305.992 415.9201,-291.0788 394.1904,-272.4 366.4013,-248.5125 342.8871,-212.385 330.2247,-190.8076"/></g><g id="node13" class=""><polygon fill="none" stroke="#000000" points="403.0901,-154.7 403.0901,-190.7 495.2907,-190.7 495.2907,-154.7 403.0901,-154.7"/><text text-anchor="middle" x="449.1904" y="-168.5" font-family="Times,serif" font-size="14.00" fill="#000000" svgjs:data="{&quot;leading&quot;:&quot;1.3&quot;}">Self-attention</text></g><g id="edge12" class=""><path fill="none" stroke="#000000" d="M496.1106,-311.6901C485.9415,-281.5664 465.5929,-221.2886 455.3625,-190.9835"/></g><g id="node15" class=""><polygon fill="none" stroke="#000000" points="513.7577,-154.7 513.7577,-190.7 596.6231,-190.7 596.6231,-154.7 513.7577,-154.7"/><text text-anchor="middle" x="555.1904" y="-168.5" font-family="Times,serif" font-size="14.00" fill="#000000" svgjs:data="{&quot;leading&quot;:&quot;1.3&quot;}">Pre-training</text></g><g id="edge14" class=""><path fill="none" stroke="#000000" d="M508.2702,-311.6901C518.4393,-281.5664 538.7879,-221.2886 549.0183,-190.9835"/></g><g id="node17" class=""><polygon fill="none" stroke="#000000" points="614.5333,-151.9 614.5333,-193.5 695.8475,-193.5 695.8475,-151.9 614.5333,-151.9"/><text text-anchor="middle" x="655.1904" y="-176.9" font-family="Times,serif" font-size="14.00" fill="#000000" svgjs:data="{&quot;leading&quot;:&quot;1.3&quot;}">Copy</text><text text-anchor="middle" x="655.1904" y="-160.1" font-family="Times,serif" font-size="14.00" fill="#000000" svgjs:data="{&quot;leading&quot;:&quot;1.3&quot;}">Mechanism</text></g><g id="edge16" class=""><path fill="none" stroke="#000000" d="M768.7145,-315.379C748.1441,-305.6753 722.8912,-291.1928 705.1904,-272.4 683.5496,-249.4241 669.1964,-215.2871 661.624,-193.5167"/></g><g id="node19" class=""><polygon fill="none" stroke="#000000" points="714.102,-154.7 714.102,-190.7 792.2788,-190.7 792.2788,-154.7 714.102,-154.7"/><text text-anchor="middle" x="753.1904" y="-168.5" font-family="Times,serif" font-size="14.00" fill="#000000" svgjs:data="{&quot;leading&quot;:&quot;1.3&quot;}">Tree-based</text></g><g id="edge18" class=""><path fill="none" stroke="#000000" d="M798.3401,-311.6901C788.5547,-281.5664 768.974,-221.2886 759.1296,-190.9835"/></g><g id="node21" class=""><polygon fill="none" stroke="#000000" points="809.872,-154.7 809.872,-190.7 900.5088,-190.7 900.5088,-154.7 809.872,-154.7"/><text text-anchor="middle" x="855.1904" y="-168.5" font-family="Times,serif" font-size="14.00" fill="#000000" svgjs:data="{&quot;leading&quot;:&quot;1.3&quot;}">Sketch-based</text></g><g id="edge20" class=""><path fill="none" stroke="#000000" d="M810.0407,-311.6901C819.8261,-281.5664 839.4068,-221.2886 849.2512,-190.9835"/></g><g id="node24" class=""><polygon fill="none" stroke="#000000" points="918.2044,-151.9 918.2044,-193.5 1018.1764,-193.5 1018.1764,-151.9 918.2044,-151.9"/><text text-anchor="middle" x="968.1904" y="-176.9" font-family="Times,serif" font-size="14.00" fill="#000000" svgjs:data="{&quot;leading&quot;:&quot;1.3&quot;}">Intermediate</text><text text-anchor="middle" x="968.1904" y="-160.1" font-family="Times,serif" font-size="14.00" fill="#000000" svgjs:data="{&quot;leading&quot;:&quot;1.3&quot;}">Representation</text></g><g id="edge23" class=""><path fill="none" stroke="#000000" d="M839.8568,-316.0161C861.7585,-306.304 889.3233,-291.5875 909.1904,-272.4 932.7719,-249.6253 950.2431,-215.4333 959.8248,-193.5963"/></g><g id="node25" class=""><polygon fill="none" stroke="#000000" points="1035.8643,-151.9 1035.8643,-193.5 1126.5165,-193.5 1126.5165,-151.9 1035.8643,-151.9"/><text text-anchor="middle" x="1081.1904" y="-176.9" font-family="Times,serif" font-size="14.00" fill="#000000" svgjs:data="{&quot;leading&quot;:&quot;1.3&quot;}">Constrainedn</text><text text-anchor="middle" x="1081.1904" y="-160.1" font-family="Times,serif" font-size="14.00" fill="#000000" svgjs:data="{&quot;leading&quot;:&quot;1.3&quot;}">decoding</text></g><g id="edge25" class=""><path fill="none" stroke="#000000" d="M839.4101,-324.1735C894.5675,-314.9465 998.0477,-295.1563 1027.1904,-272.4 1052.9455,-252.289 1068.0049,-216.3385 1075.4103,-193.5464"/></g><g id="node12" class=""><polygon fill="none" stroke="#000000" points="284.5859,-.5 284.5859,-36.5 355.7949,-36.5 355.7949,-.5 284.5859,-.5"/><text text-anchor="middle" x="320.1904" y="-14.3" font-family="Times,serif" font-size="14.00" fill="#000000" svgjs:data="{&quot;leading&quot;:&quot;1.3&quot;}">TypeSQL</text></g><g id="edge11" class=""><path fill="none" stroke="#000000" d="M320.1904,-154.4057C320.1904,-124.7285 320.1904,-66.4323 320.1904,-36.7705"/></g><g id="node14" class=""><polygon fill="none" stroke="#000000" points="418.2486,-.5 418.2486,-36.5 480.1322,-36.5 480.1322,-.5 418.2486,-.5"/><text text-anchor="middle" x="449.1904" y="-14.3" font-family="Times,serif" font-size="14.00" fill="#000000" svgjs:data="{&quot;leading&quot;:&quot;1.3&quot;}">RatSQL</text></g><g id="edge13" class=""><path fill="none" stroke="#000000" d="M449.1904,-154.4057C449.1904,-124.7285 449.1904,-66.4323 449.1904,-36.7705"/></g><g id="node16" class=""><polygon fill="none" stroke="#000000" points="521.9176,-.5 521.9176,-36.5 588.4632,-36.5 588.4632,-.5 521.9176,-.5"/><text text-anchor="middle" x="555.1904" y="-14.3" font-family="Times,serif" font-size="14.00" fill="#000000" svgjs:data="{&quot;leading&quot;:&quot;1.3&quot;}">TaBERT</text></g><g id="edge15" class=""><path fill="none" stroke="#000000" d="M555.1904,-154.4057C555.1904,-124.7285 555.1904,-66.4323 555.1904,-36.7705"/></g><g id="node18" class=""><polygon fill="none" stroke="#000000" points="614.9709,-.5 614.9709,-36.5 685.4099,-36.5 685.4099,-.5 614.9709,-.5"/><text text-anchor="middle" x="650.1904" y="-14.3" font-family="Times,serif" font-size="14.00" fill="#000000" svgjs:data="{&quot;leading&quot;:&quot;1.3&quot;}">Seq2SQL</text></g><g id="edge17" class=""><path fill="none" stroke="#000000" d="M654.5057,-151.5825C653.5214,-121.2286 651.7228,-65.7578 650.7889,-36.9565"/></g><g id="node20" class=""><polygon fill="none" stroke="#000000" points="703.4197,-.5 703.4197,-36.5 804.9611,-36.5 804.9611,-.5 703.4197,-.5"/><text text-anchor="middle" x="754.1904" y="-14.3" font-family="Times,serif" font-size="14.00" fill="#000000" svgjs:data="{&quot;leading&quot;:&quot;1.3&quot;}">SyntaxSQLNet</text></g><g id="edge19" class=""><path fill="none" stroke="#000000" d="M753.309,-154.4057C753.5015,-124.7285 753.8796,-66.4323 754.0719,-36.7705"/></g><g id="node22" class=""><polygon fill="none" stroke="#000000" points="823.8636,-.5 823.8636,-36.5 886.5172,-36.5 886.5172,-.5 823.8636,-.5"/><text text-anchor="middle" x="855.1904" y="-14.3" font-family="Times,serif" font-size="14.00" fill="#000000" svgjs:data="{&quot;leading&quot;:&quot;1.3&quot;}">SQLNet</text></g><g id="edge21" class=""><path fill="none" stroke="#000000" d="M855.1904,-154.4057C855.1904,-124.7285 855.1904,-66.4323 855.1904,-36.7705"/></g><g id="node23" class=""><polygon fill="none" stroke="#000000" points="923.1904,-.5 923.1904,-36.5 977.1904,-36.5 977.1904,-.5 923.1904,-.5"/><text text-anchor="middle" x="949.7949" y="-14.3" font-family="Times,serif" font-size="14.00" fill="#000000" svgjs:data="{&quot;leading&quot;:&quot;1.3&quot;}">IRNet</text></g><g id="edge22" class=""><path fill="none" stroke="#000000" d="M863.975,-154.5929C874.0733,-134.256 891.5383,-100.4987 909.1904,-73 917.2496,-60.4453 927.3077,-47.0466 935.4447,-36.6761"/></g><g id="edge24" class=""><path fill="none" stroke="#000000" d="M965.7253,-151.5825C962.1821,-121.2286 955.7069,-65.7578 952.3449,-36.9565"/></g><g id="node26" class=""><polygon fill="none" stroke="#000000" points="1047.5256,-.5 1047.5256,-36.5 1114.8552,-36.5 1114.8552,-.5 1047.5256,-.5"/><text text-anchor="middle" x="1081.1904" y="-14.3" font-family="Times,serif" font-size="14.00" fill="#000000" svgjs:data="{&quot;leading&quot;:&quot;1.3&quot;}">PICARD</text></g><g id="edge26" class=""><path fill="none" stroke="#000000" d="M1081.1904,-151.5825C1081.1904,-121.2286 1081.1904,-65.7578 1081.1904,-36.9565"/></g><g id="node27" class=""><polygon fill="none" stroke="#000000" points="1144.9716,-147.9 1144.9716,-197.5 1215.4092,-197.5 1215.4092,-147.9 1144.9716,-147.9"/><text text-anchor="middle" x="1180.1904" y="-180.9" font-family="Times,serif" font-size="14.00" fill="#000000" svgjs:data="{&quot;leading&quot;:&quot;1.3&quot;}">WikiSQL</text><polyline fill="none" stroke="#000000" points="1144.9716,-172.7 1215.4092,-172.7 "/><text text-anchor="middle" x="1180.1904" y="-156.1" font-family="Times,serif" font-size="14.00" fill="#000000" svgjs:data="{&quot;leading&quot;:&quot;1.3&quot;}">Advising</text></g><g id="edge28" class=""><path fill="none" stroke="#000000" d="M1155.4024,-311.6901C1160.4012,-283.6606 1170.0562,-229.5237 1175.7286,-197.7181"/></g><g id="node30" class=""><polygon fill="none" stroke="#000000" points="1260.1904,-154.7 1260.1904,-190.7 1314.1904,-190.7 1314.1904,-154.7 1260.1904,-154.7"/><text text-anchor="middle" x="1286.9646" y="-168.5" font-family="Times,serif" font-size="14.00" fill="#000000" svgjs:data="{&quot;leading&quot;:&quot;1.3&quot;}">Spider</text></g><g id="edge30" class=""><path fill="none" stroke="#000000" d="M1287.1904,-311.6901C1287.1904,-281.5664 1287.1904,-221.2886 1287.1904,-190.9835"/></g><g id="node31" class=""><polygon fill="none" stroke="#000000" points="1387.0389,-123.1 1387.0389,-222.3 1461.3419,-222.3 1461.3419,-123.1 1387.0389,-123.1"/><text text-anchor="middle" x="1424.1904" y="-205.7" font-family="Times,serif" font-size="14.00" fill="#000000" svgjs:data="{&quot;leading&quot;:&quot;1.3&quot;}">GeoQuery</text><polyline fill="none" stroke="#000000" points="1387.0389,-197.5 1461.3419,-197.5 "/><text text-anchor="middle" x="1424.1904" y="-180.9" font-family="Times,serif" font-size="14.00" fill="#000000" svgjs:data="{&quot;leading&quot;:&quot;1.3&quot;}">IMDB</text><polyline fill="none" stroke="#000000" points="1387.0389,-172.7 1461.3419,-172.7 "/><text text-anchor="middle" x="1424.1904" y="-156.1" font-family="Times,serif" font-size="14.00" fill="#000000" svgjs:data="{&quot;leading&quot;:&quot;1.3&quot;}">Yelp</text><polyline fill="none" stroke="#000000" points="1387.0389,-147.9 1461.3419,-147.9 "/><text text-anchor="middle" x="1424.1904" y="-131.3" font-family="Times,serif" font-size="14.00" fill="#000000" svgjs:data="{&quot;leading&quot;:&quot;1.3&quot;}">WikiSQL</text></g><g id="edge32" class=""><path fill="none" stroke="#000000" d="M1424.1904,-311.6901C1424.1904,-290.1042 1424.1904,-253.0345 1424.1904,-222.605"/></g></g></svg></svg>