<?xml version="1.0" encoding="UTF-8" standalone="no"?><!DOCTYPE svg PUBLIC "-//W3C//DTD SVG 1.1//EN" "http://www.w3.org/Graphics/SVG/1.1/DTD/svg11.dtd"><!-- Generated by graphviz version 2.40.1 (20161225.0304)
 --><!-- Title: G Pages: 1 --><svg xmlns="http://www.w3.org/2000/svg" xmlns:xlink="http://www.w3.org/1999/xlink" width="664pt" height="1750pt" viewBox="0.00 0.00 664.20 1750.00">
<g id="graph0" class="graph" transform="scale(1 1) rotate(0) translate(4 1746)">
<title>G</title>
<polygon fill="#ffffff" stroke="transparent" points="-4,4 -4,-1746 660.1958,-1746 660.1958,4 -4,4"/>
<!-- Encoder -->
<g id="node1" class="node">
<title>Encoder</title>
<polygon fill="none" stroke="#000000" points="3.892,-1177.5 3.892,-1213.5 66.5344,-1213.5 66.5344,-1177.5 3.892,-1177.5"/>
<text text-anchor="middle" x="35.2132" y="-1191.4" font-family="Times,serif" font-size="14.00" fill="#000000">Encoder</text>
</g>
<!-- Encode Token Type -->
<g id="node2" class="node">
<title>Encode Token Type</title>
<polygon fill="none" stroke="#000000" points="215.4264,-1595.5 215.4264,-1631.5 344.9426,-1631.5 344.9426,-1595.5 215.4264,-1595.5"/>
<text text-anchor="middle" x="280.1845" y="-1609.4" font-family="Times,serif" font-size="14.00" fill="#000000">Encode Token Type</text>
</g>
<!-- Encoder&#45;&#45;Encode Token Type -->
<g id="edge1" class="edge">
<title>Encoder--Encode Token Type</title>
<path fill="none" stroke="#000000" d="M45.8968,-1213.7297C86.2321,-1282.5547 229.0142,-1526.187 269.4446,-1595.1743"/>
</g>
<!-- Graph&#45;based -->
<g id="node4" class="node">
<title>Graph-based</title>
<polygon fill="none" stroke="#000000" points="236.4264,-1430.5 236.4264,-1466.5 323.9426,-1466.5 323.9426,-1430.5 236.4264,-1430.5"/>
<text text-anchor="middle" x="280.1845" y="-1444.4" font-family="Times,serif" font-size="14.00" fill="#000000">Graph-based</text>
</g>
<!-- Encoder&#45;&#45;Graph&#45;based -->
<g id="edge3" class="edge">
<title>Encoder--Graph-based</title>
<path fill="none" stroke="#000000" d="M52.8309,-1213.6951C98.03,-1260.3756 217.7032,-1383.971 262.7264,-1430.4697"/>
</g>
<!-- Self&#45;attention -->
<g id="node13" class="node">
<title>Self-attention</title>
<polygon fill="none" stroke="#000000" points="234.0842,-1177.5 234.0842,-1213.5 326.2848,-1213.5 326.2848,-1177.5 234.0842,-1177.5"/>
<text text-anchor="middle" x="280.1845" y="-1191.4" font-family="Times,serif" font-size="14.00" fill="#000000">Self-attention</text>
</g>
<!-- Encoder&#45;&#45;Self&#45;attention -->
<g id="edge12" class="edge">
<title>Encoder--Self-attention</title>
<path fill="none" stroke="#000000" d="M66.7374,-1195.5C109.123,-1195.5 184.8008,-1195.5 233.7201,-1195.5"/>
</g>
<!-- Adapt PLM -->
<g id="node18" class="node">
<title>Adapt PLM</title>
<polygon fill="none" stroke="#000000" points="238.9387,-1077.5 238.9387,-1113.5 321.4303,-1113.5 321.4303,-1077.5 238.9387,-1077.5"/>
<text text-anchor="middle" x="280.1845" y="-1091.4" font-family="Times,serif" font-size="14.00" fill="#000000">Adapt PLM</text>
</g>
<!-- Encoder&#45;&#45;Adapt PLM -->
<g id="edge18" class="edge">
<title>Encoder--Adapt PLM</title>
<path fill="none" stroke="#000000" d="M66.7374,-1182.6315C110.5444,-1164.7489 189.9142,-1132.3493 238.5493,-1112.4959"/>
</g>
<!-- Pre&#45;training -->
<g id="node21" class="node">
<title>Pre-training</title>
<polygon fill="none" stroke="#000000" points="238.7518,-834.5 238.7518,-870.5 321.6172,-870.5 321.6172,-834.5 238.7518,-834.5"/>
<text text-anchor="middle" x="280.1845" y="-848.4" font-family="Times,serif" font-size="14.00" fill="#000000">Pre-training</text>
</g>
<!-- Encoder&#45;&#45;Pre&#45;training -->
<g id="edge23" class="edge">
<title>Encoder--Pre-training</title>
<path fill="none" stroke="#000000" d="M42.1443,-1177.2465C62.1848,-1126.4154 124.6134,-981.0393 215.4264,-890.5 223.0884,-882.8611 232.5893,-876.181 241.9313,-870.6411"/>
</g>
<!-- TypeSQL -->
<g id="node3" class="node">
<title>TypeSQL</title>
<polygon fill="none" stroke="#000000" points="569.8206,-1705.5 569.8206,-1741.5 641.0296,-1741.5 641.0296,-1705.5 569.8206,-1705.5"/>
<text text-anchor="middle" x="605.4251" y="-1719.4" font-family="Times,serif" font-size="14.00" fill="#000000">TypeSQL</text>
</g>
<!-- Encode Token Type&#45;&#45;TypeSQL -->
<g id="edge2" class="edge">
<title>Encode Token Type--TypeSQL</title>
<path fill="none" stroke="#000000" d="M310.4274,-1631.5699C337.5049,-1647.056 378.7189,-1668.9474 416.9426,-1682.5 468.5476,-1700.7971 531.1176,-1712.4465 569.5968,-1718.4761"/>
<text text-anchor="middle" x="449.7985" y="-1703.7" font-family="Times,serif" font-size="14.00" fill="#000000">Adopted by</text>
</g>
<!-- GNN -->
<g id="node5" class="node">
<title>GNN</title>
<polygon fill="none" stroke="#000000" points="578.4251,-1485.5 578.4251,-1521.5 632.4251,-1521.5 632.4251,-1485.5 578.4251,-1485.5"/>
<text text-anchor="middle" x="605.4251" y="-1499.4" font-family="Times,serif" font-size="14.00" fill="#000000">GNN</text>
</g>
<!-- Graph&#45;based&#45;&#45;GNN -->
<g id="edge4" class="edge">
<title>Graph-based--GNN</title>
<path fill="none" stroke="#000000" d="M324.0479,-1455.9175C392.3644,-1467.4702 522.163,-1489.4199 578.3634,-1498.9237"/>
</g>
<!-- Global&#45;GCN -->
<g id="node6" class="node">
<title>Global-GCN</title>
<polygon fill="none" stroke="#000000" points="561.2687,-1430.5 561.2687,-1466.5 649.5815,-1466.5 649.5815,-1430.5 561.2687,-1430.5"/>
<text text-anchor="middle" x="605.4251" y="-1444.4" font-family="Times,serif" font-size="14.00" fill="#000000">Global-GCN</text>
</g>
<!-- Graph&#45;based&#45;&#45;Global&#45;GCN -->
<g id="edge5" class="edge">
<title>Graph-based--Global-GCN</title>
<path fill="none" stroke="#000000" d="M324.0479,-1448.5C386.1223,-1448.5 498.9568,-1448.5 561.2179,-1448.5"/>
</g>
<!-- IGSQL -->
<g id="node7" class="node">
<title>IGSQL</title>
<polygon fill="none" stroke="#000000" points="576.8206,-1375.5 576.8206,-1411.5 634.0296,-1411.5 634.0296,-1375.5 576.8206,-1375.5"/>
<text text-anchor="middle" x="605.4251" y="-1389.4" font-family="Times,serif" font-size="14.00" fill="#000000">IGSQL</text>
</g>
<!-- Graph&#45;based&#45;&#45;IGSQL -->
<g id="edge6" class="edge">
<title>Graph-based--IGSQL</title>
<path fill="none" stroke="#000000" d="M324.0479,-1441.0825C391.6708,-1429.647 519.5338,-1408.0247 576.6291,-1398.3696"/>
</g>
<!-- RAT&#45;SQL -->
<g id="node8" class="node">
<title>RAT-SQL</title>
<polygon fill="none" stroke="#000000" points="567.876,-1265.5 567.876,-1301.5 642.9742,-1301.5 642.9742,-1265.5 567.876,-1265.5"/>
<text text-anchor="middle" x="605.4251" y="-1279.4" font-family="Times,serif" font-size="14.00" fill="#000000">RAT-SQL</text>
</g>
<!-- Graph&#45;based&#45;&#45;RAT&#45;SQL -->
<g id="edge7" class="edge">
<title>Graph-based--RAT-SQL</title>
<path fill="none" stroke="#000000" d="M313.17,-1430.4612C340.7607,-1415.4769 381.2298,-1393.7399 416.9426,-1375.5 468.8274,-1349.0004 529.4822,-1319.6878 567.677,-1301.4299"/>
</g>
<!-- LEGSQL -->
<g id="node9" class="node">
<title>LEGSQL</title>
<polygon fill="none" stroke="#000000" points="570.5983,-1320.5 570.5983,-1356.5 640.2519,-1356.5 640.2519,-1320.5 570.5983,-1320.5"/>
<text text-anchor="middle" x="605.4251" y="-1334.4" font-family="Times,serif" font-size="14.00" fill="#000000">LEGSQL</text>
</g>
<!-- Graph&#45;based&#45;&#45;LEGSQL -->
<g id="edge8" class="edge">
<title>Graph-based--LEGSQL</title>
<path fill="none" stroke="#000000" d="M324.0479,-1433.6649C389.2433,-1411.6151 510.4316,-1370.6279 570.2128,-1350.4092"/>
</g>
<!-- SADGA -->
<g id="node10" class="node">
<title>SADGA</title>
<polygon fill="none" stroke="#000000" points="573.3206,-1650.5 573.3206,-1686.5 637.5296,-1686.5 637.5296,-1650.5 573.3206,-1650.5"/>
<text text-anchor="middle" x="605.4251" y="-1664.4" font-family="Times,serif" font-size="14.00" fill="#000000">SADGA</text>
</g>
<!-- Graph&#45;based&#45;&#45;SADGA -->
<g id="edge9" class="edge">
<title>Graph-based--SADGA</title>
<path fill="none" stroke="#000000" d="M303.6158,-1466.7732C350.0499,-1502.574 457.6593,-1583.5076 554.6544,-1641.5 560.5667,-1645.0349 566.9802,-1648.6257 573.1953,-1651.9856"/>
</g>
<!-- ShadowGNN -->
<g id="node11" class="node">
<title>ShadowGNN</title>
<polygon fill="none" stroke="#000000" points="559.7133,-1595.5 559.7133,-1631.5 651.1369,-1631.5 651.1369,-1595.5 559.7133,-1595.5"/>
<text text-anchor="middle" x="605.4251" y="-1609.4" font-family="Times,serif" font-size="14.00" fill="#000000">ShadowGNN</text>
</g>
<!-- Graph&#45;based&#45;&#45;ShadowGNN -->
<g id="edge10" class="edge">
<title>Graph-based--ShadowGNN</title>
<path fill="none" stroke="#000000" d="M313.7776,-1466.5003C341.3832,-1481.2165 381.5637,-1502.4626 416.9426,-1520.5 469.118,-1547.1008 529.9572,-1576.9023 568.088,-1595.435"/>
</g>
<!-- S2SQL -->
<g id="node12" class="node">
<title>S2SQL</title>
<polygon fill="none" stroke="#000000" points="576.8129,-1540.5 576.8129,-1576.5 634.0373,-1576.5 634.0373,-1540.5 576.8129,-1540.5"/>
<text text-anchor="middle" x="605.4251" y="-1554.4" font-family="Times,serif" font-size="14.00" fill="#000000">S2SQL</text>
</g>
<!-- Graph&#45;based&#45;&#45;S2SQL -->
<g id="edge11" class="edge">
<title>Graph-based--S2SQL</title>
<path fill="none" stroke="#000000" d="M324.0479,-1463.3351C391.6708,-1486.2059 519.5338,-1529.4506 576.6291,-1548.7609"/>
</g>
<!-- Self&#45;attention&#45;&#45;RAT&#45;SQL -->
<g id="edge15" class="edge">
<title>Self-attention--RAT-SQL</title>
<path fill="none" stroke="#000000" d="M326.4381,-1208.0148C391.1523,-1225.5245 507.4965,-1257.0036 567.4375,-1273.2217"/>
</g>
<!-- X&#45;SQL -->
<g id="node14" class="node">
<title>X-SQL</title>
<polygon fill="none" stroke="#000000" points="576.8206,-1100.5 576.8206,-1136.5 634.0296,-1136.5 634.0296,-1100.5 576.8206,-1100.5"/>
<text text-anchor="middle" x="605.4251" y="-1114.4" font-family="Times,serif" font-size="14.00" fill="#000000">X-SQL</text>
</g>
<!-- Self&#45;attention&#45;&#45;X&#45;SQL -->
<g id="edge13" class="edge">
<title>Self-attention--X-SQL</title>
<path fill="none" stroke="#000000" d="M326.4381,-1184.5496C394.6599,-1168.3982 520.2601,-1138.6626 576.6698,-1125.3078"/>
</g>
<!-- SQLova -->
<g id="node15" class="node">
<title>SQLova</title>
<polygon fill="none" stroke="#000000" points="574.0969,-1155.5 574.0969,-1191.5 636.7533,-1191.5 636.7533,-1155.5 574.0969,-1155.5"/>
<text text-anchor="middle" x="605.4251" y="-1169.4" font-family="Times,serif" font-size="14.00" fill="#000000">SQLova</text>
</g>
<!-- Self&#45;attention&#45;&#45;SQLova -->
<g id="edge14" class="edge">
<title>Self-attention--SQLova</title>
<path fill="none" stroke="#000000" d="M326.4381,-1192.3713C393.6076,-1187.8278 516.3992,-1179.5219 574.0106,-1175.6249"/>
</g>
<!-- DuoRAT -->
<g id="node16" class="node">
<title>DuoRAT</title>
<polygon fill="none" stroke="#000000" points="571.3739,-935.5 571.3739,-971.5 639.4763,-971.5 639.4763,-935.5 571.3739,-935.5"/>
<text text-anchor="middle" x="605.4251" y="-949.4" font-family="Times,serif" font-size="14.00" fill="#000000">DuoRAT</text>
</g>
<!-- Self&#45;attention&#45;&#45;DuoRAT -->
<g id="edge16" class="edge">
<title>Self-attention--DuoRAT</title>
<path fill="none" stroke="#000000" d="M301.0264,-1177.3763C345.7657,-1138.9014 455.0386,-1047.2091 554.6544,-981.5 559.864,-978.0636 565.5281,-974.6494 571.1211,-971.4482"/>
</g>
<!-- UnifiedSKG -->
<g id="node17" class="node">
<title>UnifiedSKG</title>
<polygon fill="none" stroke="#000000" points="562.0457,-1210.5 562.0457,-1246.5 648.8045,-1246.5 648.8045,-1210.5 562.0457,-1210.5"/>
<text text-anchor="middle" x="605.4251" y="-1224.4" font-family="Times,serif" font-size="14.00" fill="#000000">UnifiedSKG</text>
</g>
<!-- Self&#45;attention&#45;&#45;UnifiedSKG -->
<g id="edge17" class="edge">
<title>Self-attention--UnifiedSKG</title>
<path fill="none" stroke="#000000" d="M326.4381,-1200.193C389.2232,-1206.5634 500.6059,-1217.8647 561.9295,-1224.0868"/>
</g>
<!-- Adapt PLM&#45;&#45;X&#45;SQL -->
<g id="edge19" class="edge">
<title>Adapt PLM--X-SQL</title>
<path fill="none" stroke="#000000" d="M321.7068,-1098.4363C388.6662,-1103.1715 518.8186,-1112.3755 576.5962,-1116.4613"/>
</g>
<!-- Adapt PLM&#45;&#45;SQLova -->
<g id="edge20" class="edge">
<title>Adapt PLM--SQLova</title>
<path fill="none" stroke="#000000" d="M321.7068,-1105.458C387.6387,-1121.2699 514.839,-1151.7754 573.8857,-1165.9361"/>
</g>
<!-- Guo -->
<g id="node19" class="node">
<title>Guo</title>
<polygon fill="none" stroke="#000000" points="578.4251,-990.5 578.4251,-1026.5 632.4251,-1026.5 632.4251,-990.5 578.4251,-990.5"/>
<text text-anchor="middle" x="605.4251" y="-1004.4" font-family="Times,serif" font-size="14.00" fill="#000000">Guo</text>
</g>
<!-- Adapt PLM&#45;&#45;Guo -->
<g id="edge21" class="edge">
<title>Adapt PLM--Guo</title>
<path fill="none" stroke="#000000" d="M321.7068,-1084.393C389.3512,-1066.2985 521.4882,-1030.9526 578.3465,-1015.7434"/>
</g>
<!-- HydraNet -->
<g id="node20" class="node">
<title>HydraNet</title>
<polygon fill="none" stroke="#000000" points="569.8283,-1045.5 569.8283,-1081.5 641.0219,-1081.5 641.0219,-1045.5 569.8283,-1045.5"/>
<text text-anchor="middle" x="605.4251" y="-1059.4" font-family="Times,serif" font-size="14.00" fill="#000000">HydraNet</text>
</g>
<!-- Adapt PLM&#45;&#45;HydraNet -->
<g id="edge22" class="edge">
<title>Adapt PLM--HydraNet</title>
<path fill="none" stroke="#000000" d="M321.7068,-1091.4147C386.0974,-1085.0794 508.9255,-1072.9945 569.6347,-1067.0214"/>
</g>
<!-- TaBERT -->
<g id="node22" class="node">
<title>TaBERT</title>
<polygon fill="none" stroke="#000000" points="572.1523,-770.5 572.1523,-806.5 638.6979,-806.5 638.6979,-770.5 572.1523,-770.5"/>
<text text-anchor="middle" x="605.4251" y="-784.4" font-family="Times,serif" font-size="14.00" fill="#000000">TaBERT</text>
</g>
<!-- Pre&#45;training&#45;&#45;TaBERT -->
<g id="edge24" class="edge">
<title>Pre-training--TaBERT</title>
<path fill="none" stroke="#000000" d="M321.7068,-844.3293C386.9537,-831.4902 512.2025,-806.8441 572.0234,-795.0727"/>
</g>
<!-- GraPPA -->
<g id="node23" class="node">
<title>GraPPA</title>
<polygon fill="none" stroke="#000000" points="574.0983,-880.5 574.0983,-916.5 636.7519,-916.5 636.7519,-880.5 574.0983,-880.5"/>
<text text-anchor="middle" x="605.4251" y="-894.4" font-family="Times,serif" font-size="14.00" fill="#000000">GraPPA</text>
</g>
<!-- Pre&#45;training&#45;&#45;GraPPA -->
<g id="edge25" class="edge">
<title>Pre-training--GraPPA</title>
<path fill="none" stroke="#000000" d="M321.7068,-858.3727C387.6387,-867.6976 514.839,-885.6881 573.8857,-894.0393"/>
</g>
<!-- GAP -->
<g id="node24" class="node">
<title>GAP</title>
<polygon fill="none" stroke="#000000" points="578.4251,-825.5 578.4251,-861.5 632.4251,-861.5 632.4251,-825.5 578.4251,-825.5"/>
<text text-anchor="middle" x="605.4251" y="-839.4" font-family="Times,serif" font-size="14.00" fill="#000000">GAP</text>
</g>
<!-- Pre&#45;training&#45;&#45;GAP -->
<g id="edge26" class="edge">
<title>Pre-training--GAP</title>
<path fill="none" stroke="#000000" d="M321.7068,-851.351C389.3512,-849.4792 521.4882,-845.8227 578.3465,-844.2493"/>
</g>
<!-- Decoding -->
<g id="node25" class="node">
<title>Decoding</title>
<polygon fill="none" stroke="#000000" points="0,-358.5 0,-394.5 70.4264,-394.5 70.4264,-358.5 0,-358.5"/>
<text text-anchor="middle" x="35.2132" y="-372.4" font-family="Times,serif" font-size="14.00" fill="#000000">Decoding</text>
</g>
<!-- Tree&#45;based -->
<g id="node26" class="node">
<title>Tree-based</title>
<polygon fill="none" stroke="#000000" points="241.0961,-640.5 241.0961,-676.5 319.2729,-676.5 319.2729,-640.5 241.0961,-640.5"/>
<text text-anchor="middle" x="280.1845" y="-654.4" font-family="Times,serif" font-size="14.00" fill="#000000">Tree-based</text>
</g>
<!-- Decoding&#45;&#45;Tree&#45;based -->
<g id="edge27" class="edge">
<title>Decoding--Tree-based</title>
<path fill="none" stroke="#000000" d="M45.8741,-394.6227C71.3205,-436.8618 139.1984,-543.7076 215.4264,-615.5 225.2507,-624.7527 237.2811,-633.338 248.295,-640.3654"/>
</g>
<!-- Sketch&#45;based -->
<g id="node30" class="node">
<title>Sketch-based</title>
<polygon fill="none" stroke="#000000" points="234.8661,-358.5 234.8661,-394.5 325.5029,-394.5 325.5029,-358.5 234.8661,-358.5"/>
<text text-anchor="middle" x="280.1845" y="-372.4" font-family="Times,serif" font-size="14.00" fill="#000000">Sketch-based</text>
</g>
<!-- Decoding&#45;&#45;Sketch&#45;based -->
<g id="edge31" class="edge">
<title>Decoding--Sketch-based</title>
<path fill="none" stroke="#000000" d="M70.5725,-376.5C113.9001,-376.5 187.3845,-376.5 234.8318,-376.5"/>
</g>
<!-- Bottom&#45;up -->
<g id="node35" class="node">
<title>Bottom-up</title>
<polygon fill="none" stroke="#000000" points="241.85,-181.5 241.85,-217.5 318.519,-217.5 318.519,-181.5 241.85,-181.5"/>
<text text-anchor="middle" x="280.1845" y="-195.4" font-family="Times,serif" font-size="14.00" fill="#000000">Bottom-up</text>
</g>
<!-- Decoding&#45;&#45;Bottom&#45;up -->
<g id="edge36" class="edge">
<title>Decoding--Bottom-up</title>
<path fill="none" stroke="#000000" d="M56.3891,-358.4501C89.3354,-330.7414 155.3372,-276.714 215.4264,-236.5 225.2189,-229.9465 236.2322,-223.3769 246.3611,-217.6307"/>
</g>
<!-- Self&#45;Attention -->
<g id="node37" class="node">
<title>Self-Attention</title>
<polygon fill="none" stroke="#000000" points="232.1382,-570.5 232.1382,-606.5 328.2308,-606.5 328.2308,-570.5 232.1382,-570.5"/>
<text text-anchor="middle" x="280.1845" y="-584.4" font-family="Times,serif" font-size="14.00" fill="#000000">Self-Attention</text>
</g>
<!-- Decoding&#45;&#45;Self&#45;Attention -->
<g id="edge38" class="edge">
<title>Decoding--Self-Attention</title>
<path fill="none" stroke="#000000" d="M50.748,-394.592C80.3939,-428.412 148.1012,-502.324 215.4264,-552.5 224.0901,-558.9568 234.0404,-565.0523 243.5003,-570.3285"/>
</g>
<!-- Bi&#45;attention -->
<g id="node39" class="node">
<title>Bi-attention</title>
<polygon fill="none" stroke="#000000" points="238.7448,-108.5 238.7448,-144.5 321.6242,-144.5 321.6242,-108.5 238.7448,-108.5"/>
<text text-anchor="middle" x="280.1845" y="-122.4" font-family="Times,serif" font-size="14.00" fill="#000000">Bi-attention</text>
</g>
<!-- Decoding&#45;&#45;Bi&#45;attention -->
<g id="edge41" class="edge">
<title>Decoding--Bi-attention</title>
<path fill="none" stroke="#000000" d="M48.6329,-358.4716C76.9507,-321.0968 145.9441,-233.4901 215.4264,-171.5 226.3574,-161.7477 239.4638,-152.2863 251.0176,-144.5764"/>
</g>
<!-- Relation&#45;aware \nSelf&#45;attention -->
<g id="node41" class="node">
<title>Relation-aware \nSelf-attention</title>
<polygon fill="none" stroke="#000000" points="227.6799,-899.7 227.6799,-941.3 332.6891,-941.3 332.6891,-899.7 227.6799,-899.7"/>
<text text-anchor="middle" x="280.1845" y="-924.7" font-family="Times,serif" font-size="14.00" fill="#000000">Relation-aware </text>
<text text-anchor="middle" x="280.1845" y="-907.9" font-family="Times,serif" font-size="14.00" fill="#000000">Self-attention</text>
</g>
<!-- Decoding&#45;&#45;Relation&#45;aware \nSelf&#45;attention -->
<g id="edge43" class="edge">
<title>Decoding--Relation-aware \nSelf-attention</title>
<path fill="none" stroke="#000000" d="M37.333,-394.6461C46.346,-464.7627 87.1014,-721.9537 215.4264,-880.5 221.4123,-887.8956 229.1536,-894.2952 237.1893,-899.6741"/>
</g>
<!-- Copy\nMechanism -->
<g id="node42" class="node">
<title>Copy\nMechanism</title>
<polygon fill="none" stroke="#000000" points="239.5274,-501.7 239.5274,-543.3 320.8416,-543.3 320.8416,-501.7 239.5274,-501.7"/>
<text text-anchor="middle" x="280.1845" y="-526.7" font-family="Times,serif" font-size="14.00" fill="#000000">Copy</text>
<text text-anchor="middle" x="280.1845" y="-509.9" font-family="Times,serif" font-size="14.00" fill="#000000">Mechanism</text>
</g>
<!-- Decoding&#45;&#45;Copy\nMechanism -->
<g id="edge45" class="edge">
<title>Decoding--Copy\nMechanism</title>
<path fill="none" stroke="#000000" d="M65.7437,-394.6958C111.2758,-421.8324 196.7595,-472.7797 244.9037,-501.4731"/>
</g>
<!-- Intermediate\nRepresentation -->
<g id="node44" class="node">
<title>Intermediate\nRepresentation</title>
<polygon fill="none" stroke="#000000" points="230.1985,-245.7 230.1985,-287.3 330.1705,-287.3 330.1705,-245.7 230.1985,-245.7"/>
<text text-anchor="middle" x="280.1845" y="-270.7" font-family="Times,serif" font-size="14.00" fill="#000000">Intermediate</text>
<text text-anchor="middle" x="280.1845" y="-253.9" font-family="Times,serif" font-size="14.00" fill="#000000">Representation</text>
</g>
<!-- Decoding&#45;&#45;Intermediate\nRepresentation -->
<g id="edge49" class="edge">
<title>Decoding--Intermediate\nRepresentation</title>
<path fill="none" stroke="#000000" d="M70.5725,-360.6225C113.5026,-341.3456 186.0387,-308.7745 233.5194,-287.4541"/>
</g>
<!-- Constrained\nDecoding -->
<g id="node47" class="node">
<title>Constrained\nDecoding</title>
<polygon fill="none" stroke="#000000" points="238.3584,-10.7 238.3584,-52.3 322.0106,-52.3 322.0106,-10.7 238.3584,-10.7"/>
<text text-anchor="middle" x="280.1845" y="-35.7" font-family="Times,serif" font-size="14.00" fill="#000000">Constrained</text>
<text text-anchor="middle" x="280.1845" y="-18.9" font-family="Times,serif" font-size="14.00" fill="#000000">Decoding</text>
</g>
<!-- Decoding&#45;&#45;Constrained\nDecoding -->
<g id="edge53" class="edge">
<title>Decoding--Constrained\nDecoding</title>
<path fill="none" stroke="#000000" d="M45.2707,-358.4524C70.974,-312.9417 142.2213,-190.5669 215.4264,-98.5 228.4143,-82.1657 244.7563,-65.2805 257.7742,-52.5473"/>
</g>
<!-- Seq2Tree -->
<g id="node27" class="node">
<title>Seq2Tree</title>
<polygon fill="none" stroke="#000000" points="570.6053,-660.5 570.6053,-696.5 640.2449,-696.5 640.2449,-660.5 570.6053,-660.5"/>
<text text-anchor="middle" x="605.4251" y="-674.4" font-family="Times,serif" font-size="14.00" fill="#000000">Seq2Tree</text>
</g>
<!-- Tree&#45;based&#45;&#45;Seq2Tree -->
<g id="edge28" class="edge">
<title>Tree-based--Seq2Tree</title>
<path fill="none" stroke="#000000" d="M319.4161,-660.9125C383.4494,-664.8501 509.4012,-672.5952 570.5162,-676.3533"/>
</g>
<!-- Seq2AST -->
<g id="node28" class="node">
<title>Seq2AST</title>
<polygon fill="none" stroke="#000000" points="570.2056,-605.5 570.2056,-641.5 640.6446,-641.5 640.6446,-605.5 570.2056,-605.5"/>
<text text-anchor="middle" x="605.4251" y="-619.4" font-family="Times,serif" font-size="14.00" fill="#000000">Seq2AST</text>
</g>
<!-- Tree&#45;based&#45;&#45;Seq2AST -->
<g id="edge29" class="edge">
<title>Tree-based--Seq2AST</title>
<path fill="none" stroke="#000000" d="M319.4161,-654.2782C383.2805,-647.4056 508.7369,-633.9049 570.0311,-627.3088"/>
</g>
<!-- SyntaxSQLNet -->
<g id="node29" class="node">
<title>SyntaxSQLNet</title>
<polygon fill="none" stroke="#000000" points="554.6544,-715.5 554.6544,-751.5 656.1958,-751.5 656.1958,-715.5 554.6544,-715.5"/>
<text text-anchor="middle" x="605.4251" y="-729.4" font-family="Times,serif" font-size="14.00" fill="#000000">SyntaxSQLNet</text>
</g>
<!-- Tree&#45;based&#45;&#45;SyntaxSQLNet -->
<g id="edge30" class="edge">
<title>Tree-based--SyntaxSQLNet</title>
<path fill="none" stroke="#000000" d="M319.4161,-667.5468C378.2963,-681.1244 489.5302,-706.7748 554.5679,-721.7724"/>
</g>
<!-- SQLNet -->
<g id="node31" class="node">
<title>SQLNet</title>
<polygon fill="none" stroke="#000000" points="574.0983,-440.5 574.0983,-476.5 636.7519,-476.5 636.7519,-440.5 574.0983,-440.5"/>
<text text-anchor="middle" x="605.4251" y="-454.4" font-family="Times,serif" font-size="14.00" fill="#000000">SQLNet</text>
</g>
<!-- Sketch&#45;based&#45;&#45;SQLNet -->
<g id="edge32" class="edge">
<title>Sketch-based--SQLNet</title>
<path fill="none" stroke="#000000" d="M325.7503,-387.9881C392.7085,-404.8697 515.9898,-435.9515 573.8614,-450.5421"/>
</g>
<!-- Coarse2Fine -->
<g id="node32" class="node">
<title>Coarse2Fine</title>
<polygon fill="none" stroke="#000000" points="562.0457,-385.5 562.0457,-421.5 648.8045,-421.5 648.8045,-385.5 562.0457,-385.5"/>
<text text-anchor="middle" x="605.4251" y="-399.4" font-family="Times,serif" font-size="14.00" fill="#000000">Coarse2Fine</text>
</g>
<!-- Sketch&#45;based&#45;&#45;Coarse2Fine -->
<g id="edge33" class="edge">
<title>Sketch-based--Coarse2Fine</title>
<path fill="none" stroke="#000000" d="M325.7503,-380.2827C388.4253,-385.4857 500.448,-394.7853 561.9844,-399.8937"/>
</g>
<!-- IRNet -->
<g id="node33" class="node">
<title>IRNet</title>
<polygon fill="none" stroke="#000000" points="578.4251,-275.5 578.4251,-311.5 632.4251,-311.5 632.4251,-275.5 578.4251,-275.5"/>
<text text-anchor="middle" x="605.4251" y="-289.4" font-family="Times,serif" font-size="14.00" fill="#000000">IRNet</text>
</g>
<!-- Sketch&#45;based&#45;&#45;IRNet -->
<g id="edge34" class="edge">
<title>Sketch-based--IRNet</title>
<path fill="none" stroke="#000000" d="M325.7503,-364.8718C394.4568,-347.3382 522.4658,-314.6709 578.2585,-300.4328"/>
</g>
<!-- RYANNet -->
<g id="node34" class="node">
<title>RYANNet</title>
<polygon fill="none" stroke="#000000" points="567.491,-330.5 567.491,-366.5 643.3592,-366.5 643.3592,-330.5 567.491,-330.5"/>
<text text-anchor="middle" x="605.4251" y="-344.4" font-family="Times,serif" font-size="14.00" fill="#000000">RYANNet</text>
</g>
<!-- Sketch&#45;based&#45;&#45;RYANNet -->
<g id="edge35" class="edge">
<title>Sketch-based--RYANNet</title>
<path fill="none" stroke="#000000" d="M325.7503,-372.5772C390.261,-367.0235 507.0523,-356.9689 567.2589,-351.7857"/>
</g>
<!-- SmBop -->
<g id="node36" class="node">
<title>SmBop</title>
<polygon fill="none" stroke="#000000" points="576.4202,-110.5 576.4202,-146.5 634.43,-146.5 634.43,-110.5 576.4202,-110.5"/>
<text text-anchor="middle" x="605.4251" y="-124.4" font-family="Times,serif" font-size="14.00" fill="#000000">SmBop</text>
</g>
<!-- Bottom&#45;up&#45;&#45;SmBop -->
<g id="edge37" class="edge">
<title>Bottom-up--SmBop</title>
<path fill="none" stroke="#000000" d="M318.7915,-191.012C346.1825,-184.9946 383.8151,-176.7366 416.9426,-169.5 473.3784,-157.1718 539.3375,-142.842 576.3615,-134.8056"/>
</g>
<!-- Self&#45;Attention&#45;&#45;Seq2Tree -->
<g id="edge40" class="edge">
<title>Self-Attention--Seq2Tree</title>
<path fill="none" stroke="#000000" d="M328.5251,-601.8767C394.707,-620.1905 511.9509,-652.634 570.3447,-668.7926"/>
</g>
<!-- Seq2SQL -->
<g id="node38" class="node">
<title>Seq2SQL</title>
<polygon fill="none" stroke="#000000" points="570.2056,-550.5 570.2056,-586.5 640.6446,-586.5 640.6446,-550.5 570.2056,-550.5"/>
<text text-anchor="middle" x="605.4251" y="-564.4" font-family="Times,serif" font-size="14.00" fill="#000000">Seq2SQL</text>
</g>
<!-- Self&#45;Attention&#45;&#45;Seq2SQL -->
<g id="edge39" class="edge">
<title>Self-Attention--Seq2SQL</title>
<path fill="none" stroke="#000000" d="M328.5251,-585.5274C394.5301,-581.4686 511.3243,-574.2865 569.875,-570.6861"/>
</g>
<!-- BiSQL -->
<g id="node40" class="node">
<title>BiSQL</title>
<polygon fill="none" stroke="#000000" points="577.5906,-55.5 577.5906,-91.5 633.2596,-91.5 633.2596,-55.5 577.5906,-55.5"/>
<text text-anchor="middle" x="605.4251" y="-69.4" font-family="Times,serif" font-size="14.00" fill="#000000">BiSQL</text>
</g>
<!-- Bi&#45;attention&#45;&#45;BiSQL -->
<g id="edge42" class="edge">
<title>Bi-attention--BiSQL</title>
<path fill="none" stroke="#000000" d="M321.7068,-119.7337C389.0087,-108.7664 520.1517,-87.3958 577.4771,-78.0543"/>
</g>
<!-- Relation&#45;aware \nSelf&#45;attention&#45;&#45;DuoRAT -->
<g id="edge44" class="edge">
<title>Relation-aware \nSelf-attention--DuoRAT</title>
<path fill="none" stroke="#000000" d="M332.8015,-925.8387C400.0413,-932.6611 514.5157,-944.276 571.3398,-950.0416"/>
</g>
<!-- Copy\nMechanism&#45;&#45;Seq2AST -->
<g id="edge47" class="edge">
<title>Copy\nMechanism--Seq2AST</title>
<path fill="none" stroke="#000000" d="M321.0471,-535.1895C385.3675,-555.1635 509.1499,-593.6028 569.954,-612.4848"/>
</g>
<!-- Copy\nMechanism&#45;&#45;Seq2SQL -->
<g id="edge46" class="edge">
<title>Copy\nMechanism--Seq2SQL</title>
<path fill="none" stroke="#000000" d="M321.0471,-528.2794C385.3675,-537.3764 509.1499,-554.8834 569.954,-563.4832"/>
</g>
<!-- SeqGenSQL -->
<g id="node43" class="node">
<title>SeqGenSQL</title>
<polygon fill="none" stroke="#000000" points="562.045,-495.5 562.045,-531.5 648.8052,-531.5 648.8052,-495.5 562.045,-495.5"/>
<text text-anchor="middle" x="605.4251" y="-509.4" font-family="Times,serif" font-size="14.00" fill="#000000">SeqGenSQL</text>
</g>
<!-- Copy\nMechanism&#45;&#45;SeqGenSQL -->
<g id="edge48" class="edge">
<title>Copy\nMechanism--SeqGenSQL</title>
<path fill="none" stroke="#000000" d="M321.0471,-521.3693C382.6377,-519.6649 498.7503,-516.4519 561.8814,-514.7049"/>
</g>
<!-- Intermediate\nRepresentation&#45;&#45;IRNet -->
<g id="edge51" class="edge">
<title>Intermediate\nRepresentation--IRNet</title>
<path fill="none" stroke="#000000" d="M330.2906,-270.6596C399.9623,-276.4434 523.6784,-286.7138 578.2623,-291.2451"/>
</g>
<!-- IncSQL -->
<g id="node45" class="node">
<title>IncSQL</title>
<polygon fill="none" stroke="#000000" points="575.2666,-220.5 575.2666,-256.5 635.5836,-256.5 635.5836,-220.5 575.2666,-220.5"/>
<text text-anchor="middle" x="605.4251" y="-234.4" font-family="Times,serif" font-size="14.00" fill="#000000">IncSQL</text>
</g>
<!-- Intermediate\nRepresentation&#45;&#45;IncSQL -->
<g id="edge50" class="edge">
<title>Intermediate\nRepresentation--IncSQL</title>
<path fill="none" stroke="#000000" d="M330.2906,-262.1864C398.715,-256.2957 519.266,-245.9174 575.2649,-241.0965"/>
</g>
<!-- ValueNet -->
<g id="node46" class="node">
<title>ValueNet</title>
<polygon fill="none" stroke="#000000" points="570.606,-165.5 570.606,-201.5 640.2442,-201.5 640.2442,-165.5 570.606,-165.5"/>
<text text-anchor="middle" x="605.4251" y="-179.4" font-family="Times,serif" font-size="14.00" fill="#000000">ValueNet</text>
</g>
<!-- Intermediate\nRepresentation&#45;&#45;ValueNet -->
<g id="edge52" class="edge">
<title>Intermediate\nRepresentation--ValueNet</title>
<path fill="none" stroke="#000000" d="M330.2906,-253.7131C396.7549,-236.7517 512.4022,-207.239 570.2963,-192.4647"/>
</g>
<!-- PICARD -->
<g id="node48" class="node">
<title>PICARD</title>
<polygon fill="none" stroke="#000000" points="571.7603,-.5 571.7603,-36.5 639.0899,-36.5 639.0899,-.5 571.7603,-.5"/>
<text text-anchor="middle" x="605.4251" y="-14.4" font-family="Times,serif" font-size="14.00" fill="#000000">PICARD</text>
</g>
<!-- Constrained\nDecoding&#45;&#45;PICARD -->
<g id="edge54" class="edge">
<title>Constrained\nDecoding--PICARD</title>
<path fill="none" stroke="#000000" d="M322.0382,-29.8271C387.2336,-27.2212 511.7561,-22.244 571.6296,-19.8508"/>
</g>
</g>
</svg>