<?xml version="1.0" encoding="UTF-8" standalone="no"?><!DOCTYPE svg PUBLIC "-//W3C//DTD SVG 1.1//EN" "http://www.w3.org/Graphics/SVG/1.1/DTD/svg11.dtd"><!-- Generated by graphviz version 2.40.1 (20161225.0304)
 --><!-- Title: G Pages: 1 --><svg xmlns="http://www.w3.org/2000/svg" xmlns:xlink="http://www.w3.org/1999/xlink" width="809pt" height="1759pt" viewBox="0.00 0.00 809.04 1759.40">
<g id="graph0" class="graph" transform="scale(1 1) rotate(0) translate(4 1755.4)">
<title>G</title>
<polygon fill="#ffffff" stroke="transparent" points="-4,4 -4,-1755.4 805.0438,-1755.4 805.0438,4 -4,4"/>
<!-- Encoder -->
<g id="node1" class="node">
<title>Encoder</title>
<polygon fill="none" stroke="#000000" points="6.116,-1187.9 6.116,-1223.9 95.4112,-1223.9 95.4112,-1187.9 6.116,-1187.9"/>
<text text-anchor="middle" x="50.7636" y="-1199.6" font-family="Times,serif" font-size="22.00" fill="#000000">Encoder</text>
</g>
<!-- Encode Token Type -->
<g id="node2" class="node">
<title>Encode Token Type</title>
<polygon fill="none" stroke="#000000" points="246.5272,-1604.9 246.5272,-1640.9 440.9098,-1640.9 440.9098,-1604.9 246.5272,-1604.9"/>
<text text-anchor="middle" x="343.7185" y="-1616.6" font-family="Times,serif" font-size="22.00" fill="#000000">Encode Token Type</text>
</g>
<!-- Encoder&#45;&#45;Encode Token Type -->
<g id="edge1" class="edge">
<title>Encoder--Encode Token Type</title>
<path fill="none" stroke="#000000" d="M63.3172,-1223.9466C94.3173,-1268.4912 177.0251,-1387.2144 246.5272,-1485.9 276.5844,-1528.5781 312.126,-1578.5538 330.7872,-1604.7562"/>
</g>
<!-- Graph&#45;based -->
<g id="node4" class="node">
<title>Graph-based</title>
<polygon fill="none" stroke="#000000" points="279.5272,-1439.9 279.5272,-1475.9 407.9098,-1475.9 407.9098,-1439.9 279.5272,-1439.9"/>
<text text-anchor="middle" x="343.7185" y="-1451.6" font-family="Times,serif" font-size="22.00" fill="#000000">Graph-based</text>
</g>
<!-- Encoder&#45;&#45;Graph&#45;based -->
<g id="edge3" class="edge">
<title>Encoder--Graph-based</title>
<path fill="none" stroke="#000000" d="M71.8322,-1224.0232C125.7534,-1270.4063 268.3046,-1393.0289 322.4472,-1439.6024"/>
</g>
<!-- Self&#45;attention -->
<g id="node13" class="node">
<title>Self-attention</title>
<polygon fill="none" stroke="#000000" points="275.8466,-1187.9 275.8466,-1223.9 411.5904,-1223.9 411.5904,-1187.9 275.8466,-1187.9"/>
<text text-anchor="middle" x="343.7185" y="-1199.6" font-family="Times,serif" font-size="22.00" fill="#000000">Self-attention</text>
</g>
<!-- Encoder&#45;&#45;Self&#45;attention -->
<g id="edge12" class="edge">
<title>Encoder--Self-attention</title>
<path fill="none" stroke="#000000" d="M95.576,-1205.9C143.5811,-1205.9 220.3332,-1205.9 275.7742,-1205.9"/>
</g>
<!-- Adapt PLM -->
<g id="node18" class="node">
<title>Adapt PLM</title>
<polygon fill="none" stroke="#000000" points="283.4751,-1087.9 283.4751,-1123.9 403.9619,-1123.9 403.9619,-1087.9 283.4751,-1087.9"/>
<text text-anchor="middle" x="343.7185" y="-1099.6" font-family="Times,serif" font-size="22.00" fill="#000000">Adapt PLM</text>
</g>
<!-- Encoder&#45;&#45;Adapt PLM -->
<g id="edge18" class="edge">
<title>Encoder--Adapt PLM</title>
<path fill="none" stroke="#000000" d="M95.576,-1190.6033C148.1492,-1172.6575 235.2008,-1142.9425 290.9792,-1123.9025"/>
</g>
<!-- Pre&#45;training -->
<g id="node21" class="node">
<title>Pre-training</title>
<polygon fill="none" stroke="#000000" points="283.1814,-840.9 283.1814,-876.9 404.2556,-876.9 404.2556,-840.9 283.1814,-840.9"/>
<text text-anchor="middle" x="343.7185" y="-852.6" font-family="Times,serif" font-size="22.00" fill="#000000">Pre-training</text>
</g>
<!-- Encoder&#45;&#45;Pre&#45;training -->
<g id="edge23" class="edge">
<title>Encoder--Pre-training</title>
<path fill="none" stroke="#000000" d="M57.4865,-1187.7715C77.8134,-1135.3149 143.6209,-981.7275 246.5272,-896.9 257.2218,-888.0842 270.2038,-881.1439 283.151,-875.7454"/>
</g>
<!-- TypeSQL -->
<g id="node3" class="node">
<title>TypeSQL</title>
<polygon fill="none" stroke="#000000" points="674.4542,-1714.9 674.4542,-1750.9 777.2112,-1750.9 777.2112,-1714.9 674.4542,-1714.9"/>
<text text-anchor="middle" x="725.8327" y="-1726.6" font-family="Times,serif" font-size="22.00" fill="#000000">TypeSQL</text>
</g>
<!-- Encode Token Type&#45;&#45;TypeSQL -->
<g id="edge2" class="edge">
<title>Encode Token Type--TypeSQL</title>
<path fill="none" stroke="#000000" d="M381.9152,-1641.013C415.7079,-1656.4197 466.6879,-1678.1707 512.9098,-1691.9 567.0397,-1707.9782 630.8374,-1719.291 674.3894,-1725.9029"/>
<text text-anchor="middle" x="545.7657" y="-1712.1" font-family="Times,serif" font-size="14.00" fill="#000000">Adopted by</text>
</g>
<!-- GNN -->
<g id="node5" class="node">
<title>GNN</title>
<polygon fill="none" stroke="#000000" points="694.01,-1494.9 694.01,-1530.9 757.6554,-1530.9 757.6554,-1494.9 694.01,-1494.9"/>
<text text-anchor="middle" x="725.8327" y="-1506.6" font-family="Times,serif" font-size="22.00" fill="#000000">GNN</text>
</g>
<!-- Graph&#45;based&#45;&#45;GNN -->
<g id="edge4" class="edge">
<title>Graph-based--GNN</title>
<path fill="none" stroke="#000000" d="M408.1069,-1467.1678C490.8451,-1479.0768 631.2652,-1499.2883 693.9577,-1508.312"/>
</g>
<!-- Global&#45;GCN -->
<g id="node6" class="node">
<title>Global-GCN</title>
<polygon fill="none" stroke="#000000" points="661.0155,-1439.9 661.0155,-1475.9 790.6499,-1475.9 790.6499,-1439.9 661.0155,-1439.9"/>
<text text-anchor="middle" x="725.8327" y="-1451.6" font-family="Times,serif" font-size="22.00" fill="#000000">Global-GCN</text>
</g>
<!-- Graph&#45;based&#45;&#45;Global&#45;GCN -->
<g id="edge5" class="edge">
<title>Graph-based--Global-GCN</title>
<path fill="none" stroke="#000000" d="M408.1069,-1457.9C478.4024,-1457.9 590.3354,-1457.9 660.8605,-1457.9"/>
</g>
<!-- IGSQL -->
<g id="node7" class="node">
<title>IGSQL</title>
<polygon fill="none" stroke="#000000" points="685.4542,-1384.9 685.4542,-1420.9 766.2112,-1420.9 766.2112,-1384.9 685.4542,-1384.9"/>
<text text-anchor="middle" x="725.8327" y="-1396.6" font-family="Times,serif" font-size="22.00" fill="#000000">IGSQL</text>
</g>
<!-- Graph&#45;based&#45;&#45;IGSQL -->
<g id="edge6" class="edge">
<title>Graph-based--IGSQL</title>
<path fill="none" stroke="#000000" d="M408.1069,-1448.6322C487.2292,-1437.2436 619.1022,-1418.2624 685.3044,-1408.7335"/>
</g>
<!-- RAT&#45;SQL -->
<g id="node8" class="node">
<title>RAT-SQL</title>
<polygon fill="none" stroke="#000000" points="671.3984,-1274.9 671.3984,-1310.9 780.267,-1310.9 780.267,-1274.9 671.3984,-1274.9"/>
<text text-anchor="middle" x="725.8327" y="-1286.6" font-family="Times,serif" font-size="22.00" fill="#000000">RAT-SQL</text>
</g>
<!-- Graph&#45;based&#45;&#45;RAT&#45;SQL -->
<g id="edge7" class="edge">
<title>Graph-based--RAT-SQL</title>
<path fill="none" stroke="#000000" d="M382.1373,-1439.8052C439.9232,-1412.8047 552.8643,-1360.869 650.6216,-1320.9 658.7465,-1317.5781 667.4274,-1314.1954 675.8985,-1310.9831"/>
</g>
<!-- LEGSQL -->
<g id="node9" class="node">
<title>LEGSQL</title>
<polygon fill="none" stroke="#000000" points="675.6763,-1329.9 675.6763,-1365.9 775.9891,-1365.9 775.9891,-1329.9 675.6763,-1329.9"/>
<text text-anchor="middle" x="725.8327" y="-1341.6" font-family="Times,serif" font-size="22.00" fill="#000000">LEGSQL</text>
</g>
<!-- Graph&#45;based&#45;&#45;LEGSQL -->
<g id="edge8" class="edge">
<title>Graph-based--LEGSQL</title>
<path fill="none" stroke="#000000" d="M406.389,-1439.8589C481.6583,-1418.191 606.4078,-1382.2791 675.6383,-1362.3496"/>
</g>
<!-- SADGA -->
<g id="node10" class="node">
<title>SADGA</title>
<polygon fill="none" stroke="#000000" points="679.9542,-1659.9 679.9542,-1695.9 771.7112,-1695.9 771.7112,-1659.9 679.9542,-1659.9"/>
<text text-anchor="middle" x="725.8327" y="-1671.6" font-family="Times,serif" font-size="22.00" fill="#000000">SADGA</text>
</g>
<!-- Graph&#45;based&#45;&#45;SADGA -->
<g id="edge9" class="edge">
<title>Graph-based--SADGA</title>
<path fill="none" stroke="#000000" d="M368.5014,-1476.1189C419.3431,-1512.8876 539.9825,-1597.043 650.6216,-1650.9 659.8523,-1655.3934 670.031,-1659.545 679.8382,-1663.1771"/>
</g>
<!-- ShadowGNN -->
<g id="node11" class="node">
<title>ShadowGNN</title>
<polygon fill="none" stroke="#000000" points="658.5713,-1604.9 658.5713,-1640.9 793.0941,-1640.9 793.0941,-1604.9 658.5713,-1604.9"/>
<text text-anchor="middle" x="725.8327" y="-1616.6" font-family="Times,serif" font-size="22.00" fill="#000000">ShadowGNN</text>
</g>
<!-- Graph&#45;based&#45;&#45;ShadowGNN -->
<g id="edge10" class="edge">
<title>Graph-based--ShadowGNN</title>
<path fill="none" stroke="#000000" d="M381.5837,-1476.0765C439.125,-1503.4349 552.2951,-1556.2146 650.6216,-1595.9 658.0833,-1598.9116 666.0246,-1601.9445 673.8451,-1604.8345"/>
</g>
<!-- S2SQL -->
<g id="node12" class="node">
<title>S2SQL</title>
<polygon fill="none" stroke="#000000" points="685.4421,-1549.9 685.4421,-1585.9 766.2233,-1585.9 766.2233,-1549.9 685.4421,-1549.9"/>
<text text-anchor="middle" x="725.8327" y="-1561.6" font-family="Times,serif" font-size="22.00" fill="#000000">S2SQL</text>
</g>
<!-- Graph&#45;based&#45;&#45;S2SQL -->
<g id="edge11" class="edge">
<title>Graph-based--S2SQL</title>
<path fill="none" stroke="#000000" d="M406.389,-1475.9411C485.2577,-1498.6452 618.452,-1536.9881 685.1777,-1556.1966"/>
</g>
<!-- Self&#45;attention&#45;&#45;RAT&#45;SQL -->
<g id="edge15" class="edge">
<title>Self-attention--RAT-SQL</title>
<path fill="none" stroke="#000000" d="M411.5926,-1221.3536C485.6891,-1238.2239 602.877,-1264.9054 671.2592,-1280.4747"/>
</g>
<!-- X&#45;SQL -->
<g id="node14" class="node">
<title>X-SQL</title>
<polygon fill="none" stroke="#000000" points="685.4542,-1109.9 685.4542,-1145.9 766.2112,-1145.9 766.2112,-1109.9 685.4542,-1109.9"/>
<text text-anchor="middle" x="725.8327" y="-1121.6" font-family="Times,serif" font-size="22.00" fill="#000000">X-SQL</text>
</g>
<!-- Self&#45;attention&#45;&#45;X&#45;SQL -->
<g id="edge13" class="edge">
<title>Self-attention--X-SQL</title>
<path fill="none" stroke="#000000" d="M411.5926,-1192.045C491.0506,-1175.8255 620.0619,-1149.4907 685.3019,-1136.1734"/>
</g>
<!-- SQLova -->
<g id="node15" class="node">
<title>SQLova</title>
<polygon fill="none" stroke="#000000" points="681.1741,-1164.9 681.1741,-1200.9 770.4913,-1200.9 770.4913,-1164.9 681.1741,-1164.9"/>
<text text-anchor="middle" x="725.8327" y="-1176.6" font-family="Times,serif" font-size="22.00" fill="#000000">SQLova</text>
</g>
<!-- Self&#45;attention&#45;&#45;SQLova -->
<g id="edge14" class="edge">
<title>Self-attention--SQLova</title>
<path fill="none" stroke="#000000" d="M411.8194,-1201.8689C458.7132,-1199.0863 522.4473,-1195.2911 578.6216,-1191.9 612.998,-1189.8248 651.8878,-1187.4458 681.0593,-1185.6552"/>
</g>
<!-- DuoRAT -->
<g id="node16" class="node">
<title>DuoRAT</title>
<polygon fill="none" stroke="#000000" points="676.8951,-944.9 676.8951,-980.9 774.7703,-980.9 774.7703,-944.9 676.8951,-944.9"/>
<text text-anchor="middle" x="725.8327" y="-956.6" font-family="Times,serif" font-size="22.00" fill="#000000">DuoRAT</text>
</g>
<!-- Self&#45;attention&#45;&#45;DuoRAT -->
<g id="edge16" class="edge">
<title>Self-attention--DuoRAT</title>
<path fill="none" stroke="#000000" d="M368.8826,-1187.7181C436.7873,-1138.7337 620.6743,-1006.6336 650.6216,-990.9 658.8856,-986.5583 667.9756,-982.5713 676.8933,-979.0507"/>
</g>
<!-- UnifiedSKG -->
<g id="node17" class="node">
<title>UnifiedSKG</title>
<polygon fill="none" stroke="#000000" points="662.2365,-1219.9 662.2365,-1255.9 789.4289,-1255.9 789.4289,-1219.9 662.2365,-1219.9"/>
<text text-anchor="middle" x="725.8327" y="-1231.6" font-family="Times,serif" font-size="22.00" fill="#000000">UnifiedSKG</text>
</g>
<!-- Self&#45;attention&#45;&#45;UnifiedSKG -->
<g id="edge17" class="edge">
<title>Self-attention--UnifiedSKG</title>
<path fill="none" stroke="#000000" d="M411.5926,-1211.5841C482.4721,-1217.5199 592.7828,-1226.7578 662.0842,-1232.5614"/>
</g>
<!-- Adapt PLM&#45;&#45;X&#45;SQL -->
<g id="edge19" class="edge">
<title>Adapt PLM--X-SQL</title>
<path fill="none" stroke="#000000" d="M404.2656,-1109.386C482.8654,-1113.9113 617.9141,-1121.6866 685.2261,-1125.5621"/>
</g>
<!-- Adapt PLM&#45;&#45;SQLova -->
<g id="edge20" class="edge">
<title>Adapt PLM--SQLova</title>
<path fill="none" stroke="#000000" d="M404.2656,-1118.1009C481.2871,-1133.6215 612.5132,-1160.0649 681.0902,-1173.8839"/>
</g>
<!-- Guo -->
<g id="node19" class="node">
<title>Guo</title>
<polygon fill="none" stroke="#000000" points="698.8327,-999.9 698.8327,-1035.9 752.8327,-1035.9 752.8327,-999.9 698.8327,-999.9"/>
<text text-anchor="middle" x="725.8327" y="-1011.6" font-family="Times,serif" font-size="22.00" fill="#000000">Guo</text>
</g>
<!-- Adapt PLM&#45;&#45;Guo -->
<g id="edge21" class="edge">
<title>Adapt PLM--Guo</title>
<path fill="none" stroke="#000000" d="M404.2656,-1091.9561C488.4421,-1072.5705 637.3618,-1038.2746 698.4862,-1024.1978"/>
</g>
<!-- HydraNet -->
<g id="node20" class="node">
<title>HydraNet</title>
<polygon fill="none" stroke="#000000" points="674.4663,-1054.9 674.4663,-1090.9 777.1991,-1090.9 777.1991,-1054.9 674.4663,-1054.9"/>
<text text-anchor="middle" x="725.8327" y="-1066.6" font-family="Times,serif" font-size="22.00" fill="#000000">HydraNet</text>
</g>
<!-- Adapt PLM&#45;&#45;HydraNet -->
<g id="edge22" class="edge">
<title>Adapt PLM--HydraNet</title>
<path fill="none" stroke="#000000" d="M404.2656,-1100.6711C478.867,-1094.2284 604.3203,-1083.394 674.444,-1077.338"/>
</g>
<!-- TaBERT -->
<g id="node22" class="node">
<title>TaBERT</title>
<polygon fill="none" stroke="#000000" points="678.1183,-779.9 678.1183,-815.9 773.5471,-815.9 773.5471,-779.9 678.1183,-779.9"/>
<text text-anchor="middle" x="725.8327" y="-791.6" font-family="Times,serif" font-size="22.00" fill="#000000">TaBERT</text>
</g>
<!-- Pre&#45;training&#45;&#45;TaBERT -->
<g id="edge24" class="edge">
<title>Pre-training--TaBERT</title>
<path fill="none" stroke="#000000" d="M404.2656,-849.2344C480.1297,-837.1236 608.5815,-816.6178 677.9566,-805.5429"/>
</g>
<!-- GraPPA -->
<g id="node23" class="node">
<title>GraPPA</title>
<polygon fill="none" stroke="#000000" points="681.1763,-889.9 681.1763,-925.9 770.4891,-925.9 770.4891,-889.9 681.1763,-889.9"/>
<text text-anchor="middle" x="725.8327" y="-901.6" font-family="Times,serif" font-size="22.00" fill="#000000">GraPPA</text>
</g>
<!-- Pre&#45;training&#45;&#45;GraPPA -->
<g id="edge25" class="edge">
<title>Pre-training--GraPPA</title>
<path fill="none" stroke="#000000" d="M404.2656,-866.6642C481.2871,-876.541 612.5132,-893.3686 681.0902,-902.1625"/>
</g>
<!-- GAP -->
<g id="node24" class="node">
<title>GAP</title>
<polygon fill="none" stroke="#000000" points="695.836,-834.9 695.836,-870.9 755.8294,-870.9 755.8294,-834.9 695.836,-834.9"/>
<text text-anchor="middle" x="725.8327" y="-846.6" font-family="Times,serif" font-size="22.00" fill="#000000">GAP</text>
</g>
<!-- Pre&#45;training&#45;&#45;GAP -->
<g id="edge26" class="edge">
<title>Pre-training--GAP</title>
<path fill="none" stroke="#000000" d="M404.2656,-857.9493C487.1794,-856.6474 632.9088,-854.3591 695.6768,-853.3735"/>
</g>
<!-- Decoding -->
<g id="node25" class="node">
<title>Decoding</title>
<polygon fill="none" stroke="#000000" points="0,-364.9 0,-400.9 101.5272,-400.9 101.5272,-364.9 0,-364.9"/>
<text text-anchor="middle" x="50.7636" y="-376.6" font-family="Times,serif" font-size="22.00" fill="#000000">Decoding</text>
</g>
<!-- Tree&#45;based -->
<g id="node26" class="node">
<title>Tree-based</title>
<polygon fill="none" stroke="#000000" points="286.8653,-649.9 286.8653,-685.9 400.5717,-685.9 400.5717,-649.9 286.8653,-649.9"/>
<text text-anchor="middle" x="343.7185" y="-661.6" font-family="Times,serif" font-size="22.00" fill="#000000">Tree-based</text>
</g>
<!-- Decoding&#45;&#45;Tree&#45;based -->
<g id="edge27" class="edge">
<title>Decoding--Tree-based</title>
<path fill="none" stroke="#000000" d="M61.0153,-400.9468C86.8343,-444.9731 158.7809,-559.1572 246.5272,-625.9 259.2555,-635.5816 274.5576,-643.5335 289.2139,-649.8131"/>
</g>
<!-- Sketch&#45;based -->
<g id="node30" class="node">
<title>Sketch-based</title>
<polygon fill="none" stroke="#000000" points="277.0753,-364.9 277.0753,-400.9 410.3617,-400.9 410.3617,-364.9 277.0753,-364.9"/>
<text text-anchor="middle" x="343.7185" y="-376.6" font-family="Times,serif" font-size="22.00" fill="#000000">Sketch-based</text>
</g>
<!-- Decoding&#45;&#45;Sketch&#45;based -->
<g id="edge31" class="edge">
<title>Decoding--Sketch-based</title>
<path fill="none" stroke="#000000" d="M101.7924,-382.9C150.3985,-382.9 223.8408,-382.9 277.0536,-382.9"/>
</g>
<!-- Bottom&#45;up -->
<g id="node35" class="node">
<title>Bottom-up</title>
<polygon fill="none" stroke="#000000" points="288.05,-198.9 288.05,-234.9 399.387,-234.9 399.387,-198.9 288.05,-198.9"/>
<text text-anchor="middle" x="343.7185" y="-210.6" font-family="Times,serif" font-size="22.00" fill="#000000">Bottom-up</text>
</g>
<!-- Decoding&#45;&#45;Bottom&#45;up -->
<g id="edge36" class="edge">
<title>Decoding--Bottom-up</title>
<path fill="none" stroke="#000000" d="M74.8017,-364.829C110.7772,-338.3397 181.3759,-288.479 246.5272,-254.9 260.7794,-247.5544 276.793,-240.7462 291.6468,-234.9817"/>
</g>
<!-- Self&#45;Attention -->
<g id="node37" class="node">
<title>Self-Attention</title>
<polygon fill="none" stroke="#000000" points="272.7886,-579.9 272.7886,-615.9 414.6484,-615.9 414.6484,-579.9 272.7886,-579.9"/>
<text text-anchor="middle" x="343.7185" y="-591.6" font-family="Times,serif" font-size="22.00" fill="#000000">Self-Attention</text>
</g>
<!-- Decoding&#45;&#45;Self&#45;Attention -->
<g id="edge38" class="edge">
<title>Decoding--Self-Attention</title>
<path fill="none" stroke="#000000" d="M65.2264,-401.1276C95.2068,-437.7444 167.9244,-520.6767 246.5272,-566.9 255.0003,-571.8827 264.3676,-576.162 273.8432,-579.8086"/>
</g>
<!-- Bi&#45;attention -->
<g id="node39" class="node">
<title>Bi-attention</title>
<polygon fill="none" stroke="#000000" points="283.1704,-122.9 283.1704,-158.9 404.2666,-158.9 404.2666,-122.9 283.1704,-122.9"/>
<text text-anchor="middle" x="343.7185" y="-134.6" font-family="Times,serif" font-size="22.00" fill="#000000">Bi-attention</text>
</g>
<!-- Decoding&#45;&#45;Bi&#45;attention -->
<g id="edge41" class="edge">
<title>Decoding--Bi-attention</title>
<path fill="none" stroke="#000000" d="M65.6384,-364.6204C96.369,-327.7226 170.3832,-243.2372 246.5272,-188.9 262.7649,-177.3126 282.219,-167.0915 299.442,-159.0919"/>
</g>
<!-- Relation&#45;aware \nSelf&#45;attention -->
<g id="node41" class="node">
<title>Relation-aware \nSelf-attention</title>
<polygon fill="none" stroke="#000000" points="265.7827,-906.5 265.7827,-967.3 421.6543,-967.3 421.6543,-906.5 265.7827,-906.5"/>
<text text-anchor="middle" x="343.7185" y="-943.5" font-family="Times,serif" font-size="22.00" fill="#000000">Relation-aware </text>
<text text-anchor="middle" x="343.7185" y="-917.1" font-family="Times,serif" font-size="22.00" fill="#000000">Self-attention</text>
</g>
<!-- Decoding&#45;&#45;Relation&#45;aware \nSelf&#45;attention -->
<g id="edge43" class="edge">
<title>Decoding--Relation-aware \nSelf-attention</title>
<path fill="none" stroke="#000000" d="M53.1592,-401.3774C63.2916,-472.7116 108.6534,-733.7853 246.5272,-886.9 253.1299,-894.2326 261.0603,-900.6493 269.5067,-906.2196"/>
</g>
<!-- Copy\nMechanism -->
<g id="node42" class="node">
<title>Copy\nMechanism</title>
<polygon fill="none" stroke="#000000" points="284.4002,-496.5 284.4002,-557.3 403.0368,-557.3 403.0368,-496.5 284.4002,-496.5"/>
<text text-anchor="middle" x="343.7185" y="-533.5" font-family="Times,serif" font-size="22.00" fill="#000000">Copy</text>
<text text-anchor="middle" x="343.7185" y="-507.1" font-family="Times,serif" font-size="22.00" fill="#000000">Mechanism</text>
</g>
<!-- Decoding&#45;&#45;Copy\nMechanism -->
<g id="edge45" class="edge">
<title>Decoding--Copy\nMechanism</title>
<path fill="none" stroke="#000000" d="M87.5699,-400.9919C136.9764,-425.2773 225.3336,-468.7087 284.2441,-497.6658"/>
</g>
<!-- Intermediate\nRepresentation -->
<g id="node44" class="node">
<title>Intermediate\nRepresentation</title>
<polygon fill="none" stroke="#000000" points="269.7405,-264.5 269.7405,-325.3 417.6965,-325.3 417.6965,-264.5 269.7405,-264.5"/>
<text text-anchor="middle" x="343.7185" y="-301.5" font-family="Times,serif" font-size="22.00" fill="#000000">Intermediate</text>
<text text-anchor="middle" x="343.7185" y="-275.1" font-family="Times,serif" font-size="22.00" fill="#000000">Representation</text>
</g>
<!-- Decoding&#45;&#45;Intermediate\nRepresentation -->
<g id="edge49" class="edge">
<title>Decoding--Intermediate\nRepresentation</title>
<path fill="none" stroke="#000000" d="M101.7924,-367.5716C148.1854,-353.6357 217.2045,-332.9032 269.6635,-317.1452"/>
</g>
<!-- Constrained\nDecoding -->
<g id="node47" class="node">
<title>Constrained\nDecoding</title>
<polygon fill="none" stroke="#000000" points="282.5632,-.5 282.5632,-61.3 404.8738,-61.3 404.8738,-.5 282.5632,-.5"/>
<text text-anchor="middle" x="343.7185" y="-37.5" font-family="Times,serif" font-size="22.00" fill="#000000">Constrained</text>
<text text-anchor="middle" x="343.7185" y="-11.1" font-family="Times,serif" font-size="22.00" fill="#000000">Decoding</text>
</g>
<!-- Decoding&#45;&#45;Constrained\nDecoding -->
<g id="edge53" class="edge">
<title>Decoding--Constrained\nDecoding</title>
<path fill="none" stroke="#000000" d="M61.7624,-364.7161C89.5546,-319.5061 166.1314,-199.4316 246.5272,-112.9 263.6576,-94.4622 284.8046,-76.1847 302.9938,-61.581"/>
</g>
<!-- Seq2Tree -->
<g id="node27" class="node">
<title>Seq2Tree</title>
<polygon fill="none" stroke="#000000" points="675.6873,-669.9 675.6873,-705.9 775.9781,-705.9 775.9781,-669.9 675.6873,-669.9"/>
<text text-anchor="middle" x="725.8327" y="-681.6" font-family="Times,serif" font-size="22.00" fill="#000000">Seq2Tree</text>
</g>
<!-- Tree&#45;based&#45;&#45;Seq2Tree -->
<g id="edge28" class="edge">
<title>Tree-based--Seq2Tree</title>
<path fill="none" stroke="#000000" d="M400.9249,-670.8942C475.4595,-674.7954 604.6118,-681.5553 675.5618,-685.2688"/>
</g>
<!-- Seq2AST -->
<g id="node28" class="node">
<title>Seq2AST</title>
<polygon fill="none" stroke="#000000" points="675.0592,-614.9 675.0592,-650.9 776.6062,-650.9 776.6062,-614.9 675.0592,-614.9"/>
<text text-anchor="middle" x="725.8327" y="-626.6" font-family="Times,serif" font-size="22.00" fill="#000000">Seq2AST</text>
</g>
<!-- Tree&#45;based&#45;&#45;Seq2AST -->
<g id="edge29" class="edge">
<title>Tree-based--Seq2AST</title>
<path fill="none" stroke="#000000" d="M400.9249,-662.6601C475.2513,-655.8522 603.8907,-644.0694 674.9659,-637.5592"/>
</g>
<!-- SyntaxSQLNet -->
<g id="node29" class="node">
<title>SyntaxSQLNet</title>
<polygon fill="none" stroke="#000000" points="650.6216,-724.9 650.6216,-760.9 801.0438,-760.9 801.0438,-724.9 650.6216,-724.9"/>
<text text-anchor="middle" x="725.8327" y="-736.6" font-family="Times,serif" font-size="22.00" fill="#000000">SyntaxSQLNet</text>
</g>
<!-- Tree&#45;based&#45;&#45;SyntaxSQLNet -->
<g id="edge30" class="edge">
<title>Tree-based--SyntaxSQLNet</title>
<path fill="none" stroke="#000000" d="M400.9249,-679.1283C467.3398,-692.1639 577.1206,-713.7113 650.448,-728.1038"/>
</g>
<!-- SQLNet -->
<g id="node31" class="node">
<title>SQLNet</title>
<polygon fill="none" stroke="#000000" points="681.1763,-449.9 681.1763,-485.9 770.4891,-485.9 770.4891,-449.9 681.1763,-449.9"/>
<text text-anchor="middle" x="725.8327" y="-461.6" font-family="Times,serif" font-size="22.00" fill="#000000">SQLNet</text>
</g>
<!-- Sketch&#45;based&#45;&#45;SQLNet -->
<g id="edge32" class="edge">
<title>Sketch-based--SQLNet</title>
<path fill="none" stroke="#000000" d="M410.715,-397.8031C488.4117,-415.0865 614.3336,-443.0974 681.0439,-457.9369"/>
</g>
<!-- Coarse2Fine -->
<g id="node32" class="node">
<title>Coarse2Fine</title>
<polygon fill="none" stroke="#000000" points="662.2365,-394.9 662.2365,-430.9 789.4289,-430.9 789.4289,-394.9 662.2365,-394.9"/>
<text text-anchor="middle" x="725.8327" y="-406.6" font-family="Times,serif" font-size="22.00" fill="#000000">Coarse2Fine</text>
</g>
<!-- Sketch&#45;based&#45;&#45;Coarse2Fine -->
<g id="edge33" class="edge">
<title>Sketch-based--Coarse2Fine</title>
<path fill="none" stroke="#000000" d="M410.715,-388.1599C481.5624,-393.7222 592.5072,-402.4325 662.0947,-407.8959"/>
</g>
<!-- IRNet -->
<g id="node33" class="node">
<title>IRNet</title>
<polygon fill="none" stroke="#000000" points="690.9542,-284.9 690.9542,-320.9 760.7112,-320.9 760.7112,-284.9 690.9542,-284.9"/>
<text text-anchor="middle" x="725.8327" y="-296.6" font-family="Times,serif" font-size="22.00" fill="#000000">IRNet</text>
</g>
<!-- Sketch&#45;based&#45;&#45;IRNet -->
<g id="edge34" class="edge">
<title>Sketch-based--IRNet</title>
<path fill="none" stroke="#000000" d="M410.715,-368.8735C492.2644,-351.8002 626.9403,-323.6043 690.5179,-310.2936"/>
</g>
<!-- RYANNet -->
<g id="node34" class="node">
<title>RYANNet</title>
<polygon fill="none" stroke="#000000" points="670.7934,-339.9 670.7934,-375.9 780.872,-375.9 780.872,-339.9 670.7934,-339.9"/>
<text text-anchor="middle" x="725.8327" y="-351.6" font-family="Times,serif" font-size="22.00" fill="#000000">RYANNet</text>
</g>
<!-- Sketch&#45;based&#45;&#45;RYANNet -->
<g id="edge35" class="edge">
<title>Sketch-based--RYANNet</title>
<path fill="none" stroke="#000000" d="M410.715,-378.5167C484.5589,-373.6854 601.964,-366.0042 670.6964,-361.5073"/>
</g>
<!-- SmBop -->
<g id="node36" class="node">
<title>SmBop</title>
<polygon fill="none" stroke="#000000" points="684.825,-119.9 684.825,-155.9 766.8404,-155.9 766.8404,-119.9 684.825,-119.9"/>
<text text-anchor="middle" x="725.8327" y="-131.6" font-family="Times,serif" font-size="22.00" fill="#000000">SmBop</text>
</g>
<!-- Bottom&#45;up&#45;&#45;SmBop -->
<g id="edge37" class="edge">
<title>Bottom-up--SmBop</title>
<path fill="none" stroke="#000000" d="M399.637,-203.8879C432.5582,-196.3405 475.0392,-186.797 512.9098,-178.9 572.426,-166.4893 641.5893,-153.4201 684.5413,-145.4625"/>
</g>
<!-- Self&#45;Attention&#45;&#45;Seq2Tree -->
<g id="edge40" class="edge">
<title>Self-Attention--Seq2Tree</title>
<path fill="none" stroke="#000000" d="M414.6957,-614.6174C490.5597,-632.4858 608.9022,-660.3592 675.6425,-676.0786"/>
</g>
<!-- Seq2SQL -->
<g id="node38" class="node">
<title>Seq2SQL</title>
<polygon fill="none" stroke="#000000" points="675.0592,-559.9 675.0592,-595.9 776.6062,-595.9 776.6062,-559.9 675.0592,-559.9"/>
<text text-anchor="middle" x="725.8327" y="-571.6" font-family="Times,serif" font-size="22.00" fill="#000000">Seq2SQL</text>
</g>
<!-- Self&#45;Attention&#45;&#45;Seq2SQL -->
<g id="edge39" class="edge">
<title>Self-Attention--Seq2SQL</title>
<path fill="none" stroke="#000000" d="M414.6957,-594.185C490.236,-590.2312 607.893,-584.073 674.7852,-580.5718"/>
</g>
<!-- BiSQL -->
<g id="node40" class="node">
<title>BiSQL</title>
<polygon fill="none" stroke="#000000" points="686.6642,-64.9 686.6642,-100.9 765.0012,-100.9 765.0012,-64.9 686.6642,-64.9"/>
<text text-anchor="middle" x="725.8327" y="-76.6" font-family="Times,serif" font-size="22.00" fill="#000000">BiSQL</text>
</g>
<!-- Bi&#45;attention&#45;&#45;BiSQL -->
<g id="edge42" class="edge">
<title>Bi-attention--BiSQL</title>
<path fill="none" stroke="#000000" d="M404.6882,-131.6456C483.9134,-119.6202 619.972,-98.9683 686.6632,-88.8454"/>
</g>
<!-- Relation&#45;aware \nSelf&#45;attention&#45;&#45;DuoRAT -->
<g id="edge44" class="edge">
<title>Relation-aware \nSelf-attention--DuoRAT</title>
<path fill="none" stroke="#000000" d="M421.9671,-942.2242C498.3878,-947.4241 612.3236,-955.1766 676.7729,-959.5618"/>
</g>
<!-- Copy\nMechanism&#45;&#45;Seq2AST -->
<g id="edge47" class="edge">
<title>Copy\nMechanism--Seq2AST</title>
<path fill="none" stroke="#000000" d="M403.4238,-543.4625C478.0439,-564.1624 604.4752,-599.235 674.7945,-618.7418"/>
</g>
<!-- Copy\nMechanism&#45;&#45;Seq2SQL -->
<g id="edge46" class="edge">
<title>Copy\nMechanism--Seq2SQL</title>
<path fill="none" stroke="#000000" d="M403.4238,-534.8688C478.0439,-544.8281 604.4752,-561.7027 674.7945,-571.088"/>
</g>
<!-- SeqGenSQL -->
<g id="node43" class="node">
<title>SeqGenSQL</title>
<polygon fill="none" stroke="#000000" points="662.2354,-504.9 662.2354,-540.9 789.43,-540.9 789.43,-504.9 662.2354,-504.9"/>
<text text-anchor="middle" x="725.8327" y="-516.6" font-family="Times,serif" font-size="22.00" fill="#000000">SeqGenSQL</text>
</g>
<!-- Copy\nMechanism&#45;&#45;SeqGenSQL -->
<g id="edge48" class="edge">
<title>Copy\nMechanism--SeqGenSQL</title>
<path fill="none" stroke="#000000" d="M403.4238,-526.275C473.7409,-525.5389 590.0661,-524.3212 662.0905,-523.5673"/>
</g>
<!-- Intermediate\nRepresentation&#45;&#45;IRNet -->
<g id="edge51" class="edge">
<title>Intermediate\nRepresentation--IRNet</title>
<path fill="none" stroke="#000000" d="M417.847,-296.452C500.1026,-298.1741 629.3412,-300.8798 690.9342,-302.1694"/>
</g>
<!-- IncSQL -->
<g id="node45" class="node">
<title>IncSQL</title>
<polygon fill="none" stroke="#000000" points="683.0122,-229.9 683.0122,-265.9 768.6532,-265.9 768.6532,-229.9 683.0122,-229.9"/>
<text text-anchor="middle" x="725.8327" y="-241.6" font-family="Times,serif" font-size="22.00" fill="#000000">IncSQL</text>
</g>
<!-- Intermediate\nRepresentation&#45;&#45;IncSQL -->
<g id="edge50" class="edge">
<title>Intermediate\nRepresentation--IncSQL</title>
<path fill="none" stroke="#000000" d="M417.847,-285.7822C496.63,-276.0919 618.5129,-261.1003 682.7804,-253.1954"/>
</g>
<!-- ValueNet -->
<g id="node46" class="node">
<title>ValueNet</title>
<polygon fill="none" stroke="#000000" points="675.6884,-174.9 675.6884,-210.9 775.977,-210.9 775.977,-174.9 675.6884,-174.9"/>
<text text-anchor="middle" x="725.8327" y="-186.6" font-family="Times,serif" font-size="22.00" fill="#000000">ValueNet</text>
</g>
<!-- Intermediate\nRepresentation&#45;&#45;ValueNet -->
<g id="edge52" class="edge">
<title>Intermediate\nRepresentation--ValueNet</title>
<path fill="none" stroke="#000000" d="M417.847,-275.1124C493.8086,-254.8356 609.8383,-223.8631 675.6586,-206.2933"/>
</g>
<!-- PICARD -->
<g id="node48" class="node">
<title>PICARD</title>
<polygon fill="none" stroke="#000000" points="677.5023,-9.9 677.5023,-45.9 774.1631,-45.9 774.1631,-9.9 677.5023,-9.9"/>
<text text-anchor="middle" x="725.8327" y="-21.6" font-family="Times,serif" font-size="22.00" fill="#000000">PICARD</text>
</g>
<!-- Constrained\nDecoding&#45;&#45;PICARD -->
<g id="edge54" class="edge">
<title>Constrained\nDecoding--PICARD</title>
<path fill="none" stroke="#000000" d="M405.1118,-30.418C480.8487,-29.8234 608.0563,-28.8247 677.3195,-28.2809"/>
</g>
</g>
</svg>