<?xml version="1.0" encoding="UTF-8" standalone="no"?><!DOCTYPE svg PUBLIC "-//W3C//DTD SVG 1.1//EN" "http://www.w3.org/Graphics/SVG/1.1/DTD/svg11.dtd"><!-- Generated by graphviz version 2.40.1 (20161225.0304)
 --><!-- Title: G Pages: 1 --><svg xmlns="http://www.w3.org/2000/svg" xmlns:xlink="http://www.w3.org/1999/xlink" width="684pt" height="122pt" viewBox="0.00 0.00 683.63 122.20">
<g id="graph0" class="graph" transform="scale(1 1) rotate(0) translate(4 118.2)">
<title>G</title>
<polygon fill="#ffffff" stroke="transparent" points="-4,4 -4,-118.2 679.6348,-118.2 679.6348,4 -4,4"/>
<!-- Datasets -->
<g id="node1" class="node">
<title>Datasets</title>
<polygon fill="none" stroke="#000000" points="63.6326,-94.6222 -.2118,-94.6222 -.2118,-30.7778 63.6326,-30.7778 63.6326,-94.6222"/>
<text text-anchor="middle" x="31.7104" y="-58.5" font-family="Times,serif" font-size="14.00" fill="#000000">Datasets</text>
</g>
<!-- Single Domain -->
<g id="node3" class="node">
<title>Single Domain</title>
<polygon fill="none" stroke="#000000" points="99.4208,-75.7 99.4208,-111.7 199.8016,-111.7 199.8016,-75.7 99.4208,-75.7"/>
<text text-anchor="middle" x="149.6112" y="-89.6" font-family="Times,serif" font-size="14.00" fill="#000000">Single Domain</text>
</g>
<!-- Datasets&#45;&#45;Single Domain -->
<g id="edge1" class="edge">
<title>Datasets--Single Domain</title>
<path fill="none" stroke="#000000" d="M63.6161,-71.089C74.5276,-73.958 87.0173,-77.242 99.0334,-80.4014"/>
</g>
<!-- Large Scale \nCross&#45;Domain -->
<g id="node5" class="node">
<title>Large Scale \nCross-Domain</title>
<polygon fill="none" stroke="#000000" points="100.7865,-12.9 100.7865,-54.5 198.4359,-54.5 198.4359,-12.9 100.7865,-12.9"/>
<text text-anchor="middle" x="149.6112" y="-37.9" font-family="Times,serif" font-size="14.00" fill="#000000">Large Scale </text>
<text text-anchor="middle" x="149.6112" y="-21.1" font-family="Times,serif" font-size="14.00" fill="#000000">Cross-Domain</text>
</g>
<!-- Datasets&#45;&#45;Large Scale \nCross&#45;Domain -->
<g id="edge3" class="edge">
<title>Datasets--Large Scale \nCross-Domain</title>
<path fill="none" stroke="#000000" d="M63.6161,-54.8522C74.9367,-52.0676 87.9563,-48.8652 100.3831,-45.8086"/>
</g>
<!-- db -->
<g id="node2" class="node">
<title>db</title>
<polygon fill="none" stroke="#000000" points="235.8016,-77.7 235.8016,-113.7 675.6348,-113.7 675.6348,-77.7 235.8016,-77.7"/>
<text text-anchor="middle" x="259.3528" y="-91.6" font-family="Times,serif" font-size="14.00" fill="#000000">ATIS</text>
<polyline fill="none" stroke="#000000" points="282.904,-77.9 282.904,-113.7 "/>
<text text-anchor="middle" x="320.0555" y="-91.6" font-family="Times,serif" font-size="14.00" fill="#000000">GeoQuery</text>
<polyline fill="none" stroke="#000000" points="357.207,-77.9 357.207,-113.7 "/>
<text text-anchor="middle" x="383.4812" y="-91.6" font-family="Times,serif" font-size="14.00" fill="#000000">IMDB</text>
<polyline fill="none" stroke="#000000" points="409.7554,-77.9 409.7554,-113.7 "/>
<text text-anchor="middle" x="431.3613" y="-91.6" font-family="Times,serif" font-size="14.00" fill="#000000">Yelp</text>
<polyline fill="none" stroke="#000000" points="452.9672,-77.9 452.9672,-113.7 "/>
<text text-anchor="middle" x="486.6334" y="-91.6" font-family="Times,serif" font-size="14.00" fill="#000000">Advising</text>
<polyline fill="none" stroke="#000000" points="520.2996,-77.9 520.2996,-113.7 "/>
<text text-anchor="middle" x="543.4665" y="-91.6" font-family="Times,serif" font-size="14.00" fill="#000000">MAS</text>
<polyline fill="none" stroke="#000000" points="566.6334,-77.9 566.6334,-113.7 "/>
<text text-anchor="middle" x="592.1306" y="-91.6" font-family="Times,serif" font-size="14.00" fill="#000000">SEDE</text>
<polyline fill="none" stroke="#000000" points="617.6278,-77.9 617.6278,-113.7 "/>
<text text-anchor="middle" x="646.6313" y="-91.6" font-family="Times,serif" font-size="14.00" fill="#000000">SEOSS</text>
</g>
<!-- Single Domain&#45;&#45;db -->
<g id="edge2" class="edge">
<title>Single Domain--db</title>
<path fill="none" stroke="#000000" d="M199.8158,-94.028C210.671,-94.0989 222.8109,-94.1783 235.7447,-94.2628"/>
</g>
<!-- ds -->
<g id="node4" class="node">
<title>ds</title>
<polygon fill="none" stroke="#000000" points="320.8963,-.5 320.8963,-58.9 590.5401,-58.9 590.5401,-.5 320.8963,-.5"/>
<text text-anchor="middle" x="356.1151" y="-25.5" font-family="Times,serif" font-size="14.00" fill="#000000">WikiSQL</text>
<polyline fill="none" stroke="#000000" points="391.3339,-.5 391.3339,-58.9 "/>
<text text-anchor="middle" x="423.4447" y="-25.5" font-family="Times,serif" font-size="14.00" fill="#000000">SPIDER</text>
<polyline fill="none" stroke="#000000" points="455.5555,-.5 455.5555,-58.9 "/>
<text text-anchor="middle" x="523.0478" y="-42.3" font-family="Times,serif" font-size="14.00" fill="#000000">Conversational</text>
<text text-anchor="middle" x="523.0478" y="-25.5" font-family="Times,serif" font-size="14.00" fill="#000000">Datasets</text>
<text text-anchor="middle" x="523.0478" y="-8.7" font-family="Times,serif" font-size="14.00" fill="#000000">(CSpider, CoSQL,...)</text>
</g>
<!-- Large Scale \nCross&#45;Domain&#45;&#45;ds -->
<g id="edge4" class="edge">
<title>Large Scale \nCross-Domain--ds</title>
<path fill="none" stroke="#000000" d="M198.4532,-33.0618C231.6212,-32.6283 277.2237,-32.0324 320.8309,-31.4626"/>
</g>
</g>
</svg>