<svg width="2536" height="1909" xmlns="http://www.w3.org/2000/svg" xmlns:xlink="http://www.w3.org/1999/xlink" xml:space="preserve" overflow="hidden"><defs><clipPath id="clip0"><rect x="1371" y="49" width="2536" height="1909"/></clipPath><clipPath id="clip1"><rect x="1371" y="49" width="2534" height="1906"/></clipPath><clipPath id="clip2"><rect x="1371" y="49" width="2534" height="1906"/></clipPath><clipPath id="clip3"><rect x="1371" y="49" width="2534" height="1906"/></clipPath><clipPath id="clip4"><rect x="1371" y="49" width="2534" height="1906"/></clipPath><clipPath id="clip5"><rect x="1554" y="100" width="2304" height="1388"/></clipPath><clipPath id="clip6"><rect x="1371" y="49" width="2534" height="1906"/></clipPath><clipPath id="clip7"><rect x="1371" y="49" width="2534" height="1906"/></clipPath><clipPath id="clip8"><rect x="1371" y="49" width="2534" height="1906"/></clipPath><clipPath id="clip9"><rect x="1371" y="49" width="2534" height="1906"/></clipPath><clipPath id="clip10"><rect x="1371" y="49" width="2534" height="1906"/></clipPath><clipPath id="clip11"><rect x="1371" y="49" width="2534" height="1906"/></clipPath><clipPath id="clip12"><rect x="1371" y="49" width="2534" height="1906"/></clipPath><clipPath id="clip13"><rect x="1371" y="49" width="2534" height="1906"/></clipPath><clipPath id="clip14"><rect x="1371" y="49" width="2534" height="1906"/></clipPath><clipPath id="clip15"><rect x="1371" y="49" width="2534" height="1906"/></clipPath><clipPath id="clip16"><rect x="1371" y="49" width="2534" height="1906"/></clipPath><clipPath id="clip17"><rect x="1371" y="49" width="2534" height="1906"/></clipPath><clipPath id="clip18"><rect x="1371" y="49" width="2534" height="1906"/></clipPath><clipPath id="clip19"><rect x="1371" y="49" width="2534" height="1906"/></clipPath><clipPath id="clip20"><rect x="1371" y="49" width="2534" height="1906"/></clipPath><clipPath id="clip21"><rect x="1371" y="49" width="2534" height="1906"/></clipPath><clipPath id="clip22"><rect x="1371" y="49" width="2534" height="1906"/></clipPath><clipPath id="clip23"><rect x="1371" y="49" width="2534" height="1906"/></clipPath><clipPath id="clip24"><rect x="1371" y="49" width="2534" height="1906"/></clipPath><clipPath id="clip25"><rect x="1371" y="49" width="2534" height="1906"/></clipPath><clipPath id="clip26"><rect x="1371" y="49" width="2534" height="1906"/></clipPath><clipPath id="clip27"><rect x="1371" y="49" width="2534" height="1906"/></clipPath><clipPath id="clip28"><rect x="1371" y="49" width="2534" height="1906"/></clipPath><clipPath id="clip29"><rect x="1371" y="49" width="2534" height="1906"/></clipPath><clipPath id="clip30"><rect x="1371" y="49" width="2534" height="1906"/></clipPath><clipPath id="clip31"><rect x="1371" y="49" width="2534" height="1906"/></clipPath><clipPath id="clip32"><rect x="1371" y="49" width="2534" height="1906"/></clipPath><clipPath id="clip33"><rect x="1371" y="49" width="2534" height="1906"/></clipPath><clipPath id="clip34"><rect x="1371" y="49" width="2534" height="1906"/></clipPath><clipPath id="clip35"><rect x="1371" y="49" width="2534" height="1906"/></clipPath><clipPath id="clip36"><rect x="1371" y="49" width="2534" height="1906"/></clipPath><clipPath id="clip37"><rect x="1371" y="49" width="2534" height="1906"/></clipPath><clipPath id="clip38"><rect x="1371" y="49" width="2534" height="1906"/></clipPath><clipPath id="clip39"><rect x="1371" y="49" width="2534" height="1906"/></clipPath></defs><g clip-path="url(#clip0)" transform="translate(-1371 -49)"><rect x="1372" y="49.9998" width="2533" height="1906" fill="#FFFFFF"/><g clip-path="url(#clip1)"><path d="M1554.5 1346.54 3854.5 1346.54M1554.5 1207.54 3854.5 1207.54M1554.5 1069.54 3854.5 1069.54M1554.5 930.531 3854.5 930.531M1554.5 792.526 3854.5 792.526M1554.5 654.522 3854.5 654.522M1554.5 515.517 3854.5 515.517M1554.5 377.513 3854.5 377.513M1554.5 238.508 3854.5 238.508M1554.5 100.5 3854.5 100.5" stroke="#D9D9D9" stroke-width="3.4375" stroke-linejoin="round" stroke-miterlimit="10" fill="none"/></g><g clip-path="url(#clip2)"><path d="M1554.5 1484.5 3854.5 1484.5" stroke="#D9D9D9" stroke-width="3.4375" stroke-linejoin="round" stroke-miterlimit="10" fill="none" fill-rule="evenodd"/></g><g clip-path="url(#clip3)"><path d="M1554.5 1484.5 1554.5 1853.5M1763.56 1484.5 1763.56 1853.5M1972.56 1484.5 1972.56 1853.5M2181.57 1484.5 2181.57 1853.5M2390.58 1484.5 2390.58 1853.5M2599.59 1484.5 2599.59 1853.5M2809.59 1484.5 2809.59 1853.5M3018.6 1484.5 3018.6 1853.5M3227.61 1484.5 3227.61 1853.5M3436.61 1484.5 3436.61 1853.5M3645.62 1484.5 3645.62 1853.5M3854.5 1484.5 3854.5 1853.5" stroke="#D9D9D9" stroke-width="3.4375" stroke-linejoin="round" stroke-miterlimit="10" fill="none"/></g><g clip-path="url(#clip4)"><path d="M1554.5 1853.5 1554.5 1933.5M1763.56 1853.5 1763.56 1933.5M1972.56 1853.5 1972.56 1933.5M2181.57 1853.5 2181.57 1933.5M2390.58 1853.5 2390.58 1933.5M2599.59 1853.5 2599.59 1933.5M2809.59 1853.5 2809.59 1933.5M3018.6 1853.5 3018.6 1933.5M3227.61 1853.5 3227.61 1933.5M3436.61 1853.5 3436.61 1933.5M3645.62 1853.5 3645.62 1933.5M3854.5 1853.5 3854.5 1933.5" stroke="#D9D9D9" stroke-width="3.4375" stroke-linejoin="round" stroke-miterlimit="10" fill="none"/></g><g clip-path="url(#clip5)"><path d="M1659 1418 1868.06 1371.04 2077.07 1313.04 2286.07 1212.04 2495.08 1029.03 2704.09 838.027 2914.1 745.024 3123.1 741.024 3332.11 727.024 3541.12 576.019 3750 489" stroke="#4472C4" stroke-width="10.3125" stroke-linecap="round" stroke-linejoin="round" stroke-miterlimit="10" fill="none"/></g><g clip-path="url(#clip6)"><path d="M1670.06 1418.34C1670.06 1424.42 1665.14 1429.34 1659.06 1429.34 1652.99 1429.34 1648.06 1424.42 1648.06 1418.34 1648.06 1412.27 1652.99 1407.34 1659.06 1407.34 1665.14 1407.34 1670.06 1412.27 1670.06 1418.34Z" stroke="#4472C4" stroke-width="3.4375" stroke-linejoin="round" stroke-miterlimit="10" fill="#4472C4"/><path d="M1879.06 1371.34C1879.06 1377.42 1874.14 1382.34 1868.06 1382.34 1861.99 1382.34 1857.06 1377.42 1857.06 1371.34 1857.06 1365.27 1861.99 1360.34 1868.06 1360.34 1874.14 1360.34 1879.06 1365.27 1879.06 1371.34Z" stroke="#4472C4" stroke-width="3.4375" stroke-linejoin="round" stroke-miterlimit="10" fill="#4472C4"/><path d="M2088.06 1313.34C2088.06 1319.42 2083.14 1324.34 2077.06 1324.34 2070.99 1324.34 2066.06 1319.42 2066.06 1313.34 2066.06 1307.27 2070.99 1302.34 2077.06 1302.34 2083.14 1302.34 2088.06 1307.27 2088.06 1313.34Z" stroke="#4472C4" stroke-width="3.4375" stroke-linejoin="round" stroke-miterlimit="10" fill="#4472C4"/><path d="M2297.06 1211.34C2297.06 1217.42 2292.14 1222.34 2286.06 1222.34 2279.99 1222.34 2275.06 1217.42 2275.06 1211.34 2275.06 1205.27 2279.99 1200.34 2286.06 1200.34 2292.14 1200.34 2297.06 1205.27 2297.06 1211.34Z" stroke="#4472C4" stroke-width="3.4375" stroke-linejoin="round" stroke-miterlimit="10" fill="#4472C4"/><path d="M2506.06 1029.34C2506.06 1035.42 2501.14 1040.34 2495.06 1040.34 2488.99 1040.34 2484.06 1035.42 2484.06 1029.34 2484.06 1023.27 2488.99 1018.34 2495.06 1018.34 2501.14 1018.34 2506.06 1023.27 2506.06 1029.34Z" stroke="#4472C4" stroke-width="3.4375" stroke-linejoin="round" stroke-miterlimit="10" fill="#4472C4"/><path d="M2715.06 838.343C2715.06 844.417 2710.14 849.342 2704.06 849.342 2697.99 849.342 2693.06 844.417 2693.06 838.343 2693.06 832.268 2697.99 827.343 2704.06 827.343 2710.14 827.343 2715.06 832.268 2715.06 838.343Z" stroke="#4472C4" stroke-width="3.4375" stroke-linejoin="round" stroke-miterlimit="10" fill="#4472C4"/><path d="M2924.06 745.343C2924.06 751.418 2919.14 756.342 2913.06 756.342 2906.99 756.342 2902.06 751.418 2902.06 745.343 2902.06 739.268 2906.99 734.343 2913.06 734.343 2919.14 734.343 2924.06 739.268 2924.06 745.343Z" stroke="#4472C4" stroke-width="3.4375" stroke-linejoin="round" stroke-miterlimit="10" fill="#4472C4"/><path d="M3133.06 741.343C3133.06 747.418 3128.14 752.342 3122.06 752.342 3115.99 752.342 3111.06 747.418 3111.06 741.343 3111.06 735.268 3115.99 730.343 3122.06 730.343 3128.14 730.343 3133.06 735.268 3133.06 741.343Z" stroke="#4472C4" stroke-width="3.4375" stroke-linejoin="round" stroke-miterlimit="10" fill="#4472C4"/><path d="M3342.06 727.343C3342.06 733.417 3337.14 738.342 3331.06 738.342 3324.99 738.342 3320.06 733.417 3320.06 727.343 3320.06 721.268 3324.99 716.343 3331.06 716.343 3337.14 716.343 3342.06 721.268 3342.06 727.343Z" stroke="#4472C4" stroke-width="3.4375" stroke-linejoin="round" stroke-miterlimit="10" fill="#4472C4"/><path d="M3551.06 576.343C3551.06 582.418 3546.14 587.342 3540.06 587.342 3533.99 587.342 3529.06 582.418 3529.06 576.343 3529.06 570.268 3533.99 565.343 3540.06 565.343 3546.14 565.343 3551.06 570.268 3551.06 576.343Z" stroke="#4472C4" stroke-width="3.4375" stroke-linejoin="round" stroke-miterlimit="10" fill="#4472C4"/><path d="M3761.06 489.343C3761.06 495.418 3756.14 500.342 3750.06 500.342 3743.99 500.342 3739.06 495.418 3739.06 489.343 3739.06 483.268 3743.99 478.343 3750.06 478.343 3756.14 478.343 3761.06 483.268 3761.06 489.343Z" stroke="#4472C4" stroke-width="3.4375" stroke-linejoin="round" stroke-miterlimit="10" fill="#4472C4"/></g><g clip-path="url(#clip7)"><text fill="#595959" font-family="Calibri,Calibri_MSFontService,sans-serif" font-weight="400" font-size="41" transform="matrix(1 0 0 1 1443.15 1496)">0.00</text></g><g clip-path="url(#clip8)"><text fill="#595959" font-family="Calibri,Calibri_MSFontService,sans-serif" font-weight="400" font-size="41" transform="matrix(1 0 0 1 1422.25 1358)">10.00</text></g><g clip-path="url(#clip9)"><text fill="#595959" font-family="Calibri,Calibri_MSFontService,sans-serif" font-weight="400" font-size="41" transform="matrix(1 0 0 1 1422.25 1219)">20.00</text></g><g clip-path="url(#clip10)"><text fill="#595959" font-family="Calibri,Calibri_MSFontService,sans-serif" font-weight="400" font-size="41" transform="matrix(1 0 0 1 1422.25 1081)">30.00</text></g><g clip-path="url(#clip11)"><text fill="#595959" font-family="Calibri,Calibri_MSFontService,sans-serif" font-weight="400" font-size="41" transform="matrix(1 0 0 1 1422.25 942)">40.00</text></g><g clip-path="url(#clip12)"><text fill="#595959" font-family="Calibri,Calibri_MSFontService,sans-serif" font-weight="400" font-size="41" transform="matrix(1 0 0 1 1422.25 804)">50.00</text></g><g clip-path="url(#clip13)"><text fill="#595959" font-family="Calibri,Calibri_MSFontService,sans-serif" font-weight="400" font-size="41" transform="matrix(1 0 0 1 1422.25 666)">60.00</text></g><g clip-path="url(#clip14)"><text fill="#595959" font-family="Calibri,Calibri_MSFontService,sans-serif" font-weight="400" font-size="41" transform="matrix(1 0 0 1 1422.25 527)">70.00</text></g><g clip-path="url(#clip15)"><text fill="#595959" font-family="Calibri,Calibri_MSFontService,sans-serif" font-weight="400" font-size="41" transform="matrix(1 0 0 1 1422.25 389)">80.00</text></g><g clip-path="url(#clip16)"><text fill="#595959" font-family="Calibri,Calibri_MSFontService,sans-serif" font-weight="400" font-size="41" transform="matrix(1 0 0 1 1422.25 250)">90.00</text></g><g clip-path="url(#clip17)"><text fill="#595959" font-family="Calibri,Calibri_MSFontService,sans-serif" font-weight="400" font-size="41" transform="matrix(1 0 0 1 1401.35 112)">100.00</text></g><g clip-path="url(#clip18)"><text fill="#595959" font-family="Calibri,Calibri_MSFontService,sans-serif" font-weight="400" font-size="41" transform="matrix(6.12323e-17 -1 1 6.12323e-17 1672.9 1850)">Seq2Seq + attention</text></g><g clip-path="url(#clip19)"><text fill="#595959" font-family="Calibri,Calibri_MSFontService,sans-serif" font-weight="400" font-size="41" transform="matrix(6.12323e-17 -1 1 6.12323e-17 1882 1656)">TypeSQL</text></g><g clip-path="url(#clip20)"><text fill="#595959" font-family="Calibri,Calibri_MSFontService,sans-serif" font-weight="400" font-size="41" transform="matrix(6.12323e-17 -1 1 6.12323e-17 2091.09 1636)">SQLNet</text></g><g clip-path="url(#clip21)"><text fill="#595959" font-family="Calibri,Calibri_MSFontService,sans-serif" font-weight="400" font-size="41" transform="matrix(6.12323e-17 -1 1 6.12323e-17 2300.19 1747)">SyntaxSQLNet</text></g><g clip-path="url(#clip22)"><text fill="#595959" font-family="Calibri,Calibri_MSFontService,sans-serif" font-weight="400" font-size="41" transform="matrix(6.12323e-17 -1 1 6.12323e-17 2509.28 1640)">EditSQL</text></g><g clip-path="url(#clip23)"><text fill="#595959" font-family="Calibri,Calibri_MSFontService,sans-serif" font-weight="400" font-size="41" transform="matrix(6.12323e-17 -1 1 6.12323e-17 2718.38 1605)">IRNet</text></g><g clip-path="url(#clip24)"><text fill="#595959" font-family="Calibri,Calibri_MSFontService,sans-serif" font-weight="400" font-size="41" transform="matrix(6.12323e-17 -1 1 6.12323e-17 2927.48 1746)">EditSQL+BERT</text></g><g clip-path="url(#clip25)"><text fill="#595959" font-family="Calibri,Calibri_MSFontService,sans-serif" font-weight="400" font-size="41" transform="matrix(6.12323e-17 -1 1 6.12323e-17 3136.57 1641)">RATSQL</text></g><g clip-path="url(#clip26)"><text fill="#595959" font-family="Calibri,Calibri_MSFontService,sans-serif" font-weight="400" font-size="41" transform="matrix(6.12323e-17 -1 1 6.12323e-17 3345.67 1710)">IRNet+BERT</text></g><g clip-path="url(#clip27)"><text fill="#595959" font-family="Calibri,Calibri_MSFontService,sans-serif" font-weight="400" font-size="41" transform="matrix(6.12323e-17 -1 1 6.12323e-17 3554.76 1756)">RATSQL+BERT</text></g><g clip-path="url(#clip28)"><text fill="#595959" font-family="Calibri,Calibri_MSFontService,sans-serif" font-weight="400" font-size="41" transform="matrix(6.12323e-17 -1 1 6.12323e-17 3763.86 1754)">T5-3B+PICARD</text></g><g clip-path="url(#clip29)"><text fill="#595959" font-family="Calibri,Calibri_MSFontService,sans-serif" font-weight="400" font-size="41" transform="matrix(1 0 0 1 1580.45 1918)">1/6/2016</text></g><g clip-path="url(#clip30)"><text fill="#595959" font-family="Calibri,Calibri_MSFontService,sans-serif" font-weight="400" font-size="41" transform="matrix(1 0 0 1 1779.09 1918)">4/25/2018</text></g><g clip-path="url(#clip31)"><text fill="#595959" font-family="Calibri,Calibri_MSFontService,sans-serif" font-weight="400" font-size="41" transform="matrix(1 0 0 1 1988.19 1918)">9/20/2018</text></g><g clip-path="url(#clip32)"><text fill="#595959" font-family="Calibri,Calibri_MSFontService,sans-serif" font-weight="400" font-size="41" transform="matrix(1 0 0 1 2186.83 1918)">10/11/2018</text></g><g clip-path="url(#clip33)"><text fill="#595959" font-family="Calibri,Calibri_MSFontService,sans-serif" font-weight="400" font-size="41" transform="matrix(1 0 0 1 2416.83 1918)">9/1/2019</text></g><g clip-path="url(#clip34)"><text fill="#595959" font-family="Calibri,Calibri_MSFontService,sans-serif" font-weight="400" font-size="41" transform="matrix(1 0 0 1 2615.48 1918)">5/19/2019</text></g><g clip-path="url(#clip35)"><text fill="#595959" font-family="Calibri,Calibri_MSFontService,sans-serif" font-weight="400" font-size="41" transform="matrix(1 0 0 1 2835.02 1918)">9/1/2019</text></g><g clip-path="url(#clip36)"><text fill="#595959" font-family="Calibri,Calibri_MSFontService,sans-serif" font-weight="400" font-size="41" transform="matrix(1 0 0 1 3033.67 1918)">9/19/2019</text></g><g clip-path="url(#clip37)"><text fill="#595959" font-family="Calibri,Calibri_MSFontService,sans-serif" font-weight="400" font-size="41" transform="matrix(1 0 0 1 3242.77 1918)">5/19/2019</text></g><g clip-path="url(#clip38)"><text fill="#595959" font-family="Calibri,Calibri_MSFontService,sans-serif" font-weight="400" font-size="41" transform="matrix(1 0 0 1 3462.31 1918)">5/2/2020</text></g><g clip-path="url(#clip39)"><text fill="#595959" font-family="Calibri,Calibri_MSFontService,sans-serif" font-weight="400" font-size="41" transform="matrix(1 0 0 1 3660.96 1918)">7/14/2021</text></g><rect x="1372.5" y="50.5" width="2533" height="1906" stroke="#D9D9D9" stroke-width="3.4375" stroke-linejoin="round" stroke-miterlimit="10" fill="none"/></g></svg>