<?xml version="1.0" encoding="UTF-8" standalone="no"?><!DOCTYPE svg PUBLIC "-//W3C//DTD SVG 1.1//EN" "http://www.w3.org/Graphics/SVG/1.1/DTD/svg11.dtd"><!-- Generated by graphviz version 2.40.1 (20161225.0304)
 --><!-- Title: beam_search Pages: 1 --><svg xmlns="http://www.w3.org/2000/svg" xmlns:xlink="http://www.w3.org/1999/xlink" width="787pt" height="156pt" viewBox="0.00 0.00 787.49 156.00">
<g id="graph0" class="graph" transform="scale(1 1) rotate(0) translate(4 152)">
<title>beam_search</title>
<polygon fill="#ffffff" stroke="transparent" points="-4,4 -4,-152 783.4906,-152 783.4906,4 -4,4"/>
<!-- s -->
<g id="node1" class="node">
<title>s</title>
<path fill="none" stroke="#000000" d="M42,-56C42,-56 12,-56 12,-56 6,-56 0,-50 0,-44 0,-44 0,-32 0,-32 0,-26 6,-20 12,-20 12,-20 42,-20 42,-20 48,-20 54,-26 54,-32 54,-32 54,-44 54,-44 54,-50 48,-56 42,-56"/>
<text text-anchor="middle" x="27" y="-33.8" font-family="Times,serif" font-size="14.00" fill="#000000">&lt;s&gt;</text>
</g>
<!-- s1_SELECT -->
<g id="node2" class="node">
<title>s1_SELECT</title>
<path fill="none" stroke="#000000" d="M192.9768,-90C192.9768,-90 119.674,-90 119.674,-90 113.674,-90 107.674,-84 107.674,-78 107.674,-78 107.674,-66 107.674,-66 107.674,-60 113.674,-54 119.674,-54 119.674,-54 192.9768,-54 192.9768,-54 198.9768,-54 204.9768,-60 204.9768,-66 204.9768,-66 204.9768,-78 204.9768,-78 204.9768,-84 198.9768,-90 192.9768,-90"/>
<text text-anchor="middle" x="156.3254" y="-67.8" font-family="Times,serif" font-size="14.00" fill="#000000">SELECT (0.7)</text>
</g>
<!-- s&#45;&gt;s1_SELECT -->
<g id="edge1" class="edge">
<title>s-&gt;s1_SELECT</title>
<path fill="none" stroke="#000000" d="M54.1108,-45.1275C66.8093,-48.466 82.4645,-52.5818 97.6725,-56.58"/>
<polygon fill="#000000" stroke="#000000" points="97.0049,-60.0233 107.5662,-59.1811 98.7848,-53.2534 97.0049,-60.0233"/>
<text text-anchor="middle" x="80.75" y="-58.2" font-family="Times,serif" font-size="14.00" fill="#000000">0.7</text>
</g>
<!-- s1_FROM -->
<g id="node3" class="node">
<title>s1_FROM</title>
<path fill="none" stroke="#ff0000" d="M187.317,-36C187.317,-36 125.3338,-36 125.3338,-36 119.3338,-36 113.3338,-30 113.3338,-24 113.3338,-24 113.3338,-12 113.3338,-12 113.3338,-6 119.3338,0 125.3338,0 125.3338,0 187.317,0 187.317,0 193.317,0 199.317,-6 199.317,-12 199.317,-12 199.317,-24 199.317,-24 199.317,-30 193.317,-36 187.317,-36"/>
<text text-anchor="middle" x="156.3254" y="-13.8" font-family="Times,serif" font-size="14.00" fill="#000000">FROM (0.3)</text>
</g>
<!-- s&#45;&gt;s1_FROM -->
<g id="edge2" class="edge">
<title>s-&gt;s1_FROM</title>
<path fill="none" stroke="#000000" d="M54.4515,-30.0593C60.2113,-28.6028 66.2754,-27.2222 72,-26.2 81.9911,-24.416 92.7224,-22.998 103.069,-21.8783"/>
<polygon fill="#000000" stroke="#000000" points="103.6459,-25.3381 113.2457,-20.8555 102.9458,-18.3731 103.6459,-25.3381"/>
<text text-anchor="middle" x="80.75" y="-31.2" font-family="Times,serif" font-size="14.00" fill="#000000">0.3</text>
</g>
<!-- s2_SELECT_FROM -->
<g id="node4" class="node">
<title>s2_SELECT_FROM</title>
<path fill="none" stroke="#00ff00" d="M427.6792,-121C427.6792,-121 300.0362,-121 300.0362,-121 294.0362,-121 288.0362,-115 288.0362,-109 288.0362,-109 288.0362,-97 288.0362,-97 288.0362,-91 294.0362,-85 300.0362,-85 300.0362,-85 427.6792,-85 427.6792,-85 433.6792,-85 439.6792,-91 439.6792,-97 439.6792,-97 439.6792,-109 439.6792,-109 439.6792,-115 433.6792,-121 427.6792,-121"/>
<text text-anchor="middle" x="363.8577" y="-98.8" font-family="Times,serif" font-size="14.00" fill="#000000">SELECT * FROM (0.8)</text>
</g>
<!-- s1_SELECT&#45;&gt;s2_SELECT_FROM -->
<g id="edge3" class="edge">
<title>s1_SELECT-&gt;s2_SELECT_FROM</title>
<path fill="none" stroke="#000000" d="M204.9825,-79.2681C226.6738,-82.5082 252.8912,-86.4245 277.7212,-90.1334"/>
<polygon fill="#000000" stroke="#000000" points="277.4824,-93.6365 287.8897,-91.6523 278.5166,-86.7133 277.4824,-93.6365"/>
<text text-anchor="middle" x="244.1508" y="-91.2" font-family="Times,serif" font-size="14.00" fill="#000000">0.7*0.8</text>
</g>
<!-- s2_SELECT_WHERE -->
<g id="node5" class="node">
<title>s2_SELECT_WHERE</title>
<path fill="none" stroke="#ff0000" d="M432.772,-67C432.772,-67 294.9434,-67 294.9434,-67 288.9434,-67 282.9434,-61 282.9434,-55 282.9434,-55 282.9434,-43 282.9434,-43 282.9434,-37 288.9434,-31 294.9434,-31 294.9434,-31 432.772,-31 432.772,-31 438.772,-31 444.772,-37 444.772,-43 444.772,-43 444.772,-55 444.772,-55 444.772,-61 438.772,-67 432.772,-67"/>
<text text-anchor="middle" x="363.8577" y="-44.8" font-family="Times,serif" font-size="14.00" fill="#000000">SELECT * WHERE (0.2)</text>
</g>
<!-- s1_SELECT&#45;&gt;s2_SELECT_WHERE -->
<g id="edge4" class="edge">
<title>s1_SELECT-&gt;s2_SELECT_WHERE</title>
<path fill="none" stroke="#000000" d="M205.0674,-60.2618C211.1307,-59.0807 217.266,-58.0178 223.1508,-57.2 239.1073,-54.9826 256.1627,-53.3633 272.6964,-52.1813"/>
<polygon fill="#000000" stroke="#000000" points="273.1641,-55.6579 282.9091,-51.5003 272.6983,-48.6734 273.1641,-55.6579"/>
<text text-anchor="middle" x="244.1508" y="-62.2" font-family="Times,serif" font-size="14.00" fill="#000000">0.7*0.2</text>
</g>
<!-- s3_SELECT_FROM_WHERE -->
<g id="node6" class="node">
<title>s3_SELECT_FROM_WHERE</title>
<path fill="none" stroke="#00ff00" d="M767.704,-148C767.704,-148 558.8512,-148 558.8512,-148 552.8512,-148 546.8512,-142 546.8512,-136 546.8512,-136 546.8512,-124 546.8512,-124 546.8512,-118 552.8512,-112 558.8512,-112 558.8512,-112 767.704,-112 767.704,-112 773.704,-112 779.704,-118 779.704,-124 779.704,-124 779.704,-136 779.704,-136 779.704,-142 773.704,-148 767.704,-148"/>
<text text-anchor="middle" x="663.2776" y="-125.8" font-family="Times,serif" font-size="14.00" fill="#000000">SELECT * FROM &lt;T&gt; WHERE (0.9)</text>
</g>
<!-- s2_SELECT_FROM&#45;&gt;s3_SELECT_FROM_WHERE -->
<g id="edge5" class="edge">
<title>s2_SELECT_FROM-&gt;s3_SELECT_FROM_WHERE</title>
<path fill="none" stroke="#000000" d="M439.8011,-109.8481C469.2408,-112.5029 503.7541,-115.6151 536.7309,-118.5887"/>
<polygon fill="#000000" stroke="#000000" points="536.6344,-122.0941 546.9084,-119.5065 537.2632,-115.1224 536.6344,-122.0941"/>
<text text-anchor="middle" x="495.8146" y="-121.2" font-family="Times,serif" font-size="14.00" fill="#000000">0.7*0.8*0.9</text>
</g>
<!-- s3_SELECT_FROM_GROUPBY -->
<g id="node7" class="node">
<title>s3_SELECT_FROM_GROUPBY</title>
<path fill="none" stroke="#ff0000" d="M762.6113,-94C762.6113,-94 563.9439,-94 563.9439,-94 557.9439,-94 551.9439,-88 551.9439,-82 551.9439,-82 551.9439,-70 551.9439,-70 551.9439,-64 557.9439,-58 563.9439,-58 563.9439,-58 762.6113,-58 762.6113,-58 768.6113,-58 774.6113,-64 774.6113,-70 774.6113,-70 774.6113,-82 774.6113,-82 774.6113,-88 768.6113,-94 762.6113,-94"/>
<text text-anchor="middle" x="663.2776" y="-71.8" font-family="Times,serif" font-size="14.00" fill="#000000">SELECT * FROM &lt;T&gt; FROM (0.1)</text>
</g>
<!-- s2_SELECT_FROM&#45;&gt;s3_SELECT_FROM_GROUPBY -->
<g id="edge6" class="edge">
<title>s2_SELECT_FROM-&gt;s3_SELECT_FROM_GROUPBY</title>
<path fill="none" stroke="#000000" d="M439.5378,-93.6137C447.3099,-92.7513 455.0926,-91.9292 462.5646,-91.2 488.2394,-88.6944 515.7964,-86.3699 542.0152,-84.3304"/>
<polygon fill="#000000" stroke="#000000" points="542.2896,-87.8198 551.9916,-83.563 541.7526,-80.8404 542.2896,-87.8198"/>
<text text-anchor="middle" x="495.8146" y="-95.2" font-family="Times,serif" font-size="14.00" fill="#000000">0.7*0.8*0.1</text>
</g>
</g>
</svg>