<svg width="2536" height="2029" xmlns="http://www.w3.org/2000/svg" xmlns:xlink="http://www.w3.org/1999/xlink" xml:space="preserve" overflow="hidden"><defs><clipPath id="clip0"><rect x="1371" y="49" width="2536" height="2029"/></clipPath><clipPath id="clip1"><rect x="1371" y="49" width="2534" height="2027"/></clipPath><clipPath id="clip2"><rect x="1371" y="49" width="2534" height="2027"/></clipPath><clipPath id="clip3"><rect x="1371" y="49" width="2534" height="2027"/></clipPath><clipPath id="clip4"><rect x="1371" y="49" width="2534" height="2027"/></clipPath><clipPath id="clip5"><rect x="1554" y="100" width="2304" height="1601"/></clipPath><clipPath id="clip6"><rect x="1371" y="49" width="2534" height="2027"/></clipPath><clipPath id="clip7"><rect x="1371" y="49" width="2534" height="2027"/></clipPath><clipPath id="clip8"><rect x="1371" y="49" width="2534" height="2027"/></clipPath><clipPath id="clip9"><rect x="1371" y="49" width="2534" height="2027"/></clipPath><clipPath id="clip10"><rect x="1371" y="49" width="2534" height="2027"/></clipPath><clipPath id="clip11"><rect x="1371" y="49" width="2534" height="2027"/></clipPath><clipPath id="clip12"><rect x="1371" y="49" width="2534" height="2027"/></clipPath><clipPath id="clip13"><rect x="1371" y="49" width="2534" height="2027"/></clipPath><clipPath id="clip14"><rect x="1371" y="49" width="2534" height="2027"/></clipPath><clipPath id="clip15"><rect x="1371" y="49" width="2534" height="2027"/></clipPath><clipPath id="clip16"><rect x="1371" y="49" width="2534" height="2027"/></clipPath><clipPath id="clip17"><rect x="1371" y="49" width="2534" height="2027"/></clipPath><clipPath id="clip18"><rect x="1371" y="49" width="2534" height="2027"/></clipPath><clipPath id="clip19"><rect x="1371" y="49" width="2534" height="2027"/></clipPath><clipPath id="clip20"><rect x="1371" y="49" width="2534" height="2027"/></clipPath><clipPath id="clip21"><rect x="1371" y="49" width="2534" height="2027"/></clipPath><clipPath id="clip22"><rect x="1371" y="49" width="2534" height="2027"/></clipPath><clipPath id="clip23"><rect x="1371" y="49" width="2534" height="2027"/></clipPath><clipPath id="clip24"><rect x="1371" y="49" width="2534" height="2027"/></clipPath><clipPath id="clip25"><rect x="1371" y="49" width="2534" height="2027"/></clipPath><clipPath id="clip26"><rect x="1371" y="49" width="2534" height="2027"/></clipPath><clipPath id="clip27"><rect x="1371" y="49" width="2534" height="2027"/></clipPath><clipPath id="clip28"><rect x="1371" y="49" width="2534" height="2027"/></clipPath><clipPath id="clip29"><rect x="1371" y="49" width="2534" height="2027"/></clipPath><clipPath id="clip30"><rect x="1371" y="49" width="2534" height="2027"/></clipPath><clipPath id="clip31"><rect x="1371" y="49" width="2534" height="2027"/></clipPath><clipPath id="clip32"><rect x="1371" y="49" width="2534" height="2027"/></clipPath><clipPath id="clip33"><rect x="1371" y="49" width="2534" height="2027"/></clipPath><clipPath id="clip34"><rect x="1371" y="49" width="2534" height="2027"/></clipPath><clipPath id="clip35"><rect x="1371" y="49" width="2534" height="2027"/></clipPath><clipPath id="clip36"><rect x="1371" y="49" width="2534" height="2027"/></clipPath><clipPath id="clip37"><rect x="1371" y="49" width="2534" height="2027"/></clipPath><clipPath id="clip38"><rect x="1371" y="49" width="2534" height="2027"/></clipPath><clipPath id="clip39"><rect x="1371" y="49" width="2534" height="2027"/></clipPath><clipPath id="clip40"><rect x="1371" y="49" width="2534" height="2027"/></clipPath><clipPath id="clip41"><rect x="1371" y="49" width="2534" height="2027"/></clipPath><clipPath id="clip42"><rect x="1371" y="49" width="2534" height="2027"/></clipPath><clipPath id="clip43"><rect x="1371" y="49" width="2534" height="2027"/></clipPath></defs><g clip-path="url(#clip0)" transform="translate(-1371 -49)"><rect x="1372" y="49.9998" width="2533" height="2026" fill="#FFFFFF"/><g clip-path="url(#clip1)"><path d="M1554.5 1538.55 3854.5 1538.55M1554.5 1378.55 3854.5 1378.55M1554.5 1218.54 3854.5 1218.54M1554.5 1059.53 3854.5 1059.53M1554.5 899.53 3854.5 899.53M1554.5 739.524 3854.5 739.524M1554.5 579.519 3854.5 579.519M1554.5 419.514 3854.5 419.514M1554.5 260.509 3854.5 260.509M1554.5 100.5 3854.5 100.5" stroke="#D9D9D9" stroke-width="3.4375" stroke-linejoin="round" stroke-miterlimit="10" fill="none"/></g><g clip-path="url(#clip2)"><path d="M1554.5 1698.5 3854.5 1698.5" stroke="#D9D9D9" stroke-width="3.4375" stroke-linejoin="round" stroke-miterlimit="10" fill="none" fill-rule="evenodd"/></g><g clip-path="url(#clip3)"><path d="M1554.5 1698.5 1554.5 1973.5M1731.56 1698.5 1731.56 1973.5M1908.56 1698.5 1908.56 1973.5M2085.57 1698.5 2085.57 1973.5M2262.57 1698.5 2262.57 1973.5M2439.58 1698.5 2439.58 1973.5M2616.59 1698.5 2616.59 1973.5M2792.59 1698.5 2792.59 1973.5M2969.6 1698.5 2969.6 1973.5M3146.6 1698.5 3146.6 1973.5M3323.61 1698.5 3323.61 1973.5M3500.61 1698.5 3500.61 1973.5M3677.62 1698.5 3677.62 1973.5M3854.5 1698.5 3854.5 1973.5" stroke="#D9D9D9" stroke-width="3.4375" stroke-linejoin="round" stroke-miterlimit="10" fill="none"/></g><g clip-path="url(#clip4)"><path d="M1554.5 1973.5 1554.5 2053.5M1731.56 1973.5 1731.56 2053.5M1908.56 1973.5 1908.56 2053.5M2085.57 1973.5 2085.57 2053.5M2262.57 1973.5 2262.57 2053.5M2439.58 1973.5 2439.58 2053.5M2616.59 1973.5 2616.59 2053.5M2792.59 1973.5 2792.59 2053.5M2969.6 1973.5 2969.6 2053.5M3146.6 1973.5 3146.6 2053.5M3323.61 1973.5 3323.61 2053.5M3500.61 1973.5 3500.61 2053.5M3677.62 1973.5 3677.62 2053.5M3854.5 1973.5 3854.5 2053.5" stroke="#D9D9D9" stroke-width="3.4375" stroke-linejoin="round" stroke-miterlimit="10" fill="none"/></g><g clip-path="url(#clip5)"><path d="M1643 1622 1820.06 1567.05 1997.07 1500.05 2174.07 1384.05 2351.08 1173.04 2528.08 952.031 2704.09 845.028 2881.09 840.028 3058.1 824.027 3235.11 650.021 3412.11 549.018 3589.12 399.013 3766 337" stroke="#4472C4" stroke-width="10.3125" stroke-linecap="round" stroke-linejoin="round" stroke-miterlimit="10" fill="none"/></g><g clip-path="url(#clip6)"><path d="M1653.06 1621.34C1653.06 1627.42 1648.14 1632.34 1642.06 1632.34 1635.99 1632.34 1631.06 1627.42 1631.06 1621.34 1631.06 1615.27 1635.99 1610.34 1642.06 1610.34 1648.14 1610.34 1653.06 1615.27 1653.06 1621.34Z" stroke="#4472C4" stroke-width="3.4375" stroke-linejoin="round" stroke-miterlimit="10" fill="#4472C4"/><path d="M1830.06 1567.34C1830.06 1573.42 1825.14 1578.34 1819.06 1578.34 1812.99 1578.34 1808.06 1573.42 1808.06 1567.34 1808.06 1561.27 1812.99 1556.34 1819.06 1556.34 1825.14 1556.34 1830.06 1561.27 1830.06 1567.34Z" stroke="#4472C4" stroke-width="3.4375" stroke-linejoin="round" stroke-miterlimit="10" fill="#4472C4"/><path d="M2007.06 1500.34C2007.06 1506.42 2002.14 1511.34 1996.06 1511.34 1989.99 1511.34 1985.06 1506.42 1985.06 1500.34 1985.06 1494.27 1989.99 1489.34 1996.06 1489.34 2002.14 1489.34 2007.06 1494.27 2007.06 1500.34Z" stroke="#4472C4" stroke-width="3.4375" stroke-linejoin="round" stroke-miterlimit="10" fill="#4472C4"/><path d="M2184.06 1383.34C2184.06 1389.42 2179.14 1394.34 2173.06 1394.34 2166.99 1394.34 2162.06 1389.42 2162.06 1383.34 2162.06 1377.27 2166.99 1372.34 2173.06 1372.34 2179.14 1372.34 2184.06 1377.27 2184.06 1383.34Z" stroke="#4472C4" stroke-width="3.4375" stroke-linejoin="round" stroke-miterlimit="10" fill="#4472C4"/><path d="M2361.06 1172.34C2361.06 1178.42 2356.14 1183.34 2350.06 1183.34 2343.99 1183.34 2339.06 1178.42 2339.06 1172.34 2339.06 1166.27 2343.99 1161.34 2350.06 1161.34 2356.14 1161.34 2361.06 1166.27 2361.06 1172.34Z" stroke="#4472C4" stroke-width="3.4375" stroke-linejoin="round" stroke-miterlimit="10" fill="#4472C4"/><path d="M2538.06 952.342C2538.06 958.417 2533.14 963.342 2527.06 963.342 2520.99 963.342 2516.06 958.417 2516.06 952.342 2516.06 946.267 2520.99 941.343 2527.06 941.343 2533.14 941.343 2538.06 946.267 2538.06 952.342Z" stroke="#4472C4" stroke-width="3.4375" stroke-linejoin="round" stroke-miterlimit="10" fill="#4472C4"/><path d="M2715.06 844.342C2715.06 850.417 2710.14 855.342 2704.06 855.342 2697.99 855.342 2693.06 850.417 2693.06 844.342 2693.06 838.267 2697.99 833.343 2704.06 833.343 2710.14 833.343 2715.06 838.267 2715.06 844.342Z" stroke="#4472C4" stroke-width="3.4375" stroke-linejoin="round" stroke-miterlimit="10" fill="#4472C4"/><path d="M2892.06 840.342C2892.06 846.417 2887.14 851.342 2881.06 851.342 2874.99 851.342 2870.06 846.417 2870.06 840.342 2870.06 834.267 2874.99 829.343 2881.06 829.343 2887.14 829.343 2892.06 834.267 2892.06 840.342Z" stroke="#4472C4" stroke-width="3.4375" stroke-linejoin="round" stroke-miterlimit="10" fill="#4472C4"/><path d="M3069.06 824.342C3069.06 830.417 3064.14 835.342 3058.06 835.342 3051.99 835.342 3047.06 830.417 3047.06 824.342 3047.06 818.268 3051.99 813.343 3058.06 813.343 3064.14 813.343 3069.06 818.268 3069.06 824.342Z" stroke="#4472C4" stroke-width="3.4375" stroke-linejoin="round" stroke-miterlimit="10" fill="#4472C4"/><path d="M3246.06 650.342C3246.06 656.417 3241.14 661.342 3235.06 661.342 3228.99 661.342 3224.06 656.417 3224.06 650.342 3224.06 644.267 3228.99 639.343 3235.06 639.343 3241.14 639.343 3246.06 644.267 3246.06 650.342Z" stroke="#4472C4" stroke-width="3.4375" stroke-linejoin="round" stroke-miterlimit="10" fill="#4472C4"/><path d="M3423.06 549.342C3423.06 555.417 3418.14 560.342 3412.06 560.342 3405.99 560.342 3401.06 555.417 3401.06 549.342 3401.06 543.268 3405.99 538.343 3412.06 538.343 3418.14 538.343 3423.06 543.268 3423.06 549.342Z" stroke="#4472C4" stroke-width="3.4375" stroke-linejoin="round" stroke-miterlimit="10" fill="#4472C4"/><path d="M3600.06 399.342C3600.06 405.417 3595.14 410.342 3589.06 410.342 3582.99 410.342 3578.06 405.417 3578.06 399.342 3578.06 393.267 3582.99 388.343 3589.06 388.343 3595.14 388.343 3600.06 393.267 3600.06 399.342Z" stroke="#4472C4" stroke-width="3.4375" stroke-linejoin="round" stroke-miterlimit="10" fill="#4472C4"/><path d="M3777.06 336.342C3777.06 342.417 3772.14 347.342 3766.06 347.342 3759.99 347.342 3755.06 342.417 3755.06 336.342 3755.06 330.267 3759.99 325.343 3766.06 325.343 3772.14 325.343 3777.06 330.267 3777.06 336.342Z" stroke="#4472C4" stroke-width="3.4375" stroke-linejoin="round" stroke-miterlimit="10" fill="#4472C4"/></g><g clip-path="url(#clip7)"><text fill="#595959" font-family="Calibri,Calibri_MSFontService,sans-serif" font-weight="400" font-size="41" transform="matrix(1 0 0 1 1443.15 1710)">0.00</text></g><g clip-path="url(#clip8)"><text fill="#595959" font-family="Calibri,Calibri_MSFontService,sans-serif" font-weight="400" font-size="41" transform="matrix(1 0 0 1 1422.25 1550)">10.00</text></g><g clip-path="url(#clip9)"><text fill="#595959" font-family="Calibri,Calibri_MSFontService,sans-serif" font-weight="400" font-size="41" transform="matrix(1 0 0 1 1422.25 1390)">20.00</text></g><g clip-path="url(#clip10)"><text fill="#595959" font-family="Calibri,Calibri_MSFontService,sans-serif" font-weight="400" font-size="41" transform="matrix(1 0 0 1 1422.25 1231)">30.00</text></g><g clip-path="url(#clip11)"><text fill="#595959" font-family="Calibri,Calibri_MSFontService,sans-serif" font-weight="400" font-size="41" transform="matrix(1 0 0 1 1422.25 1071)">40.00</text></g><g clip-path="url(#clip12)"><text fill="#595959" font-family="Calibri,Calibri_MSFontService,sans-serif" font-weight="400" font-size="41" transform="matrix(1 0 0 1 1422.25 911)">50.00</text></g><g clip-path="url(#clip13)"><text fill="#595959" font-family="Calibri,Calibri_MSFontService,sans-serif" font-weight="400" font-size="41" transform="matrix(1 0 0 1 1422.25 751)">60.00</text></g><g clip-path="url(#clip14)"><text fill="#595959" font-family="Calibri,Calibri_MSFontService,sans-serif" font-weight="400" font-size="41" transform="matrix(1 0 0 1 1422.25 591)">70.00</text></g><g clip-path="url(#clip15)"><text fill="#595959" font-family="Calibri,Calibri_MSFontService,sans-serif" font-weight="400" font-size="41" transform="matrix(1 0 0 1 1422.25 431)">80.00</text></g><g clip-path="url(#clip16)"><text fill="#595959" font-family="Calibri,Calibri_MSFontService,sans-serif" font-weight="400" font-size="41" transform="matrix(1 0 0 1 1422.25 272)">90.00</text></g><g clip-path="url(#clip17)"><text fill="#595959" font-family="Calibri,Calibri_MSFontService,sans-serif" font-weight="400" font-size="41" transform="matrix(1 0 0 1 1401.35 112)">100.00</text></g><g clip-path="url(#clip18)"><text fill="#595959" font-family="Calibri,Calibri_MSFontService,sans-serif" font-weight="400" font-size="41" transform="matrix(6.12323e-17 -1 1 6.12323e-17 1656.82 1868)">Seq2Seq</text></g><g clip-path="url(#clip19)"><text fill="#595959" font-family="Calibri,Calibri_MSFontService,sans-serif" font-weight="400" font-size="41" transform="matrix(6.12323e-17 -1 1 6.12323e-17 1833.74 1870)">TypeSQL</text></g><g clip-path="url(#clip20)"><text fill="#595959" font-family="Calibri,Calibri_MSFontService,sans-serif" font-weight="400" font-size="41" transform="matrix(6.12323e-17 -1 1 6.12323e-17 2010.67 1850)">SQLNet</text></g><g clip-path="url(#clip21)"><text fill="#595959" font-family="Calibri,Calibri_MSFontService,sans-serif" font-weight="400" font-size="41" transform="matrix(6.12323e-17 -1 1 6.12323e-17 2187.6 1960)">SyntaxSQLNet</text></g><g clip-path="url(#clip22)"><text fill="#595959" font-family="Calibri,Calibri_MSFontService,sans-serif" font-weight="400" font-size="41" transform="matrix(6.12323e-17 -1 1 6.12323e-17 2364.53 1854)">EditSQL</text></g><g clip-path="url(#clip23)"><text fill="#595959" font-family="Calibri,Calibri_MSFontService,sans-serif" font-weight="400" font-size="41" transform="matrix(6.12323e-17 -1 1 6.12323e-17 2541.45 1818)">IRNet</text></g><g clip-path="url(#clip24)"><text fill="#595959" font-family="Calibri,Calibri_MSFontService,sans-serif" font-weight="400" font-size="41" transform="matrix(6.12323e-17 -1 1 6.12323e-17 2718.38 1959)">EditSQL+BERT</text></g><g clip-path="url(#clip25)"><text fill="#595959" font-family="Calibri,Calibri_MSFontService,sans-serif" font-weight="400" font-size="41" transform="matrix(6.12323e-17 -1 1 6.12323e-17 2895.31 1855)">RATSQL</text></g><g clip-path="url(#clip26)"><text fill="#595959" font-family="Calibri,Calibri_MSFontService,sans-serif" font-weight="400" font-size="41" transform="matrix(6.12323e-17 -1 1 6.12323e-17 3072.24 1924)">IRNet+BERT</text></g><g clip-path="url(#clip27)"><text fill="#595959" font-family="Calibri,Calibri_MSFontService,sans-serif" font-weight="400" font-size="41" transform="matrix(6.12323e-17 -1 1 6.12323e-17 3249.16 1970)">RATSQL+BERT</text></g><g clip-path="url(#clip28)"><text fill="#595959" font-family="Calibri,Calibri_MSFontService,sans-serif" font-weight="400" font-size="41" transform="matrix(6.12323e-17 -1 1 6.12323e-17 3426.09 1967)">T5-3B+PICARD</text></g><g clip-path="url(#clip29)"><text fill="#595959" font-family="Calibri,Calibri_MSFontService,sans-serif" font-weight="400" font-size="41" transform="matrix(6.12323e-17 -1 1 6.12323e-17 3603.02 1931)">ChatGPT 3.5</text></g><g clip-path="url(#clip30)"><text fill="#595959" font-family="Calibri,Calibri_MSFontService,sans-serif" font-weight="400" font-size="41" transform="matrix(6.12323e-17 -1 1 6.12323e-17 3779.95 1899)">ChatGPT 4</text></g><g clip-path="url(#clip31)"><text fill="#595959" font-family="Calibri,Calibri_MSFontService,sans-serif" font-weight="400" font-size="41" transform="matrix(1 0 0 1 1582.78 2039)">1/2016</text></g><g clip-path="url(#clip32)"><text fill="#595959" font-family="Calibri,Calibri_MSFontService,sans-serif" font-weight="400" font-size="41" transform="matrix(1 0 0 1 1759.7 2039)">4/2018</text></g><g clip-path="url(#clip33)"><text fill="#595959" font-family="Calibri,Calibri_MSFontService,sans-serif" font-weight="400" font-size="41" transform="matrix(1 0 0 1 1936.63 2039)">9/2018</text></g><g clip-path="url(#clip34)"><text fill="#595959" font-family="Calibri,Calibri_MSFontService,sans-serif" font-weight="400" font-size="41" transform="matrix(1 0 0 1 2103.11 2039)">10/2018</text></g><g clip-path="url(#clip35)"><text fill="#595959" font-family="Calibri,Calibri_MSFontService,sans-serif" font-weight="400" font-size="41" transform="matrix(1 0 0 1 2290.49 2039)">9/2019</text></g><g clip-path="url(#clip36)"><text fill="#595959" font-family="Calibri,Calibri_MSFontService,sans-serif" font-weight="400" font-size="41" transform="matrix(1 0 0 1 2467.41 2039)">5/2019</text></g><g clip-path="url(#clip37)"><text fill="#595959" font-family="Calibri,Calibri_MSFontService,sans-serif" font-weight="400" font-size="41" transform="matrix(1 0 0 1 2644.34 2039)">9/2019</text></g><g clip-path="url(#clip38)"><text fill="#595959" font-family="Calibri,Calibri_MSFontService,sans-serif" font-weight="400" font-size="41" transform="matrix(1 0 0 1 2821.27 2039)">9/2019</text></g><g clip-path="url(#clip39)"><text fill="#595959" font-family="Calibri,Calibri_MSFontService,sans-serif" font-weight="400" font-size="41" transform="matrix(1 0 0 1 2998.2 2039)">5/2019</text></g><g clip-path="url(#clip40)"><text fill="#595959" font-family="Calibri,Calibri_MSFontService,sans-serif" font-weight="400" font-size="41" transform="matrix(1 0 0 1 3175.12 2039)">5/2020</text></g><g clip-path="url(#clip41)"><text fill="#595959" font-family="Calibri,Calibri_MSFontService,sans-serif" font-weight="400" font-size="41" transform="matrix(1 0 0 1 3352.05 2039)">7/2021</text></g><g clip-path="url(#clip42)"><text fill="#595959" font-family="Calibri,Calibri_MSFontService,sans-serif" font-weight="400" font-size="41" transform="matrix(1 0 0 1 3528.98 2039)">2/2023</text></g><g clip-path="url(#clip43)"><text fill="#595959" font-family="Calibri,Calibri_MSFontService,sans-serif" font-weight="400" font-size="41" transform="matrix(1 0 0 1 3705.91 2039)">3/2023</text></g><rect x="1372.5" y="50.5" width="2533" height="2026" stroke="#D9D9D9" stroke-width="3.4375" stroke-linejoin="round" stroke-miterlimit="10" fill="none"/></g></svg>