<svg width="2536" height="1909" xmlns="http://www.w3.org/2000/svg" xmlns:xlink="http://www.w3.org/1999/xlink" xml:space="preserve" overflow="hidden"><defs><clipPath id="clip0"><rect x="1371" y="49" width="2536" height="1909"/></clipPath><clipPath id="clip1"><rect x="1371" y="49" width="2534" height="1906"/></clipPath><clipPath id="clip2"><rect x="1371" y="49" width="2534" height="1906"/></clipPath><clipPath id="clip3"><rect x="1371" y="49" width="2534" height="1906"/></clipPath><clipPath id="clip4"><rect x="1371" y="49" width="2534" height="1906"/></clipPath><clipPath id="clip5"><rect x="1554" y="100" width="2304" height="1481"/></clipPath><clipPath id="clip6"><rect x="1371" y="49" width="2534" height="1906"/></clipPath><clipPath id="clip7"><rect x="1371" y="49" width="2534" height="1906"/></clipPath><clipPath id="clip8"><rect x="1371" y="49" width="2534" height="1906"/></clipPath><clipPath id="clip9"><rect x="1371" y="49" width="2534" height="1906"/></clipPath><clipPath id="clip10"><rect x="1371" y="49" width="2534" height="1906"/></clipPath><clipPath id="clip11"><rect x="1371" y="49" width="2534" height="1906"/></clipPath><clipPath id="clip12"><rect x="1371" y="49" width="2534" height="1906"/></clipPath><clipPath id="clip13"><rect x="1371" y="49" width="2534" height="1906"/></clipPath><clipPath id="clip14"><rect x="1371" y="49" width="2534" height="1906"/></clipPath><clipPath id="clip15"><rect x="1371" y="49" width="2534" height="1906"/></clipPath><clipPath id="clip16"><rect x="1371" y="49" width="2534" height="1906"/></clipPath><clipPath id="clip17"><rect x="1371" y="49" width="2534" height="1906"/></clipPath><clipPath id="clip18"><rect x="1371" y="49" width="2534" height="1906"/></clipPath><clipPath id="clip19"><rect x="1371" y="49" width="2534" height="1906"/></clipPath><clipPath id="clip20"><rect x="1371" y="49" width="2534" height="1906"/></clipPath><clipPath id="clip21"><rect x="1371" y="49" width="2534" height="1906"/></clipPath><clipPath id="clip22"><rect x="1371" y="49" width="2534" height="1906"/></clipPath><clipPath id="clip23"><rect x="1371" y="49" width="2534" height="1906"/></clipPath><clipPath id="clip24"><rect x="1371" y="49" width="2534" height="1906"/></clipPath><clipPath id="clip25"><rect x="1371" y="49" width="2534" height="1906"/></clipPath><clipPath id="clip26"><rect x="1371" y="49" width="2534" height="1906"/></clipPath><clipPath id="clip27"><rect x="1371" y="49" width="2534" height="1906"/></clipPath><clipPath id="clip28"><rect x="1371" y="49" width="2534" height="1906"/></clipPath><clipPath id="clip29"><rect x="1371" y="49" width="2534" height="1906"/></clipPath><clipPath id="clip30"><rect x="1371" y="49" width="2534" height="1906"/></clipPath><clipPath id="clip31"><rect x="1371" y="49" width="2534" height="1906"/></clipPath><clipPath id="clip32"><rect x="1371" y="49" width="2534" height="1906"/></clipPath><clipPath id="clip33"><rect x="1371" y="49" width="2534" height="1906"/></clipPath><clipPath id="clip34"><rect x="1371" y="49" width="2534" height="1906"/></clipPath><clipPath id="clip35"><rect x="1371" y="49" width="2534" height="1906"/></clipPath><clipPath id="clip36"><rect x="1371" y="49" width="2534" height="1906"/></clipPath><clipPath id="clip37"><rect x="1371" y="49" width="2534" height="1906"/></clipPath><clipPath id="clip38"><rect x="1371" y="49" width="2534" height="1906"/></clipPath><clipPath id="clip39"><rect x="1371" y="49" width="2534" height="1906"/></clipPath></defs><g clip-path="url(#clip0)" transform="translate(-1371 -49)"><rect x="1372" y="49.9998" width="2533" height="1906" fill="#FFFFFF"/><g clip-path="url(#clip1)"><path d="M1554.5 1430.55 3854.5 1430.55M1554.5 1282.54 3854.5 1282.54M1554.5 1134.54 3854.5 1134.54M1554.5 986.533 3854.5 986.533M1554.5 839.528 3854.5 839.528M1554.5 691.523 3854.5 691.523M1554.5 543.518 3854.5 543.518M1554.5 395.513 3854.5 395.513M1554.5 248.508 3854.5 248.508M1554.5 100.5 3854.5 100.5" stroke="#D9D9D9" stroke-width="3.4375" stroke-linejoin="round" stroke-miterlimit="10" fill="none"/></g><g clip-path="url(#clip2)"><path d="M1554.5 1578.5 3854.5 1578.5" stroke="#D9D9D9" stroke-width="3.4375" stroke-linejoin="round" stroke-miterlimit="10" fill="none" fill-rule="evenodd"/></g><g clip-path="url(#clip3)"><path d="M1554.5 1578.5 1554.5 1853.5M1763.56 1578.5 1763.56 1853.5M1972.56 1578.5 1972.56 1853.5M2181.57 1578.5 2181.57 1853.5M2390.58 1578.5 2390.58 1853.5M2599.59 1578.5 2599.59 1853.5M2809.59 1578.5 2809.59 1853.5M3018.6 1578.5 3018.6 1853.5M3227.61 1578.5 3227.61 1853.5M3436.61 1578.5 3436.61 1853.5M3645.62 1578.5 3645.62 1853.5M3854.5 1578.5 3854.5 1853.5" stroke="#D9D9D9" stroke-width="3.4375" stroke-linejoin="round" stroke-miterlimit="10" fill="none"/></g><g clip-path="url(#clip4)"><path d="M1554.5 1853.5 1554.5 1933.5M1763.56 1853.5 1763.56 1933.5M1972.56 1853.5 1972.56 1933.5M2181.57 1853.5 2181.57 1933.5M2390.58 1853.5 2390.58 1933.5M2599.59 1853.5 2599.59 1933.5M2809.59 1853.5 2809.59 1933.5M3018.6 1853.5 3018.6 1933.5M3227.61 1853.5 3227.61 1933.5M3436.61 1853.5 3436.61 1933.5M3645.62 1853.5 3645.62 1933.5M3854.5 1853.5 3854.5 1933.5" stroke="#D9D9D9" stroke-width="3.4375" stroke-linejoin="round" stroke-miterlimit="10" fill="none"/></g><g clip-path="url(#clip5)"><path d="M1659 1507 1868.06 1457.05 2077.07 1395.05 2286.07 1287.04 2495.08 1092.04 2704.09 888.029 2914.1 789.026 3123.1 784.026 3332.11 770.025 3541.12 609.02 3750 516" stroke="#4472C4" stroke-width="10.3125" stroke-linecap="round" stroke-linejoin="round" stroke-miterlimit="10" fill="none"/></g><g clip-path="url(#clip6)"><path d="M1670.06 1507.34C1670.06 1513.42 1665.14 1518.34 1659.06 1518.34 1652.99 1518.34 1648.06 1513.42 1648.06 1507.34 1648.06 1501.27 1652.99 1496.34 1659.06 1496.34 1665.14 1496.34 1670.06 1501.27 1670.06 1507.34Z" stroke="#4472C4" stroke-width="3.4375" stroke-linejoin="round" stroke-miterlimit="10" fill="#4472C4"/><path d="M1879.06 1456.34C1879.06 1462.42 1874.14 1467.34 1868.06 1467.34 1861.99 1467.34 1857.06 1462.42 1857.06 1456.34 1857.06 1450.27 1861.99 1445.34 1868.06 1445.34 1874.14 1445.34 1879.06 1450.27 1879.06 1456.34Z" stroke="#4472C4" stroke-width="3.4375" stroke-linejoin="round" stroke-miterlimit="10" fill="#4472C4"/><path d="M2088.06 1394.34C2088.06 1400.42 2083.14 1405.34 2077.06 1405.34 2070.99 1405.34 2066.06 1400.42 2066.06 1394.34 2066.06 1388.27 2070.99 1383.34 2077.06 1383.34 2083.14 1383.34 2088.06 1388.27 2088.06 1394.34Z" stroke="#4472C4" stroke-width="3.4375" stroke-linejoin="round" stroke-miterlimit="10" fill="#4472C4"/><path d="M2297.06 1286.34C2297.06 1292.42 2292.14 1297.34 2286.06 1297.34 2279.99 1297.34 2275.06 1292.42 2275.06 1286.34 2275.06 1280.27 2279.99 1275.34 2286.06 1275.34 2292.14 1275.34 2297.06 1280.27 2297.06 1286.34Z" stroke="#4472C4" stroke-width="3.4375" stroke-linejoin="round" stroke-miterlimit="10" fill="#4472C4"/><path d="M2506.06 1091.34C2506.06 1097.42 2501.14 1102.34 2495.06 1102.34 2488.99 1102.34 2484.06 1097.42 2484.06 1091.34 2484.06 1085.27 2488.99 1080.34 2495.06 1080.34 2501.14 1080.34 2506.06 1085.27 2506.06 1091.34Z" stroke="#4472C4" stroke-width="3.4375" stroke-linejoin="round" stroke-miterlimit="10" fill="#4472C4"/><path d="M2715.06 887.343C2715.06 893.418 2710.14 898.342 2704.06 898.342 2697.99 898.342 2693.06 893.418 2693.06 887.343 2693.06 881.268 2697.99 876.343 2704.06 876.343 2710.14 876.343 2715.06 881.268 2715.06 887.343Z" stroke="#4472C4" stroke-width="3.4375" stroke-linejoin="round" stroke-miterlimit="10" fill="#4472C4"/><path d="M2924.06 788.343C2924.06 794.418 2919.14 799.342 2913.06 799.342 2906.99 799.342 2902.06 794.418 2902.06 788.343 2902.06 782.268 2906.99 777.343 2913.06 777.343 2919.14 777.343 2924.06 782.268 2924.06 788.343Z" stroke="#4472C4" stroke-width="3.4375" stroke-linejoin="round" stroke-miterlimit="10" fill="#4472C4"/><path d="M3133.06 784.343C3133.06 790.418 3128.14 795.342 3122.06 795.342 3115.99 795.342 3111.06 790.418 3111.06 784.343 3111.06 778.268 3115.99 773.343 3122.06 773.343 3128.14 773.343 3133.06 778.268 3133.06 784.343Z" stroke="#4472C4" stroke-width="3.4375" stroke-linejoin="round" stroke-miterlimit="10" fill="#4472C4"/><path d="M3342.06 769.343C3342.06 775.418 3337.14 780.342 3331.06 780.342 3324.99 780.342 3320.06 775.418 3320.06 769.343 3320.06 763.268 3324.99 758.343 3331.06 758.343 3337.14 758.343 3342.06 763.268 3342.06 769.343Z" stroke="#4472C4" stroke-width="3.4375" stroke-linejoin="round" stroke-miterlimit="10" fill="#4472C4"/><path d="M3551.06 608.343C3551.06 614.418 3546.14 619.342 3540.06 619.342 3533.99 619.342 3529.06 614.418 3529.06 608.343 3529.06 602.268 3533.99 597.343 3540.06 597.343 3546.14 597.343 3551.06 602.268 3551.06 608.343Z" stroke="#4472C4" stroke-width="3.4375" stroke-linejoin="round" stroke-miterlimit="10" fill="#4472C4"/><path d="M3761.06 515.343C3761.06 521.418 3756.14 526.342 3750.06 526.342 3743.99 526.342 3739.06 521.418 3739.06 515.343 3739.06 509.268 3743.99 504.343 3750.06 504.343 3756.14 504.343 3761.06 509.268 3761.06 515.343Z" stroke="#4472C4" stroke-width="3.4375" stroke-linejoin="round" stroke-miterlimit="10" fill="#4472C4"/></g><g clip-path="url(#clip7)"><text fill="#595959" font-family="Calibri,Calibri_MSFontService,sans-serif" font-weight="400" font-size="41" transform="matrix(1 0 0 1 1443.15 1590)">0.00</text></g><g clip-path="url(#clip8)"><text fill="#595959" font-family="Calibri,Calibri_MSFontService,sans-serif" font-weight="400" font-size="41" transform="matrix(1 0 0 1 1422.25 1442)">10.00</text></g><g clip-path="url(#clip9)"><text fill="#595959" font-family="Calibri,Calibri_MSFontService,sans-serif" font-weight="400" font-size="41" transform="matrix(1 0 0 1 1422.25 1294)">20.00</text></g><g clip-path="url(#clip10)"><text fill="#595959" font-family="Calibri,Calibri_MSFontService,sans-serif" font-weight="400" font-size="41" transform="matrix(1 0 0 1 1422.25 1146)">30.00</text></g><g clip-path="url(#clip11)"><text fill="#595959" font-family="Calibri,Calibri_MSFontService,sans-serif" font-weight="400" font-size="41" transform="matrix(1 0 0 1 1422.25 999)">40.00</text></g><g clip-path="url(#clip12)"><text fill="#595959" font-family="Calibri,Calibri_MSFontService,sans-serif" font-weight="400" font-size="41" transform="matrix(1 0 0 1 1422.25 851)">50.00</text></g><g clip-path="url(#clip13)"><text fill="#595959" font-family="Calibri,Calibri_MSFontService,sans-serif" font-weight="400" font-size="41" transform="matrix(1 0 0 1 1422.25 703)">60.00</text></g><g clip-path="url(#clip14)"><text fill="#595959" font-family="Calibri,Calibri_MSFontService,sans-serif" font-weight="400" font-size="41" transform="matrix(1 0 0 1 1422.25 555)">70.00</text></g><g clip-path="url(#clip15)"><text fill="#595959" font-family="Calibri,Calibri_MSFontService,sans-serif" font-weight="400" font-size="41" transform="matrix(1 0 0 1 1422.25 407)">80.00</text></g><g clip-path="url(#clip16)"><text fill="#595959" font-family="Calibri,Calibri_MSFontService,sans-serif" font-weight="400" font-size="41" transform="matrix(1 0 0 1 1422.25 260)">90.00</text></g><g clip-path="url(#clip17)"><text fill="#595959" font-family="Calibri,Calibri_MSFontService,sans-serif" font-weight="400" font-size="41" transform="matrix(1 0 0 1 1401.35 112)">100.00</text></g><g clip-path="url(#clip18)"><text fill="#595959" font-family="Calibri,Calibri_MSFontService,sans-serif" font-weight="400" font-size="41" transform="matrix(6.12323e-17 -1 1 6.12323e-17 1672.9 1747)">Seq2Seq</text></g><g clip-path="url(#clip19)"><text fill="#595959" font-family="Calibri,Calibri_MSFontService,sans-serif" font-weight="400" font-size="41" transform="matrix(6.12323e-17 -1 1 6.12323e-17 1882 1749)">TypeSQL</text></g><g clip-path="url(#clip20)"><text fill="#595959" font-family="Calibri,Calibri_MSFontService,sans-serif" font-weight="400" font-size="41" transform="matrix(6.12323e-17 -1 1 6.12323e-17 2091.09 1729)">SQLNet</text></g><g clip-path="url(#clip21)"><text fill="#595959" font-family="Calibri,Calibri_MSFontService,sans-serif" font-weight="400" font-size="41" transform="matrix(6.12323e-17 -1 1 6.12323e-17 2300.19 1840)">SyntaxSQLNet</text></g><g clip-path="url(#clip22)"><text fill="#595959" font-family="Calibri,Calibri_MSFontService,sans-serif" font-weight="400" font-size="41" transform="matrix(6.12323e-17 -1 1 6.12323e-17 2509.28 1733)">EditSQL</text></g><g clip-path="url(#clip23)"><text fill="#595959" font-family="Calibri,Calibri_MSFontService,sans-serif" font-weight="400" font-size="41" transform="matrix(6.12323e-17 -1 1 6.12323e-17 2718.38 1698)">IRNet</text></g><g clip-path="url(#clip24)"><text fill="#595959" font-family="Calibri,Calibri_MSFontService,sans-serif" font-weight="400" font-size="41" transform="matrix(6.12323e-17 -1 1 6.12323e-17 2927.48 1839)">EditSQL+BERT</text></g><g clip-path="url(#clip25)"><text fill="#595959" font-family="Calibri,Calibri_MSFontService,sans-serif" font-weight="400" font-size="41" transform="matrix(6.12323e-17 -1 1 6.12323e-17 3136.57 1735)">RATSQL</text></g><g clip-path="url(#clip26)"><text fill="#595959" font-family="Calibri,Calibri_MSFontService,sans-serif" font-weight="400" font-size="41" transform="matrix(6.12323e-17 -1 1 6.12323e-17 3345.67 1804)">IRNet+BERT</text></g><g clip-path="url(#clip27)"><text fill="#595959" font-family="Calibri,Calibri_MSFontService,sans-serif" font-weight="400" font-size="41" transform="matrix(6.12323e-17 -1 1 6.12323e-17 3554.76 1850)">RATSQL+BERT</text></g><g clip-path="url(#clip28)"><text fill="#595959" font-family="Calibri,Calibri_MSFontService,sans-serif" font-weight="400" font-size="41" transform="matrix(6.12323e-17 -1 1 6.12323e-17 3763.86 1847)">T5-3B+PICARD</text></g><g clip-path="url(#clip29)"><text fill="#595959" font-family="Calibri,Calibri_MSFontService,sans-serif" font-weight="400" font-size="41" transform="matrix(1 0 0 1 1598.86 1918)">1/2016</text></g><g clip-path="url(#clip30)"><text fill="#595959" font-family="Calibri,Calibri_MSFontService,sans-serif" font-weight="400" font-size="41" transform="matrix(1 0 0 1 1807.96 1918)">4/2018</text></g><g clip-path="url(#clip31)"><text fill="#595959" font-family="Calibri,Calibri_MSFontService,sans-serif" font-weight="400" font-size="41" transform="matrix(1 0 0 1 2017.05 1918)">9/2018</text></g><g clip-path="url(#clip32)"><text fill="#595959" font-family="Calibri,Calibri_MSFontService,sans-serif" font-weight="400" font-size="41" transform="matrix(1 0 0 1 2215.7 1918)">10/2018</text></g><g clip-path="url(#clip33)"><text fill="#595959" font-family="Calibri,Calibri_MSFontService,sans-serif" font-weight="400" font-size="41" transform="matrix(1 0 0 1 2435.24 1918)">9/2019</text></g><g clip-path="url(#clip34)"><text fill="#595959" font-family="Calibri,Calibri_MSFontService,sans-serif" font-weight="400" font-size="41" transform="matrix(1 0 0 1 2644.34 1918)">5/2019</text></g><g clip-path="url(#clip35)"><text fill="#595959" font-family="Calibri,Calibri_MSFontService,sans-serif" font-weight="400" font-size="41" transform="matrix(1 0 0 1 2853.44 1918)">9/2019</text></g><g clip-path="url(#clip36)"><text fill="#595959" font-family="Calibri,Calibri_MSFontService,sans-serif" font-weight="400" font-size="41" transform="matrix(1 0 0 1 3062.53 1918)">9/2019</text></g><g clip-path="url(#clip37)"><text fill="#595959" font-family="Calibri,Calibri_MSFontService,sans-serif" font-weight="400" font-size="41" transform="matrix(1 0 0 1 3271.63 1918)">5/2019</text></g><g clip-path="url(#clip38)"><text fill="#595959" font-family="Calibri,Calibri_MSFontService,sans-serif" font-weight="400" font-size="41" transform="matrix(1 0 0 1 3480.73 1918)">5/2020</text></g><g clip-path="url(#clip39)"><text fill="#595959" font-family="Calibri,Calibri_MSFontService,sans-serif" font-weight="400" font-size="41" transform="matrix(1 0 0 1 3689.82 1918)">7/2021</text></g><rect x="1372.5" y="50.5" width="2533" height="1906" stroke="#D9D9D9" stroke-width="3.4375" stroke-linejoin="round" stroke-miterlimit="10" fill="none"/></g></svg>